<mxfile host="65bd71144e">
    <diagram id="Fs8rUrl8gcYHZySD1FoW" name="Page-1">
        <mxGraphModel dx="880" dy="1169" grid="1" gridSize="10" guides="1" tooltips="1" connect="1" arrows="1" fold="1" page="1" pageScale="1" pageWidth="850" pageHeight="1100" background="#ffffff" math="0" shadow="0">
            <root>
                <mxCell id="0"/>
                <mxCell id="1" parent="0"/>
                <mxCell id="16" value="" style="rounded=0;whiteSpace=wrap;html=1;fontSize=5;fillColor=#FFFFFF;" parent="1" vertex="1">
                    <mxGeometry y="280" width="880" height="440" as="geometry"/>
                </mxCell>
                <mxCell id="5" value="&lt;div style=&quot;&quot;&gt;&lt;div&gt;&amp;nbsp;&amp;nbsp;&lt;span style=&quot;font-size: 20px; background-color: initial;&quot;&gt;&lt;b&gt;Client&lt;/b&gt;&lt;/span&gt;&lt;/div&gt;&lt;div style=&quot;font-size: 5px;&quot;&gt;&lt;span style=&quot;background-color: initial;&quot;&gt;&lt;br&gt;&lt;/span&gt;&lt;/div&gt;&lt;div&gt;&amp;nbsp; &amp;lt;img src=&quot;/math?&lt;/div&gt;&lt;div&gt;&amp;nbsp; &amp;nbsp; color=yellow&amp;amp;inline=latax&quot;/&amp;gt;&lt;/div&gt;&lt;div&gt;&lt;br&gt;&lt;/div&gt;&lt;div&gt;&lt;br&gt;&lt;/div&gt;&lt;div&gt;&lt;br&gt;&lt;/div&gt;&lt;/div&gt;" style="rounded=1;whiteSpace=wrap;html=1;fontSize=16;arcSize=8;align=left;labelBackgroundColor=none;fontColor=#1A1A1A;labelBorderColor=none;fillColor=#FFFFFF;strokeColor=#1A1A1A;" parent="1" vertex="1">
                    <mxGeometry x="40" y="320" width="240" height="160" as="geometry"/>
                </mxCell>
                <mxCell id="6" value="&lt;font style=&quot;font-size: 20px;&quot;&gt;&lt;b&gt;AWS Lambda or Lambda@Edge&lt;/b&gt;&lt;/font&gt;&lt;br&gt;&lt;br&gt;/math?color=red&amp;amp;inline=latex&lt;br&gt;&lt;br&gt;&lt;font style=&quot;font-size: 20px;&quot;&gt;MathJax&lt;/font&gt;" style="rounded=1;whiteSpace=wrap;html=1;fontSize=16;arcSize=8;labelBackgroundColor=none;fontColor=#1A1A1A;fillColor=#FFFFFF;strokeColor=#1A1A1A;" parent="1" vertex="1">
                    <mxGeometry x="560" y="320" width="280" height="160" as="geometry"/>
                </mxCell>
                <mxCell id="7" value="" style="endArrow=classic;html=1;fontSize=20;exitX=1;exitY=0.25;exitDx=0;exitDy=0;entryX=0;entryY=0.25;entryDx=0;entryDy=0;labelBackgroundColor=none;fontColor=#1A1A1A;strokeColor=#1A1A1A;" parent="1" source="5" target="6" edge="1">
                    <mxGeometry width="50" height="50" relative="1" as="geometry">
                        <mxPoint x="420" y="490" as="sourcePoint"/>
                        <mxPoint x="360" y="360" as="targetPoint"/>
                    </mxGeometry>
                </mxCell>
                <mxCell id="8" value="" style="endArrow=classic;html=1;fontSize=20;entryX=1;entryY=0.75;entryDx=0;entryDy=0;exitX=0;exitY=0.75;exitDx=0;exitDy=0;labelBackgroundColor=none;fontColor=#1A1A1A;strokeColor=#1A1A1A;" parent="1" source="6" target="5" edge="1">
                    <mxGeometry width="50" height="50" relative="1" as="geometry">
                        <mxPoint x="360" y="440" as="sourcePoint"/>
                        <mxPoint x="450" y="440" as="targetPoint"/>
                    </mxGeometry>
                </mxCell>
                <mxCell id="14" value="&lt;div&gt;CDN&lt;/div&gt;&lt;div&gt;Cloudfront&lt;/div&gt;" style="ellipse;shape=cloud;whiteSpace=wrap;html=1;labelBackgroundColor=none;labelBorderColor=none;strokeColor=#1A1A1A;fontSize=20;fontColor=#1A1A1A;fillColor=#FFFFFF;" parent="1" vertex="1">
                    <mxGeometry x="310" y="330" width="205" height="130" as="geometry"/>
                </mxCell>
                <mxCell id="15" value="" style="shape=image;verticalLabelPosition=bottom;verticalAlign=top;imageAspect=0;aspect=fixed;image=data:image/svg+xml,PHN2ZyB4bWxucz0iaHR0cDovL3d3dy53My5vcmcvMjAwMC9zdmciIHZpZXdCb3g9IjAgLTgzMy45IDM4NDUuMSA5MTUuOSIgcm9sZT0iaW1nIiBoZWlnaHQ9IjIuMDcyZXgiIHdpZHRoPSI4LjY5OWV4IiBzdHlsZT0idmVydGljYWwtYWxpZ246IC0wLjE4NmV4Ij4KPHN0eWxlPgogICogewogICAgZmlsbDogYmxhY2s7CiAgfQogIEBtZWRpYSAocHJlZmVycy1jb2xvci1zY2hlbWU6IGRhcmspIHsKICAgICogewogICAgICBmaWxsOiBibGFjazsKICAgIH0KICB9Cjwvc3R5bGU+PGcgdHJhbnNmb3JtPSJzY2FsZSgxLC0xKSIgc3Ryb2tlLXdpZHRoPSIwIiBmaWxsPSJjdXJyZW50Q29sb3IiIHN0cm9rZT0iY3VycmVudENvbG9yIj48ZyBkYXRhLW1tbC1ub2RlPSJtYXRoIj48ZyBkYXRhLW1tbC1ub2RlPSJtaSI+PHBhdGggZD0iTTQ5MiAyMTNRNDcyIDIxMyA0NzIgMjI2UTQ3MiAyMzAgNDc3IDI1MFQ0ODIgMjg1UTQ4MiAzMTYgNDYxIDMyM1QzNjQgMzMwSDMxMlEzMTEgMzI4IDI3NyAxOTJUMjQzIDUyUTI0MyA0OCAyNTQgNDhUMzM0IDQ2UTQyOCA0NiA0NTggNDhUNTE4IDYxUTU2NyA3NyA1OTkgMTE3VDY3MCAyNDhRNjgwIDI3MCA2ODMgMjcyUTY5MCAyNzQgNjk4IDI3NFE3MTggMjc0IDcxOCAyNjFRNjEzIDcgNjA4IDJRNjA1IDAgMzIyIDBIMTMzUTMxIDAgMzEgMTFRMzEgMTMgMzQgMjVRMzggNDEgNDIgNDNUNjUgNDZROTIgNDYgMTI1IDQ5UTEzOSA1MiAxNDQgNjFRMTQ2IDY2IDIxNSAzNDJUMjg1IDYyMlEyODUgNjI5IDI4MSA2MjlRMjczIDYzMiAyMjggNjM0SDE5N1ExOTEgNjQwIDE5MSA2NDJUMTkzIDY1OVExOTcgNjc2IDIwMyA2ODBINzU3UTc2NCA2NzYgNzY0IDY2OVE3NjQgNjY0IDc1MSA1NTdUNzM3IDQ0N1E3MzUgNDQwIDcxNyA0NDBINzA1UTY5OCA0NDUgNjk4IDQ1M0w3MDEgNDc2UTcwNCA1MDAgNzA0IDUyOFE3MDQgNTU4IDY5NyA1NzhUNjc4IDYwOVQ2NDMgNjI1VDU5NiA2MzJUNTMyIDYzNEg0ODVRMzk3IDYzMyAzOTIgNjMxUTM4OCA2MjkgMzg2IDYyMlEzODUgNjE5IDM1NSA0OTlUMzI0IDM3N1EzNDcgMzc2IDM3MiAzNzZIMzk4UTQ2NCAzNzYgNDg5IDM5MVQ1MzQgNDcyUTUzOCA0ODggNTQwIDQ5MFQ1NTcgNDkzUTU2MiA0OTMgNTY1IDQ5M1Q1NzAgNDkyVDU3MiA0OTFUNTc0IDQ4N1Q1NzcgNDgzTDU0NCAzNTFRNTExIDIxOCA1MDggMjE2UTUwNSAyMTMgNDkyIDIxM1oiIGRhdGEtYz0iMUQ0MzgiLz48L2c+PGcgdHJhbnNmb3JtPSJ0cmFuc2xhdGUoMTA0MS44LDApIiBkYXRhLW1tbC1ub2RlPSJtbyI+PHBhdGggZD0iTTU2IDM0N1E1NiAzNjAgNzAgMzY3SDcwN1E3MjIgMzU5IDcyMiAzNDdRNzIyIDMzNiA3MDggMzI4TDM5MCAzMjdINzJRNTYgMzMyIDU2IDM0N1pNNTYgMTUzUTU2IDE2OCA3MiAxNzNINzA4UTcyMiAxNjMgNzIyIDE1M1E3MjIgMTQwIDcwNyAxMzNINzBRNTYgMTQwIDU2IDE1M1oiIGRhdGEtYz0iM0QiLz48L2c+PGcgdHJhbnNmb3JtPSJ0cmFuc2xhdGUoMjA5Ny42LDApIiBkYXRhLW1tbC1ub2RlPSJtaSI+PHBhdGggZD0iTTIxIDI4N1EyMiAyOTMgMjQgMzAzVDM2IDM0MVQ1NiAzODhUODggNDI1VDEzMiA0NDJUMTc1IDQzNVQyMDUgNDE3VDIyMSAzOTVUMjI5IDM3NkwyMzEgMzY5UTIzMSAzNjcgMjMyIDM2N0wyNDMgMzc4UTMwMyA0NDIgMzg0IDQ0MlE0MDEgNDQyIDQxNSA0NDBUNDQxIDQzM1Q0NjAgNDIzVDQ3NSA0MTFUNDg1IDM5OFQ0OTMgMzg1VDQ5NyAzNzNUNTAwIDM2NFQ1MDIgMzU3TDUxMCAzNjdRNTczIDQ0MiA2NTkgNDQyUTcxMyA0NDIgNzQ2IDQxNVQ3ODAgMzM2UTc4MCAyODUgNzQyIDE3OFQ3MDQgNTBRNzA1IDM2IDcwOSAzMVQ3MjQgMjZRNzUyIDI2IDc3NiA1NlQ4MTUgMTM4UTgxOCAxNDkgODIxIDE1MVQ4MzcgMTUzUTg1NyAxNTMgODU3IDE0NVE4NTcgMTQ0IDg1MyAxMzBRODQ1IDEwMSA4MzEgNzNUNzg1IDE3VDcxNiAtMTBRNjY5IC0xMCA2NDggMTdUNjI3IDczUTYyNyA5MiA2NjMgMTkzVDcwMCAzNDVRNzAwIDQwNCA2NTYgNDA0SDY1MVE1NjUgNDA0IDUwNiAzMDNMNDk5IDI5MUw0NjYgMTU3UTQzMyAyNiA0MjggMTZRNDE1IC0xMSAzODUgLTExUTM3MiAtMTEgMzY0IC00VDM1MyA4VDM1MCAxOFEzNTAgMjkgMzg0IDE2MUw0MjAgMzA3UTQyMyAzMjIgNDIzIDM0NVE0MjMgNDA0IDM3OSA0MDRIMzc0UTI4OCA0MDQgMjI5IDMwM0wyMjIgMjkxTDE4OSAxNTdRMTU2IDI2IDE1MSAxNlExMzggLTExIDEwOCAtMTFROTUgLTExIDg3IC01VDc2IDdUNzQgMTdRNzQgMzAgMTEyIDE4MVExNTEgMzM1IDE1MSAzNDJRMTU0IDM1NyAxNTQgMzY5UTE1NCA0MDUgMTI5IDQwNVExMDcgNDA1IDkyIDM3N1Q2OSAzMTZUNTcgMjgwUTU1IDI3OCA0MSAyNzhIMjdRMjEgMjg0IDIxIDI4N1oiIGRhdGEtYz0iMUQ0NUEiLz48L2c+PGcgdHJhbnNmb3JtPSJ0cmFuc2xhdGUoMjk3NS42LDApIiBkYXRhLW1tbC1ub2RlPSJtc3VwIj48ZyBkYXRhLW1tbC1ub2RlPSJtaSI+PHBhdGggZD0iTTM0IDE1OVEzNCAyNjggMTIwIDM1NVQzMDYgNDQyUTM2MiA0NDIgMzk0IDQxOFQ0MjcgMzU1UTQyNyAzMjYgNDA4IDMwNlQzNjAgMjg1UTM0MSAyODUgMzMwIDI5NVQzMTkgMzI1VDMzMCAzNTlUMzUyIDM4MFQzNjYgMzg2SDM2N1EzNjcgMzg4IDM2MSAzOTJUMzQwIDQwMFQzMDYgNDA0UTI3NiA0MDQgMjQ5IDM5MFEyMjggMzgxIDIwNiAzNTlRMTYyIDMxNSAxNDIgMjM1VDEyMSAxMTlRMTIxIDczIDE0NyA1MFExNjkgMjYgMjA1IDI2SDIwOVEzMjEgMjYgMzk0IDExMVE0MDMgMTIxIDQwNiAxMjFRNDEwIDEyMSA0MTkgMTEyVDQyOSA5OFQ0MjAgODNUMzkxIDU1VDM0NiAyNVQyODIgMFQyMDIgLTExUTEyNyAtMTEgODEgMzdUMzQgMTU5WiIgZGF0YS1jPSIxRDQ1MCIvPjwvZz48ZyB0cmFuc2Zvcm09InRyYW5zbGF0ZSg0NjYsMzYzKSBzY2FsZSgwLjcwNykiIGRhdGEtbW1sLW5vZGU9Im1uIj48cGF0aCBkPSJNMTA5IDQyOVE4MiA0MjkgNjYgNDQ3VDUwIDQ5MVE1MCA1NjIgMTAzIDYxNFQyMzUgNjY2UTMyNiA2NjYgMzg3IDYxMFQ0NDkgNDY1UTQ0OSA0MjIgNDI5IDM4M1QzODEgMzE1VDMwMSAyNDFRMjY1IDIxMCAyMDEgMTQ5TDE0MiA5M0wyMTggOTJRMzc1IDkyIDM4NSA5N1EzOTIgOTkgNDA5IDE4NlYxODlINDQ5VjE4NlE0NDggMTgzIDQzNiA5NVQ0MjEgM1YwSDUwVjE5VjMxUTUwIDM4IDU2IDQ2VDg2IDgxUTExNSAxMTMgMTM2IDEzN1ExNDUgMTQ3IDE3MCAxNzRUMjA0IDIxMVQyMzMgMjQ0VDI2MSAyNzhUMjg0IDMwOFQzMDUgMzQwVDMyMCAzNjlUMzMzIDQwMVQzNDAgNDMxVDM0MyA0NjRRMzQzIDUyNyAzMDkgNTczVDIxMiA2MTlRMTc5IDYxOSAxNTQgNjAyVDExOSA1NjlUMTA5IDU1MFExMDkgNTQ5IDExNCA1NDlRMTMyIDU0OSAxNTEgNTM1VDE3MCA0ODlRMTcwIDQ2NCAxNTQgNDQ3VDEwOSA0MjlaIiBkYXRhLWM9IjMyIi8+PC9nPjwvZz48L2c+PC9nPjwvc3ZnPg==" parent="1" vertex="1">
                    <mxGeometry x="80" y="423.33" width="165" height="36.67" as="geometry"/>
                </mxCell>
                <mxCell id="17" value="" style="shape=image;verticalLabelPosition=bottom;verticalAlign=top;imageAspect=0;aspect=fixed;image=data:image/svg+xml,PHN2ZyB4bWxucz0iaHR0cDovL3d3dy53My5vcmcvMjAwMC9zdmciIHZpZXdCb3g9IjAgLTQ1MDYgMTA0OTMuNCA4NTEyIiByb2xlPSJpbWciIGhlaWdodD0iMTkuMjU4ZXgiIHdpZHRoPSIyMy43NDFleCIgc3R5bGU9InZlcnRpY2FsLWFsaWduOiAtOS4wNjNleDsiPgo8c3R5bGU+CiAgKiB7IGZpbGw6ICNlYWIzMDg7IH0KICBAbWVkaWEgKHByZWZlcnMtY29sb3Itc2NoZW1lOiBkYXJrKSB7CiAgICAqIHsgZmlsbDogI2VhYjMwODsgfQogIH0KPC9zdHlsZT48ZyB0cmFuc2Zvcm09InNjYWxlKDEsLTEpIiBzdHJva2Utd2lkdGg9IjAiIGZpbGw9ImN1cnJlbnRDb2xvciIgc3Ryb2tlPSJjdXJyZW50Q29sb3IiPjxnIGRhdGEtbW1sLW5vZGU9Im1hdGgiPjxnIGRhdGEtbW1sLW5vZGU9Im10YWJsZSI+PGcgdHJhbnNmb3JtPSJ0cmFuc2xhdGUoMCwyNzQ3KSIgZGF0YS1tbWwtbm9kZT0ibXRyIj48ZyB0cmFuc2Zvcm09InRyYW5zbGF0ZSgxNjcsMCkiIGRhdGEtbW1sLW5vZGU9Im10ZCI+PGcgZGF0YS1tbWwtbm9kZT0ibWkiPjxwYXRoIGQ9Ik00NiA2NzZRNDYgNjc5IDUxIDY4M0g3ODFRNzg2IDY3OSA3ODYgNjc2UTc4NiA2NzQgNjE3IDMyNlQ0NDQgLTI2UTQzOSAtMzMgNDE2IC0zM1QzODggLTI2UTM4NSAtMjIgMjE2IDMyNlQ0NiA2NzZaTTY5NyA1OTZRNjk3IDU5NyA0NDUgNTk3VDE5MyA1OTZRMTk1IDU5MSAzMTkgMzM2VDQ0NSA4MEw2OTcgNTk2WiIgZGF0YS1jPSIyMjA3Ii8+PC9nPjxnIHRyYW5zZm9ybT0idHJhbnNsYXRlKDEwNTUuMiwwKSIgZGF0YS1tbWwtbm9kZT0ibW8iPjxwYXRoIGQ9Ik02MzAgMjlRNjMwIDkgNjA5IDlRNjA0IDkgNTg3IDI1VDQ5MyAxMThMMzg5IDIyMkwyODQgMTE3UTE3OCAxMyAxNzUgMTFRMTcxIDkgMTY4IDlRMTYwIDkgMTU0IDE1VDE0NyAyOVExNDcgMzYgMTYxIDUxVDI1NSAxNDZMMzU5IDI1MEwyNTUgMzU0UTE3NCA0MzUgMTYxIDQ0OVQxNDcgNDcxUTE0NyA0ODAgMTUzIDQ4NVQxNjggNDkwUTE3MyA0OTAgMTc1IDQ4OVExNzggNDg3IDI4NCAzODNMMzg5IDI3OEw0OTMgMzgyUTU3MCA0NTkgNTg3IDQ3NVQ2MDkgNDkxUTYzMCA0OTEgNjMwIDQ3MVE2MzAgNDY0IDYyMCA0NTNUNTIyIDM1NUw0MTggMjUwTDUyMiAxNDVRNjA2IDYxIDYxOCA0OFQ2MzAgMjlaIiBkYXRhLWM9IkQ3Ii8+PC9nPjxnIHRyYW5zZm9ybT0idHJhbnNsYXRlKDIwNTUuNCwwKSIgZGF0YS1tangtdGV4Y2xhc3M9Ik9SRCIgZGF0YS1tbWwtbm9kZT0iVGVYQXRvbSI+PGcgZGF0YS1tbWwtbm9kZT0ibW92ZXIiPjxnIGRhdGEtbWp4LXRleGNsYXNzPSJPUkQiIGRhdGEtbW1sLW5vZGU9IlRlWEF0b20iPjxnIGRhdGEtbW1sLW5vZGU9Im1pIj48cGF0aCBkPSJNNzIwIDUxMFE3MjAgNDc2IDcwNCA0NDhUNjY1IDQwNFQ2MTkgMzc3VDU4MCAzNjJMNTY0IDM1OUw1ODMgMzU2UTYwMiAzNTMgNjMyIDM0MlQ2OTAgMzEyUTcxMiAyOTIgNzI1IDI3NlE3NTIgMjM1IDc1MiAxODlWMTgzUTc1MiAxNjAgNzQxIDEyNVE2OTggMTggNTQ3IDJRNTQzIDEgMjg4IDBIMzlWNjJIMTQ3VjYyNEgzOVY2ODZIMjY0SDQwOVE1MDIgNjg2IDU0MiA2ODFUNjI0IDY1NVE3MjAgNjA3IDcyMCA1MTBaTTU2MyA1MTNRNTYzIDU1MyA1NDggNTc4VDUxOCA2MTFUNDg2IDYyMlE0NzkgNjI0IDM4NSA2MjRIMjkzVjM4MkgzNzVRNDU4IDM4MyA0NjcgMzg1UTU2MyA0MDUgNTYzIDUxM1pNNTkwIDE5MlE1OTAgMzA3IDUwNSAzMjlRNTA0IDMzMCA1MDMgMzMwTDM5OCAzMzFIMjkzVjYySDM5MUg0MDBINDQ0UTQ5NiA2MiA1MjggNzVUNTgwIDEzMVE1OTAgMTU1IDU5MCAxOTJaIiBkYXRhLWM9IjFENDAxIi8+PC9nPjwvZz48ZyB0cmFuc2Zvcm09InRyYW5zbGF0ZSg0MDksMjc1KSB0cmFuc2xhdGUoLTI1MCAwKSIgZGF0YS1tbWwtbm9kZT0ibW8iPjxwYXRoIGQ9Ik0zNzcgNjk0UTM3NyA3MDIgMzgyIDcwOFQzOTcgNzE0UTQwNCA3MTQgNDA5IDcwOVE0MTQgNzA1IDQxOSA2OTBRNDI5IDY1MyA0NjAgNjMzUTQ3MSA2MjYgNDcxIDYxNVE0NzEgNjA2IDQ2OCA2MDNUNDU0IDU5NFE0MTEgNTcyIDM3OSA1MzFRMzc3IDUyOSAzNzQgNTI1VDM2OSA1MTlUMzY0IDUxN1QzNTcgNTE2UTM1MCA1MTYgMzQ0IDUyMVQzMzcgNTM2UTMzNyA1NTUgMzg0IDU5NUgyMTNMNDIgNTk2UTI5IDYwNSAyOSA2MTVRMjkgNjIyIDQyIDYzNUg0MDFRMzc3IDY3MyAzNzcgNjk0WiIgZGF0YS1jPSIyMEQ3Ii8+PC9nPjwvZz48L2c+PGcgdHJhbnNmb3JtPSJ0cmFuc2xhdGUoMzA5NS43LDApIiBkYXRhLW1tbC1ub2RlPSJtbyI+PHBhdGggZD0iTTg0IDIzN1Q4NCAyNTBUOTggMjcwSDY3OVE2OTQgMjYyIDY5NCAyNTBUNjc5IDIzMEg5OFE4NCAyMzcgODQgMjUwWiIgZGF0YS1jPSIyMjEyIi8+PC9nPjxnIHRyYW5zZm9ybT0idHJhbnNsYXRlKDM4NzMuNywwKSIgZGF0YS1tbWwtbm9kZT0ibXN0eWxlIj48ZyBkYXRhLW1tbC1ub2RlPSJtc3BhY2UiLz48L2c+PGcgdHJhbnNmb3JtPSJ0cmFuc2xhdGUoNDI2Mi45LDApIiBkYXRhLW1tbC1ub2RlPSJtZnJhYyI+PGcgdHJhbnNmb3JtPSJ0cmFuc2xhdGUoMjIwLDY3NikiIGRhdGEtbW1sLW5vZGU9Im1uIj48cGF0aCBkPSJNMjEzIDU3OEwyMDAgNTczUTE4NiA1NjggMTYwIDU2M1QxMDIgNTU2SDgzVjYwMkgxMDJRMTQ5IDYwNCAxODkgNjE3VDI0NSA2NDFUMjczIDY2M1EyNzUgNjY2IDI4NSA2NjZRMjk0IDY2NiAzMDIgNjYwVjM2MUwzMDMgNjFRMzEwIDU0IDMxNSA1MlQzMzkgNDhUNDAxIDQ2SDQyN1YwSDQxNlEzOTUgMyAyNTcgM1ExMjEgMyAxMDAgMEg4OFY0NkgxMTRRMTM2IDQ2IDE1MiA0NlQxNzcgNDdUMTkzIDUwVDIwMSA1MlQyMDcgNTdUMjEzIDYxVjU3OFoiIGRhdGEtYz0iMzEiLz48L2c+PGcgdHJhbnNmb3JtPSJ0cmFuc2xhdGUoMjUzLjUsLTY4NikiIGRhdGEtbW1sLW5vZGU9Im1pIj48cGF0aCBkPSJNMzQgMTU5UTM0IDI2OCAxMjAgMzU1VDMwNiA0NDJRMzYyIDQ0MiAzOTQgNDE4VDQyNyAzNTVRNDI3IDMyNiA0MDggMzA2VDM2MCAyODVRMzQxIDI4NSAzMzAgMjk1VDMxOSAzMjVUMzMwIDM1OVQzNTIgMzgwVDM2NiAzODZIMzY3UTM2NyAzODggMzYxIDM5MlQzNDAgNDAwVDMwNiA0MDRRMjc2IDQwNCAyNDkgMzkwUTIyOCAzODEgMjA2IDM1OVExNjIgMzE1IDE0MiAyMzVUMTIxIDExOVExMjEgNzMgMTQ3IDUwUTE2OSAyNiAyMDUgMjZIMjA5UTMyMSAyNiAzOTQgMTExUTQwMyAxMjEgNDA2IDEyMVE0MTAgMTIxIDQxOSAxMTJUNDI5IDk4VDQyMCA4M1QzOTEgNTVUMzQ2IDI1VDI4MiAwVDIwMiAtMTFRMTI3IC0xMSA4MSAzN1QzNCAxNTlaIiBkYXRhLWM9IjFENDUwIi8+PC9nPjxyZWN0IHk9IjIyMCIgeD0iMTIwIiBoZWlnaHQ9IjYwIiB3aWR0aD0iNzAwIi8+PC9nPjxnIHRyYW5zZm9ybT0idHJhbnNsYXRlKDUyMDIuOSwwKSIgZGF0YS1tbWwtbm9kZT0ibXN0eWxlIj48ZyBkYXRhLW1tbC1ub2RlPSJtc3BhY2UiLz48L2c+PGcgdHJhbnNmb3JtPSJ0cmFuc2xhdGUoNTM2OS45LDApIiBkYXRhLW1tbC1ub2RlPSJtZnJhYyI+PGcgdHJhbnNmb3JtPSJ0cmFuc2xhdGUoMjIwLDY3NikiIGRhdGEtbW1sLW5vZGU9Im1yb3ciPjxnIGRhdGEtbW1sLW5vZGU9Im1pIj48cGF0aCBkPSJNMjAyIDUwOFExNzkgNTA4IDE2OSA1MjBUMTU4IDU0N1ExNTggNTU3IDE2NCA1NzdUMTg1IDYyNFQyMzAgNjc1VDMwMSA3MTBMMzMzIDcxNUgzNDVRMzc4IDcxNSAzODQgNzE0UTQ0NyA3MDMgNDg5IDY2MVQ1NDkgNTY4VDU2NiA0NTdRNTY2IDM2MiA1MTkgMjQwVDQwMiA1M1EzMjEgLTIyIDIyMyAtMjJRMTIzIC0yMiA3MyA1NlE0MiAxMDIgNDIgMTQ4VjE1OVE0MiAyNzYgMTI5IDM3MFQzMjIgNDY1UTM4MyA0NjUgNDE0IDQzNFQ0NTUgMzY3TDQ1OCAzNzhRNDc4IDQ2MSA0NzggNTE1UTQ3OCA2MDMgNDM3IDYzOVQzNDQgNjc2UTI2NiA2NzYgMjIzIDYxMlEyNjQgNjA2IDI2NCA1NzJRMjY0IDU0NyAyNDYgNTI4VDIwMiA1MDhaTTQzMCAzMDZRNDMwIDM3MiA0MDEgNDAwVDMzMyA0MjhRMjcwIDQyOCAyMjIgMzgyUTE5NyAzNTQgMTgzIDMyM1QxNTAgMjIxUTEzMiAxNDkgMTMyIDExNlExMzIgMjEgMjMyIDIxUTI0NCAyMSAyNTAgMjJRMzI3IDM1IDM3NCAxMTJRMzg5IDEzNyA0MDkgMTk2VDQzMCAzMDZaIiBkYXRhLWM9IjFENzE1Ii8+PC9nPjxnIHRyYW5zZm9ybT0idHJhbnNsYXRlKDU2NiwwKSIgZGF0YS1tangtdGV4Y2xhc3M9Ik9SRCIgZGF0YS1tbWwtbm9kZT0iVGVYQXRvbSI+PGcgZGF0YS1tbWwtbm9kZT0ibW92ZXIiPjxnIGRhdGEtbWp4LXRleGNsYXNzPSJPUkQiIGRhdGEtbW1sLW5vZGU9IlRlWEF0b20iPjxnIGRhdGEtbW1sLW5vZGU9Im1pIj48cGF0aCBkPSJNNzIzIDI4NlE3MjEgMjg0IDcwMCAxNDVUNjc3IDNWMEgzOVY2MkgxNDdWNjE4SDM5VjY4MEg2NjBWNjc2UTY2MiA2NzAgNjc1IDU1MlQ2OTEgNDI4VjQyNEg2MjlWNDI4UTYyOSA0MjkgNjI3IDQ0OFQ2MTggNDk0VDYwMSA1NDFRNTc0IDU5MyA1MjcgNjA1VDM4MiA2MThIMzc0SDMwNFYzODRIMzM2UTMzOCAzODQgMzQ3IDM4NFQzNjEgMzg0VDM3NiAzODZUMzkyIDM5MFQ0MDcgMzk3VDQyMSA0MDdUNDMyIDQyM1E0NDIgNDQ0IDQ0MyA0ODJWNTAxSDUwNVYyMDVINDQzVjIyNFE0NDIgMjU4IDQzNSAyNzhUNDExIDMwN1QzODAgMzE4VDMzNiAzMjJIMzA0VjYySDM3NUgzOTRRNDI5IDYyIDQ0OSA2MlQ0OTcgNjZUNTQxIDc2VDU3NyA5NVQ2MDkgMTI2VDYzMiAxNzBUNjUxIDIzMlE2NjEgMjg3IDY2MSAyODlINzIzVjI4NloiIGRhdGEtYz0iMUQ0MDQiLz48L2c+PC9nPjxnIHRyYW5zZm9ybT0idHJhbnNsYXRlKDM3OCwyNjkpIHRyYW5zbGF0ZSgtMjUwIDApIiBkYXRhLW1tbC1ub2RlPSJtbyI+PHBhdGggZD0iTTM3NyA2OTRRMzc3IDcwMiAzODIgNzA4VDM5NyA3MTRRNDA0IDcxNCA0MDkgNzA5UTQxNCA3MDUgNDE5IDY5MFE0MjkgNjUzIDQ2MCA2MzNRNDcxIDYyNiA0NzEgNjE1UTQ3MSA2MDYgNDY4IDYwM1Q0NTQgNTk0UTQxMSA1NzIgMzc5IDUzMVEzNzcgNTI5IDM3NCA1MjVUMzY5IDUxOVQzNjQgNTE3VDM1NyA1MTZRMzUwIDUxNiAzNDQgNTIxVDMzNyA1MzZRMzM3IDU1NSAzODQgNTk1SDIxM0w0MiA1OTZRMjkgNjA1IDI5IDYxNVEyOSA2MjIgNDIgNjM1SDQwMVEzNzcgNjczIDM3NyA2OTRaIiBkYXRhLWM9IjIwRDciLz48L2c+PC9nPjwvZz48L2c+PGcgdHJhbnNmb3JtPSJ0cmFuc2xhdGUoNDE3LjUsLTY4NikiIGRhdGEtbW1sLW5vZGU9Im1yb3ciPjxnIGRhdGEtbW1sLW5vZGU9Im1pIj48cGF0aCBkPSJNMjAyIDUwOFExNzkgNTA4IDE2OSA1MjBUMTU4IDU0N1ExNTggNTU3IDE2NCA1NzdUMTg1IDYyNFQyMzAgNjc1VDMwMSA3MTBMMzMzIDcxNUgzNDVRMzc4IDcxNSAzODQgNzE0UTQ0NyA3MDMgNDg5IDY2MVQ1NDkgNTY4VDU2NiA0NTdRNTY2IDM2MiA1MTkgMjQwVDQwMiA1M1EzMjEgLTIyIDIyMyAtMjJRMTIzIC0yMiA3MyA1NlE0MiAxMDIgNDIgMTQ4VjE1OVE0MiAyNzYgMTI5IDM3MFQzMjIgNDY1UTM4MyA0NjUgNDE0IDQzNFQ0NTUgMzY3TDQ1OCAzNzhRNDc4IDQ2MSA0NzggNTE1UTQ3OCA2MDMgNDM3IDYzOVQzNDQgNjc2UTI2NiA2NzYgMjIzIDYxMlEyNjQgNjA2IDI2NCA1NzJRMjY0IDU0NyAyNDYgNTI4VDIwMiA1MDhaTTQzMCAzMDZRNDMwIDM3MiA0MDEgNDAwVDMzMyA0MjhRMjcwIDQyOCAyMjIgMzgyUTE5NyAzNTQgMTgzIDMyM1QxNTAgMjIxUTEzMiAxNDkgMTMyIDExNlExMzIgMjEgMjMyIDIxUTI0NCAyMSAyNTAgMjJRMzI3IDM1IDM3NCAxMTJRMzg5IDEzNyA0MDkgMTk2VDQzMCAzMDZaIiBkYXRhLWM9IjFENzE1Ii8+PC9nPjxnIHRyYW5zZm9ybT0idHJhbnNsYXRlKDU2NiwwKSIgZGF0YS1tbWwtbm9kZT0ibWkiPjxwYXRoIGQ9Ik0yNiAzODVRMTkgMzkyIDE5IDM5NVExOSAzOTkgMjIgNDExVDI3IDQyNVEyOSA0MzAgMzYgNDMwVDg3IDQzMUgxNDBMMTU5IDUxMVExNjIgNTIyIDE2NiA1NDBUMTczIDU2NlQxNzkgNTg2VDE4NyA2MDNUMTk3IDYxNVQyMTEgNjI0VDIyOSA2MjZRMjQ3IDYyNSAyNTQgNjE1VDI2MSA1OTZRMjYxIDU4OSAyNTIgNTQ5VDIzMiA0NzBMMjIyIDQzM1EyMjIgNDMxIDI3MiA0MzFIMzIzUTMzMCA0MjQgMzMwIDQyMFEzMzAgMzk4IDMxNyAzODVIMjEwTDE3NCAyNDBRMTM1IDgwIDEzNSA2OFExMzUgMjYgMTYyIDI2UTE5NyAyNiAyMzAgNjBUMjgzIDE0NFEyODUgMTUwIDI4OCAxNTFUMzAzIDE1M0gzMDdRMzIyIDE1MyAzMjIgMTQ1UTMyMiAxNDIgMzE5IDEzM1EzMTQgMTE3IDMwMSA5NVQyNjcgNDhUMjE2IDZUMTU1IC0xMVExMjUgLTExIDk4IDRUNTkgNTZRNTcgNjQgNTcgODNWMTAxTDkyIDI0MVExMjcgMzgyIDEyOCAzODNRMTI4IDM4NSA3NyAzODVIMjZaIiBkYXRhLWM9IjFENDYxIi8+PC9nPjwvZz48cmVjdCB5PSIyMjAiIHg9IjEyMCIgaGVpZ2h0PSI2MCIgd2lkdGg9IjE1MjIiLz48L2c+PC9nPjxnIHRyYW5zZm9ybT0idHJhbnNsYXRlKDcyOTguOSwwKSIgZGF0YS1tbWwtbm9kZT0ibXRkIj48ZyBkYXRhLW1tbC1ub2RlPSJtaSIvPjxnIHRyYW5zZm9ybT0idHJhbnNsYXRlKDI3Ny44LDApIiBkYXRhLW1tbC1ub2RlPSJtbyI+PHBhdGggZD0iTTU2IDM0N1E1NiAzNjAgNzAgMzY3SDcwN1E3MjIgMzU5IDcyMiAzNDdRNzIyIDMzNiA3MDggMzI4TDM5MCAzMjdINzJRNTYgMzMyIDU2IDM0N1pNNTYgMTUzUTU2IDE2OCA3MiAxNzNINzA4UTcyMiAxNjMgNzIyIDE1M1E3MjIgMTQwIDcwNyAxMzNINzBRNTYgMTQwIDU2IDE1M1oiIGRhdGEtYz0iM0QiLz48L2c+PGcgdHJhbnNmb3JtPSJ0cmFuc2xhdGUoMTMzMy42LDApIiBkYXRhLW1tbC1ub2RlPSJtZnJhYyI+PGcgdHJhbnNmb3JtPSJ0cmFuc2xhdGUoMjIwLDY3NikiIGRhdGEtbW1sLW5vZGU9Im1yb3ciPjxnIGRhdGEtbW1sLW5vZGU9Im1uIj48cGF0aCBkPSJNNDYyIDBRNDQ0IDMgMzMzIDNRMjE3IDMgMTk5IDBIMTkwVjQ2SDIyMVEyNDEgNDYgMjQ4IDQ2VDI2NSA0OFQyNzkgNTNUMjg2IDYxUTI4NyA2MyAyODcgMTE1VjE2NUgyOFYyMTFMMTc5IDQ0MlEzMzIgNjc0IDMzNCA2NzVRMzM2IDY3NyAzNTUgNjc3SDM3M0wzNzkgNjcxVjIxMUg0NzFWMTY1SDM3OVYxMTRRMzc5IDczIDM3OSA2NlQzODUgNTRRMzkzIDQ3IDQ0MiA0Nkg0NzFWMEg0NjJaTTI5MyAyMTFWNTQ1TDc0IDIxMkwxODMgMjExSDI5M1oiIGRhdGEtYz0iMzQiLz48L2c+PGcgdHJhbnNmb3JtPSJ0cmFuc2xhdGUoNTAwLDApIiBkYXRhLW1tbC1ub2RlPSJtaSI+PHBhdGggZD0iTTEzMiAtMTFROTggLTExIDk4IDIyVjMzTDExMSA2MVExODYgMjE5IDIyMCAzMzRMMjI4IDM1OEgxOTZRMTU4IDM1OCAxNDIgMzU1VDEwMyAzMzZROTIgMzI5IDgxIDMxOFQ2MiAyOTdUNTMgMjg1UTUxIDI4NCAzOCAyODRRMTkgMjg0IDE5IDI5NFExOSAzMDAgMzggMzI5VDkzIDM5MVQxNjQgNDI5UTE3MSA0MzEgMzg5IDQzMVE1NDkgNDMxIDU1MyA0MzBRNTczIDQyMyA1NzMgNDAyUTU3MyAzNzEgNTQxIDM2MFE1MzUgMzU4IDQ3MiAzNThINDA4TDQwNSAzNDFRMzkzIDI2OSAzOTMgMjIyUTM5MyAxNzAgNDAyIDEyOVQ0MjEgNjVUNDMxIDM3UTQzMSAyMCA0MTcgNVQzODEgLTEwUTM3MCAtMTAgMzYzIC03VDM0NyAxN1QzMzEgNzdRMzMwIDg2IDMzMCAxMjFRMzMwIDE3MCAzMzkgMjI2VDM1NyAzMThUMzY3IDM1OEgyNjlMMjY4IDM1NFEyNjggMzUxIDI0OSAyNzVUMjA2IDExNFQxNzUgMTdRMTY0IC0xMSAxMzIgLTExWiIgZGF0YS1jPSIxRDcwQiIvPjwvZz48L2c+PGcgdHJhbnNmb3JtPSJ0cmFuc2xhdGUoNTM4LjUsLTY4NikiIGRhdGEtbW1sLW5vZGU9Im1pIj48cGF0aCBkPSJNMzQgMTU5UTM0IDI2OCAxMjAgMzU1VDMwNiA0NDJRMzYyIDQ0MiAzOTQgNDE4VDQyNyAzNTVRNDI3IDMyNiA0MDggMzA2VDM2MCAyODVRMzQxIDI4NSAzMzAgMjk1VDMxOSAzMjVUMzMwIDM1OVQzNTIgMzgwVDM2NiAzODZIMzY3UTM2NyAzODggMzYxIDM5MlQzNDAgNDAwVDMwNiA0MDRRMjc2IDQwNCAyNDkgMzkwUTIyOCAzODEgMjA2IDM1OVExNjIgMzE1IDE0MiAyMzVUMTIxIDExOVExMjEgNzMgMTQ3IDUwUTE2OSAyNiAyMDUgMjZIMjA5UTMyMSAyNiAzOTQgMTExUTQwMyAxMjEgNDA2IDEyMVE0MTAgMTIxIDQxOSAxMTJUNDI5IDk4VDQyMCA4M1QzOTEgNTVUMzQ2IDI1VDI4MiAwVDIwMiAtMTFRMTI3IC0xMSA4MSAzN1QzNCAxNTlaIiBkYXRhLWM9IjFENDUwIi8+PC9nPjxyZWN0IHk9IjIyMCIgeD0iMTIwIiBoZWlnaHQ9IjYwIiB3aWR0aD0iMTI3MCIvPjwvZz48ZyB0cmFuc2Zvcm09InRyYW5zbGF0ZSgyODQzLjYsMCkiIGRhdGEtbWp4LXRleGNsYXNzPSJPUkQiIGRhdGEtbW1sLW5vZGU9IlRlWEF0b20iPjxnIGRhdGEtbW1sLW5vZGU9Im1vdmVyIj48ZyBkYXRhLW1qeC10ZXhjbGFzcz0iT1JEIiBkYXRhLW1tbC1ub2RlPSJUZVhBdG9tIj48ZyBkYXRhLW1tbC1ub2RlPSJtaSI+PHBhdGggZD0iTTEwNCA2MTBRMTA0IDY0OSAxMzAgNjcyVDE5MSA2OTVRMjI1IDY5MyAyNDkgNjcwVDI3MyA2MTBRMjczIDU3MiAyNDkgNTQ5VDE4OSA1MjVRMTUyIDUyNSAxMjggNTQ4VDEwNCA2MTBaTTc4IDQ0MkwxNzMgNDQ2TDI2OCA0NTBIMjc0VjE5NlEyNzQgLTUgMjc0IC0zN1QyNjkgLTgzUTI1NiAtMTMyIDIwMSAtMTY2VDcxIC0yMDBRMTAgLTIwMCAtMzAgLTE3M1QtNzEgLTEwMlEtNzEgLTcwIC01MSAtNTFULTEgLTMxUTI3IC0zMSA0OCAtNDlUNjkgLTEwMFE2OSAtMTIxIDUzIC0xNDdINTZRNjYgLTE0OSA3NyAtMTQ5SDgwUTkwIC0xNDkgMTAwIC0xNDZUMTI3IC0xMjVUMTQ5IC03M1ExNTEgLTU1IDE1MSAxNDlWMzYyUTE1MCAzNjQgMTQ4IDM2NlQxNDUgMzcwVDE0MiAzNzNUMTM4IDM3NVQxMzMgMzc3VDEyNCAzNzhUMTEzIDM3OVQ5NyAzODBINzVWNDQySDc4WiIgZGF0YS1jPSIxRDQyMyIvPjwvZz48L2c+PGcgdHJhbnNmb3JtPSJ0cmFuc2xhdGUoMTc1LjUsMjg0KSB0cmFuc2xhdGUoLTI1MCAwKSIgZGF0YS1tbWwtbm9kZT0ibW8iPjxwYXRoIGQ9Ik0zNzcgNjk0UTM3NyA3MDIgMzgyIDcwOFQzOTcgNzE0UTQwNCA3MTQgNDA5IDcwOVE0MTQgNzA1IDQxOSA2OTBRNDI5IDY1MyA0NjAgNjMzUTQ3MSA2MjYgNDcxIDYxNVE0NzEgNjA2IDQ2OCA2MDNUNDU0IDU5NFE0MTEgNTcyIDM3OSA1MzFRMzc3IDUyOSAzNzQgNTI1VDM2OSA1MTlUMzY0IDUxN1QzNTcgNTE2UTM1MCA1MTYgMzQ0IDUyMVQzMzcgNTM2UTMzNyA1NTUgMzg0IDU5NUgyMTNMNDIgNTk2UTI5IDYwNSAyOSA2MTVRMjkgNjIyIDQyIDYzNUg0MDFRMzc3IDY3MyAzNzcgNjk0WiIgZGF0YS1jPSIyMEQ3Ii8+PC9nPjwvZz48L2c+PC9nPjwvZz48ZyB0cmFuc2Zvcm09InRyYW5zbGF0ZSgwLDY1NikiIGRhdGEtbW1sLW5vZGU9Im10ciI+PGcgdHJhbnNmb3JtPSJ0cmFuc2xhdGUoNDk4Ny40LDApIiBkYXRhLW1tbC1ub2RlPSJtdGQiPjxnIGRhdGEtbW1sLW5vZGU9Im1pIj48cGF0aCBkPSJNNDYgNjc2UTQ2IDY3OSA1MSA2ODNINzgxUTc4NiA2NzkgNzg2IDY3NlE3ODYgNjc0IDYxNyAzMjZUNDQ0IC0yNlE0MzkgLTMzIDQxNiAtMzNUMzg4IC0yNlEzODUgLTIyIDIxNiAzMjZUNDYgNjc2Wk02OTcgNTk2UTY5NyA1OTcgNDQ1IDU5N1QxOTMgNTk2UTE5NSA1OTEgMzE5IDMzNlQ0NDUgODBMNjk3IDU5NloiIGRhdGEtYz0iMjIwNyIvPjwvZz48ZyB0cmFuc2Zvcm09InRyYW5zbGF0ZSgxMDU1LjIsMCkiIGRhdGEtbW1sLW5vZGU9Im1vIj48cGF0aCBkPSJNNzggMjUwUTc4IDI3NCA5NSAyOTJUMTM4IDMxMFExNjIgMzEwIDE4MCAyOTRUMTk5IDI1MVExOTkgMjI2IDE4MiAyMDhUMTM5IDE5MFQ5NiAyMDdUNzggMjUwWiIgZGF0YS1jPSIyMkM1Ii8+PC9nPjxnIHRyYW5zZm9ybT0idHJhbnNsYXRlKDE1NTUuNCwwKSIgZGF0YS1tangtdGV4Y2xhc3M9Ik9SRCIgZGF0YS1tbWwtbm9kZT0iVGVYQXRvbSI+PGcgZGF0YS1tbWwtbm9kZT0ibW92ZXIiPjxnIGRhdGEtbWp4LXRleGNsYXNzPSJPUkQiIGRhdGEtbW1sLW5vZGU9IlRlWEF0b20iPjxnIGRhdGEtbW1sLW5vZGU9Im1pIj48cGF0aCBkPSJNNzIzIDI4NlE3MjEgMjg0IDcwMCAxNDVUNjc3IDNWMEgzOVY2MkgxNDdWNjE4SDM5VjY4MEg2NjBWNjc2UTY2MiA2NzAgNjc1IDU1MlQ2OTEgNDI4VjQyNEg2MjlWNDI4UTYyOSA0MjkgNjI3IDQ0OFQ2MTggNDk0VDYwMSA1NDFRNTc0IDU5MyA1MjcgNjA1VDM4MiA2MThIMzc0SDMwNFYzODRIMzM2UTMzOCAzODQgMzQ3IDM4NFQzNjEgMzg0VDM3NiAzODZUMzkyIDM5MFQ0MDcgMzk3VDQyMSA0MDdUNDMyIDQyM1E0NDIgNDQ0IDQ0MyA0ODJWNTAxSDUwNVYyMDVINDQzVjIyNFE0NDIgMjU4IDQzNSAyNzhUNDExIDMwN1QzODAgMzE4VDMzNiAzMjJIMzA0VjYySDM3NUgzOTRRNDI5IDYyIDQ0OSA2MlQ0OTcgNjZUNTQxIDc2VDU3NyA5NVQ2MDkgMTI2VDYzMiAxNzBUNjUxIDIzMlE2NjEgMjg3IDY2MSAyODlINzIzVjI4NloiIGRhdGEtYz0iMUQ0MDQiLz48L2c+PC9nPjxnIHRyYW5zZm9ybT0idHJhbnNsYXRlKDM3OCwyNjkpIHRyYW5zbGF0ZSgtMjUwIDApIiBkYXRhLW1tbC1ub2RlPSJtbyI+PHBhdGggZD0iTTM3NyA2OTRRMzc3IDcwMiAzODIgNzA4VDM5NyA3MTRRNDA0IDcxNCA0MDkgNzA5UTQxNCA3MDUgNDE5IDY5MFE0MjkgNjUzIDQ2MCA2MzNRNDcxIDYyNiA0NzEgNjE1UTQ3MSA2MDYgNDY4IDYwM1Q0NTQgNTk0UTQxMSA1NzIgMzc5IDUzMVEzNzcgNTI5IDM3NCA1MjVUMzY5IDUxOVQzNjQgNTE3VDM1NyA1MTZRMzUwIDUxNiAzNDQgNTIxVDMzNyA1MzZRMzM3IDU1NSAzODQgNTk1SDIxM0w0MiA1OTZRMjkgNjA1IDI5IDYxNVEyOSA2MjIgNDIgNjM1SDQwMVEzNzcgNjczIDM3NyA2OTRaIiBkYXRhLWM9IjIwRDciLz48L2c+PC9nPjwvZz48L2c+PGcgdHJhbnNmb3JtPSJ0cmFuc2xhdGUoNzI5OC45LDApIiBkYXRhLW1tbC1ub2RlPSJtdGQiPjxnIGRhdGEtbW1sLW5vZGU9Im1pIi8+PGcgdHJhbnNmb3JtPSJ0cmFuc2xhdGUoMjc3LjgsMCkiIGRhdGEtbW1sLW5vZGU9Im1vIj48cGF0aCBkPSJNNTYgMzQ3UTU2IDM2MCA3MCAzNjdINzA3UTcyMiAzNTkgNzIyIDM0N1E3MjIgMzM2IDcwOCAzMjhMMzkwIDMyN0g3MlE1NiAzMzIgNTYgMzQ3Wk01NiAxNTNRNTYgMTY4IDcyIDE3M0g3MDhRNzIyIDE2MyA3MjIgMTUzUTcyMiAxNDAgNzA3IDEzM0g3MFE1NiAxNDAgNTYgMTUzWiIgZGF0YS1jPSIzRCIvPjwvZz48ZyB0cmFuc2Zvcm09InRyYW5zbGF0ZSgxMzMzLjYsMCkiIGRhdGEtbW1sLW5vZGU9Im1uIj48cGF0aCBkPSJNNDYyIDBRNDQ0IDMgMzMzIDNRMjE3IDMgMTk5IDBIMTkwVjQ2SDIyMVEyNDEgNDYgMjQ4IDQ2VDI2NSA0OFQyNzkgNTNUMjg2IDYxUTI4NyA2MyAyODcgMTE1VjE2NUgyOFYyMTFMMTc5IDQ0MlEzMzIgNjc0IDMzNCA2NzVRMzM2IDY3NyAzNTUgNjc3SDM3M0wzNzkgNjcxVjIxMUg0NzFWMTY1SDM3OVYxMTRRMzc5IDczIDM3OSA2NlQzODUgNTRRMzkzIDQ3IDQ0MiA0Nkg0NzFWMEg0NjJaTTI5MyAyMTFWNTQ1TDc0IDIxMkwxODMgMjExSDI5M1oiIGRhdGEtYz0iMzQiLz48L2c+PGcgdHJhbnNmb3JtPSJ0cmFuc2xhdGUoMTgzMy42LDApIiBkYXRhLW1tbC1ub2RlPSJtaSI+PHBhdGggZD0iTTEzMiAtMTFROTggLTExIDk4IDIyVjMzTDExMSA2MVExODYgMjE5IDIyMCAzMzRMMjI4IDM1OEgxOTZRMTU4IDM1OCAxNDIgMzU1VDEwMyAzMzZROTIgMzI5IDgxIDMxOFQ2MiAyOTdUNTMgMjg1UTUxIDI4NCAzOCAyODRRMTkgMjg0IDE5IDI5NFExOSAzMDAgMzggMzI5VDkzIDM5MVQxNjQgNDI5UTE3MSA0MzEgMzg5IDQzMVE1NDkgNDMxIDU1MyA0MzBRNTczIDQyMyA1NzMgNDAyUTU3MyAzNzEgNTQxIDM2MFE1MzUgMzU4IDQ3MiAzNThINDA4TDQwNSAzNDFRMzkzIDI2OSAzOTMgMjIyUTM5MyAxNzAgNDAyIDEyOVQ0MjEgNjVUNDMxIDM3UTQzMSAyMCA0MTcgNVQzODEgLTEwUTM3MCAtMTAgMzYzIC03VDM0NyAxN1QzMzEgNzdRMzMwIDg2IDMzMCAxMjFRMzMwIDE3MCAzMzkgMjI2VDM1NyAzMThUMzY3IDM1OEgyNjlMMjY4IDM1NFEyNjggMzUxIDI0OSAyNzVUMjA2IDExNFQxNzUgMTdRMTY0IC0xMSAxMzIgLTExWiIgZGF0YS1jPSIxRDcwQiIvPjwvZz48ZyB0cmFuc2Zvcm09InRyYW5zbGF0ZSgyNDAzLjYsMCkiIGRhdGEtbW1sLW5vZGU9Im1pIj48cGF0aCBkPSJNNTggLTIxNlEyNSAtMjE2IDIzIC0xODZRMjMgLTE3NiA3MyAyNlQxMjcgMjM0UTE0MyAyODkgMTgyIDM0MVEyNTIgNDI3IDM0MSA0NDFRMzQzIDQ0MSAzNDkgNDQxVDM1OSA0NDJRNDMyIDQ0MiA0NzEgMzk0VDUxMCAyNzZRNTEwIDIxOSA0ODYgMTY1VDQyNSA3NFQzNDUgMTNUMjY2IC0xMEgyNTVIMjQ4UTE5NyAtMTAgMTY1IDM1TDE2MCA0MUwxMzMgLTcxUTEwOCAtMTY4IDEwNCAtMTgxVDkyIC0yMDJRNzYgLTIxNiA1OCAtMjE2Wk00MjQgMzIyUTQyNCAzNTkgNDA3IDM4MlQzNTcgNDA1UTMyMiA0MDUgMjg3IDM3NlQyMzEgMzAwUTIxNyAyNjkgMTkzIDE3MEwxNzYgMTAyUTE5MyAyNiAyNjAgMjZRMjk4IDI2IDMzNCA2MlEzNjcgOTIgMzg5IDE1OFQ0MTggMjY2VDQyNCAzMjJaIiBkYXRhLWM9IjFENzBDIi8+PC9nPjwvZz48L2c+PGcgdHJhbnNmb3JtPSJ0cmFuc2xhdGUoMCwtMTY1OSkiIGRhdGEtbW1sLW5vZGU9Im10ciI+PGcgZGF0YS1tbWwtbm9kZT0ibXRkIj48ZyBkYXRhLW1tbC1ub2RlPSJtaSI+PHBhdGggZD0iTTQ2IDY3NlE0NiA2NzkgNTEgNjgzSDc4MVE3ODYgNjc5IDc4NiA2NzZRNzg2IDY3NCA2MTcgMzI2VDQ0NCAtMjZRNDM5IC0zMyA0MTYgLTMzVDM4OCAtMjZRMzg1IC0yMiAyMTYgMzI2VDQ2IDY3NlpNNjk3IDU5NlE2OTcgNTk3IDQ0NSA1OTdUMTkzIDU5NlExOTUgNTkxIDMxOSAzMzZUNDQ1IDgwTDY5NyA1OTZaIiBkYXRhLWM9IjIyMDciLz48L2c+PGcgdHJhbnNmb3JtPSJ0cmFuc2xhdGUoMTA1NS4yLDApIiBkYXRhLW1tbC1ub2RlPSJtbyI+PHBhdGggZD0iTTYzMCAyOVE2MzAgOSA2MDkgOVE2MDQgOSA1ODcgMjVUNDkzIDExOEwzODkgMjIyTDI4NCAxMTdRMTc4IDEzIDE3NSAxMVExNzEgOSAxNjggOVExNjAgOSAxNTQgMTVUMTQ3IDI5UTE0NyAzNiAxNjEgNTFUMjU1IDE0NkwzNTkgMjUwTDI1NSAzNTRRMTc0IDQzNSAxNjEgNDQ5VDE0NyA0NzFRMTQ3IDQ4MCAxNTMgNDg1VDE2OCA0OTBRMTczIDQ5MCAxNzUgNDg5UTE3OCA0ODcgMjg0IDM4M0wzODkgMjc4TDQ5MyAzODJRNTcwIDQ1OSA1ODcgNDc1VDYwOSA0OTFRNjMwIDQ5MSA2MzAgNDcxUTYzMCA0NjQgNjIwIDQ1M1Q1MjIgMzU1TDQxOCAyNTBMNTIyIDE0NVE2MDYgNjEgNjE4IDQ4VDYzMCAyOVoiIGRhdGEtYz0iRDciLz48L2c+PGcgdHJhbnNmb3JtPSJ0cmFuc2xhdGUoMjA1NS40LDApIiBkYXRhLW1qeC10ZXhjbGFzcz0iT1JEIiBkYXRhLW1tbC1ub2RlPSJUZVhBdG9tIj48ZyBkYXRhLW1tbC1ub2RlPSJtb3ZlciI+PGcgZGF0YS1tangtdGV4Y2xhc3M9Ik9SRCIgZGF0YS1tbWwtbm9kZT0iVGVYQXRvbSI+PGcgZGF0YS1tbWwtbm9kZT0ibWkiPjxwYXRoIGQ9Ik03MjMgMjg2UTcyMSAyODQgNzAwIDE0NVQ2NzcgM1YwSDM5VjYySDE0N1Y2MThIMzlWNjgwSDY2MFY2NzZRNjYyIDY3MCA2NzUgNTUyVDY5MSA0MjhWNDI0SDYyOVY0MjhRNjI5IDQyOSA2MjcgNDQ4VDYxOCA0OTRUNjAxIDU0MVE1NzQgNTkzIDUyNyA2MDVUMzgyIDYxOEgzNzRIMzA0VjM4NEgzMzZRMzM4IDM4NCAzNDcgMzg0VDM2MSAzODRUMzc2IDM4NlQzOTIgMzkwVDQwNyAzOTdUNDIxIDQwN1Q0MzIgNDIzUTQ0MiA0NDQgNDQzIDQ4MlY1MDFINTA1VjIwNUg0NDNWMjI0UTQ0MiAyNTggNDM1IDI3OFQ0MTEgMzA3VDM4MCAzMThUMzM2IDMyMkgzMDRWNjJIMzc1SDM5NFE0MjkgNjIgNDQ5IDYyVDQ5NyA2NlQ1NDEgNzZUNTc3IDk1VDYwOSAxMjZUNjMyIDE3MFQ2NTEgMjMyUTY2MSAyODcgNjYxIDI4OUg3MjNWMjg2WiIgZGF0YS1jPSIxRDQwNCIvPjwvZz48L2c+PGcgdHJhbnNmb3JtPSJ0cmFuc2xhdGUoMzc4LDI2OSkgdHJhbnNsYXRlKC0yNTAgMCkiIGRhdGEtbW1sLW5vZGU9Im1vIj48cGF0aCBkPSJNMzc3IDY5NFEzNzcgNzAyIDM4MiA3MDhUMzk3IDcxNFE0MDQgNzE0IDQwOSA3MDlRNDE0IDcwNSA0MTkgNjkwUTQyOSA2NTMgNDYwIDYzM1E0NzEgNjI2IDQ3MSA2MTVRNDcxIDYwNiA0NjggNjAzVDQ1NCA1OTRRNDExIDU3MiAzNzkgNTMxUTM3NyA1MjkgMzc0IDUyNVQzNjkgNTE5VDM2NCA1MTdUMzU3IDUxNlEzNTAgNTE2IDM0NCA1MjFUMzM3IDUzNlEzMzcgNTU1IDM4NCA1OTVIMjEzTDQyIDU5NlEyOSA2MDUgMjkgNjE1UTI5IDYyMiA0MiA2MzVINDAxUTM3NyA2NzMgMzc3IDY5NFoiIGRhdGEtYz0iMjBENyIvPjwvZz48L2c+PC9nPjxnIHRyYW5zZm9ybT0idHJhbnNsYXRlKDI4MTEuNCwwKSIgZGF0YS1tbWwtbm9kZT0ibXN0eWxlIj48ZyBkYXRhLW1tbC1ub2RlPSJtc3BhY2UiLz48L2c+PGcgdHJhbnNmb3JtPSJ0cmFuc2xhdGUoMzIwMC43LDApIiBkYXRhLW1tbC1ub2RlPSJtbyI+PHBhdGggZD0iTTU2IDIzN1Q1NiAyNTBUNzAgMjcwSDM2OVY0MjBMMzcwIDU3MFEzODAgNTgzIDM4OSA1ODNRNDAyIDU4MyA0MDkgNTY4VjI3MEg3MDdRNzIyIDI2MiA3MjIgMjUwVDcwNyAyMzBINDA5Vi02OFE0MDEgLTgyIDM5MSAtODJIMzg5SDM4N1EzNzUgLTgyIDM2OSAtNjhWMjMwSDcwUTU2IDIzNyA1NiAyNTBaIiBkYXRhLWM9IjJCIi8+PC9nPjxnIHRyYW5zZm9ybT0idHJhbnNsYXRlKDM5NzguNywwKSIgZGF0YS1tbWwtbm9kZT0ibXN0eWxlIj48ZyBkYXRhLW1tbC1ub2RlPSJtc3BhY2UiLz48L2c+PGcgdHJhbnNmb3JtPSJ0cmFuc2xhdGUoNDM2Ny45LDApIiBkYXRhLW1tbC1ub2RlPSJtZnJhYyI+PGcgdHJhbnNmb3JtPSJ0cmFuc2xhdGUoMjIwLDY3NikiIGRhdGEtbW1sLW5vZGU9Im1uIj48cGF0aCBkPSJNMjEzIDU3OEwyMDAgNTczUTE4NiA1NjggMTYwIDU2M1QxMDIgNTU2SDgzVjYwMkgxMDJRMTQ5IDYwNCAxODkgNjE3VDI0NSA2NDFUMjczIDY2M1EyNzUgNjY2IDI4NSA2NjZRMjk0IDY2NiAzMDIgNjYwVjM2MUwzMDMgNjFRMzEwIDU0IDMxNSA1MlQzMzkgNDhUNDAxIDQ2SDQyN1YwSDQxNlEzOTUgMyAyNTcgM1ExMjEgMyAxMDAgMEg4OFY0NkgxMTRRMTM2IDQ2IDE1MiA0NlQxNzcgNDdUMTkzIDUwVDIwMSA1MlQyMDcgNTdUMjEzIDYxVjU3OFoiIGRhdGEtYz0iMzEiLz48L2c+PGcgdHJhbnNmb3JtPSJ0cmFuc2xhdGUoMjUzLjUsLTY4NikiIGRhdGEtbW1sLW5vZGU9Im1pIj48cGF0aCBkPSJNMzQgMTU5UTM0IDI2OCAxMjAgMzU1VDMwNiA0NDJRMzYyIDQ0MiAzOTQgNDE4VDQyNyAzNTVRNDI3IDMyNiA0MDggMzA2VDM2MCAyODVRMzQxIDI4NSAzMzAgMjk1VDMxOSAzMjVUMzMwIDM1OVQzNTIgMzgwVDM2NiAzODZIMzY3UTM2NyAzODggMzYxIDM5MlQzNDAgNDAwVDMwNiA0MDRRMjc2IDQwNCAyNDkgMzkwUTIyOCAzODEgMjA2IDM1OVExNjIgMzE1IDE0MiAyMzVUMTIxIDExOVExMjEgNzMgMTQ3IDUwUTE2OSAyNiAyMDUgMjZIMjA5UTMyMSAyNiAzOTQgMTExUTQwMyAxMjEgNDA2IDEyMVE0MTAgMTIxIDQxOSAxMTJUNDI5IDk4VDQyMCA4M1QzOTEgNTVUMzQ2IDI1VDI4MiAwVDIwMiAtMTFRMTI3IC0xMSA4MSAzN1QzNCAxNTlaIiBkYXRhLWM9IjFENDUwIi8+PC9nPjxyZWN0IHk9IjIyMCIgeD0iMTIwIiBoZWlnaHQ9IjYwIiB3aWR0aD0iNzAwIi8+PC9nPjxnIHRyYW5zZm9ybT0idHJhbnNsYXRlKDUzMDcuOSwwKSIgZGF0YS1tbWwtbm9kZT0ibXN0eWxlIj48ZyBkYXRhLW1tbC1ub2RlPSJtc3BhY2UiLz48L2c+PGcgdHJhbnNmb3JtPSJ0cmFuc2xhdGUoNTQ3NC45LDApIiBkYXRhLW1tbC1ub2RlPSJtZnJhYyI+PGcgdHJhbnNmb3JtPSJ0cmFuc2xhdGUoMjIwLDY3NikiIGRhdGEtbW1sLW5vZGU9Im1yb3ciPjxnIGRhdGEtbW1sLW5vZGU9Im1pIj48cGF0aCBkPSJNMjAyIDUwOFExNzkgNTA4IDE2OSA1MjBUMTU4IDU0N1ExNTggNTU3IDE2NCA1NzdUMTg1IDYyNFQyMzAgNjc1VDMwMSA3MTBMMzMzIDcxNUgzNDVRMzc4IDcxNSAzODQgNzE0UTQ0NyA3MDMgNDg5IDY2MVQ1NDkgNTY4VDU2NiA0NTdRNTY2IDM2MiA1MTkgMjQwVDQwMiA1M1EzMjEgLTIyIDIyMyAtMjJRMTIzIC0yMiA3MyA1NlE0MiAxMDIgNDIgMTQ4VjE1OVE0MiAyNzYgMTI5IDM3MFQzMjIgNDY1UTM4MyA0NjUgNDE0IDQzNFQ0NTUgMzY3TDQ1OCAzNzhRNDc4IDQ2MSA0NzggNTE1UTQ3OCA2MDMgNDM3IDYzOVQzNDQgNjc2UTI2NiA2NzYgMjIzIDYxMlEyNjQgNjA2IDI2NCA1NzJRMjY0IDU0NyAyNDYgNTI4VDIwMiA1MDhaTTQzMCAzMDZRNDMwIDM3MiA0MDEgNDAwVDMzMyA0MjhRMjcwIDQyOCAyMjIgMzgyUTE5NyAzNTQgMTgzIDMyM1QxNTAgMjIxUTEzMiAxNDkgMTMyIDExNlExMzIgMjEgMjMyIDIxUTI0NCAyMSAyNTAgMjJRMzI3IDM1IDM3NCAxMTJRMzg5IDEzNyA0MDkgMTk2VDQzMCAzMDZaIiBkYXRhLWM9IjFENzE1Ii8+PC9nPjxnIHRyYW5zZm9ybT0idHJhbnNsYXRlKDU2NiwwKSIgZGF0YS1tangtdGV4Y2xhc3M9Ik9SRCIgZGF0YS1tbWwtbm9kZT0iVGVYQXRvbSI+PGcgZGF0YS1tbWwtbm9kZT0ibW92ZXIiPjxnIGRhdGEtbWp4LXRleGNsYXNzPSJPUkQiIGRhdGEtbW1sLW5vZGU9IlRlWEF0b20iPjxnIGRhdGEtbW1sLW5vZGU9Im1pIj48cGF0aCBkPSJNNzIwIDUxMFE3MjAgNDc2IDcwNCA0NDhUNjY1IDQwNFQ2MTkgMzc3VDU4MCAzNjJMNTY0IDM1OUw1ODMgMzU2UTYwMiAzNTMgNjMyIDM0MlQ2OTAgMzEyUTcxMiAyOTIgNzI1IDI3NlE3NTIgMjM1IDc1MiAxODlWMTgzUTc1MiAxNjAgNzQxIDEyNVE2OTggMTggNTQ3IDJRNTQzIDEgMjg4IDBIMzlWNjJIMTQ3VjYyNEgzOVY2ODZIMjY0SDQwOVE1MDIgNjg2IDU0MiA2ODFUNjI0IDY1NVE3MjAgNjA3IDcyMCA1MTBaTTU2MyA1MTNRNTYzIDU1MyA1NDggNTc4VDUxOCA2MTFUNDg2IDYyMlE0NzkgNjI0IDM4NSA2MjRIMjkzVjM4MkgzNzVRNDU4IDM4MyA0NjcgMzg1UTU2MyA0MDUgNTYzIDUxM1pNNTkwIDE5MlE1OTAgMzA3IDUwNSAzMjlRNTA0IDMzMCA1MDMgMzMwTDM5OCAzMzFIMjkzVjYySDM5MUg0MDBINDQ0UTQ5NiA2MiA1MjggNzVUNTgwIDEzMVE1OTAgMTU1IDU5MCAxOTJaIiBkYXRhLWM9IjFENDAxIi8+PC9nPjwvZz48ZyB0cmFuc2Zvcm09InRyYW5zbGF0ZSg0MDksMjc1KSB0cmFuc2xhdGUoLTI1MCAwKSIgZGF0YS1tbWwtbm9kZT0ibW8iPjxwYXRoIGQ9Ik0zNzcgNjk0UTM3NyA3MDIgMzgyIDcwOFQzOTcgNzE0UTQwNCA3MTQgNDA5IDcwOVE0MTQgNzA1IDQxOSA2OTBRNDI5IDY1MyA0NjAgNjMzUTQ3MSA2MjYgNDcxIDYxNVE0NzEgNjA2IDQ2OCA2MDNUNDU0IDU5NFE0MTEgNTcyIDM3OSA1MzFRMzc3IDUyOSAzNzQgNTI1VDM2OSA1MTlUMzY0IDUxN1QzNTcgNTE2UTM1MCA1MTYgMzQ0IDUyMVQzMzcgNTM2UTMzNyA1NTUgMzg0IDU5NUgyMTNMNDIgNTk2UTI5IDYwNSAyOSA2MTVRMjkgNjIyIDQyIDYzNUg0MDFRMzc3IDY3MyAzNzcgNjk0WiIgZGF0YS1jPSIyMEQ3Ii8+PC9nPjwvZz48L2c+PC9nPjxnIHRyYW5zZm9ybT0idHJhbnNsYXRlKDQ0OC41LC02ODYpIiBkYXRhLW1tbC1ub2RlPSJtcm93Ij48ZyBkYXRhLW1tbC1ub2RlPSJtaSI+PHBhdGggZD0iTTIwMiA1MDhRMTc5IDUwOCAxNjkgNTIwVDE1OCA1NDdRMTU4IDU1NyAxNjQgNTc3VDE4NSA2MjRUMjMwIDY3NVQzMDEgNzEwTDMzMyA3MTVIMzQ1UTM3OCA3MTUgMzg0IDcxNFE0NDcgNzAzIDQ4OSA2NjFUNTQ5IDU2OFQ1NjYgNDU3UTU2NiAzNjIgNTE5IDI0MFQ0MDIgNTNRMzIxIC0yMiAyMjMgLTIyUTEyMyAtMjIgNzMgNTZRNDIgMTAyIDQyIDE0OFYxNTlRNDIgMjc2IDEyOSAzNzBUMzIyIDQ2NVEzODMgNDY1IDQxNCA0MzRUNDU1IDM2N0w0NTggMzc4UTQ3OCA0NjEgNDc4IDUxNVE0NzggNjAzIDQzNyA2MzlUMzQ0IDY3NlEyNjYgNjc2IDIyMyA2MTJRMjY0IDYwNiAyNjQgNTcyUTI2NCA1NDcgMjQ2IDUyOFQyMDIgNTA4Wk00MzAgMzA2UTQzMCAzNzIgNDAxIDQwMFQzMzMgNDI4UTI3MCA0MjggMjIyIDM4MlExOTcgMzU0IDE4MyAzMjNUMTUwIDIyMVExMzIgMTQ5IDEzMiAxMTZRMTMyIDIxIDIzMiAyMVEyNDQgMjEgMjUwIDIyUTMyNyAzNSAzNzQgMTEyUTM4OSAxMzcgNDA5IDE5NlQ0MzAgMzA2WiIgZGF0YS1jPSIxRDcxNSIvPjwvZz48ZyB0cmFuc2Zvcm09InRyYW5zbGF0ZSg1NjYsMCkiIGRhdGEtbW1sLW5vZGU9Im1pIj48cGF0aCBkPSJNMjYgMzg1UTE5IDM5MiAxOSAzOTVRMTkgMzk5IDIyIDQxMVQyNyA0MjVRMjkgNDMwIDM2IDQzMFQ4NyA0MzFIMTQwTDE1OSA1MTFRMTYyIDUyMiAxNjYgNTQwVDE3MyA1NjZUMTc5IDU4NlQxODcgNjAzVDE5NyA2MTVUMjExIDYyNFQyMjkgNjI2UTI0NyA2MjUgMjU0IDYxNVQyNjEgNTk2UTI2MSA1ODkgMjUyIDU0OVQyMzIgNDcwTDIyMiA0MzNRMjIyIDQzMSAyNzIgNDMxSDMyM1EzMzAgNDI0IDMzMCA0MjBRMzMwIDM5OCAzMTcgMzg1SDIxMEwxNzQgMjQwUTEzNSA4MCAxMzUgNjhRMTM1IDI2IDE2MiAyNlExOTcgMjYgMjMwIDYwVDI4MyAxNDRRMjg1IDE1MCAyODggMTUxVDMwMyAxNTNIMzA3UTMyMiAxNTMgMzIyIDE0NVEzMjIgMTQyIDMxOSAxMzNRMzE0IDExNyAzMDEgOTVUMjY3IDQ4VDIxNiA2VDE1NSAtMTFRMTI1IC0xMSA5OCA0VDU5IDU2UTU3IDY0IDU3IDgzVjEwMUw5MiAyNDFRMTI3IDM4MiAxMjggMzgzUTEyOCAzODUgNzcgMzg1SDI2WiIgZGF0YS1jPSIxRDQ2MSIvPjwvZz48L2c+PHJlY3QgeT0iMjIwIiB4PSIxMjAiIGhlaWdodD0iNjAiIHdpZHRoPSIxNTg0Ii8+PC9nPjwvZz48ZyB0cmFuc2Zvcm09InRyYW5zbGF0ZSg3Mjk4LjksMCkiIGRhdGEtbW1sLW5vZGU9Im10ZCI+PGcgZGF0YS1tbWwtbm9kZT0ibWkiLz48ZyB0cmFuc2Zvcm09InRyYW5zbGF0ZSgyNzcuOCwwKSIgZGF0YS1tbWwtbm9kZT0ibW8iPjxwYXRoIGQ9Ik01NiAzNDdRNTYgMzYwIDcwIDM2N0g3MDdRNzIyIDM1OSA3MjIgMzQ3UTcyMiAzMzYgNzA4IDMyOEwzOTAgMzI3SDcyUTU2IDMzMiA1NiAzNDdaTTU2IDE1M1E1NiAxNjggNzIgMTczSDcwOFE3MjIgMTYzIDcyMiAxNTNRNzIyIDE0MCA3MDcgMTMzSDcwUTU2IDE0MCA1NiAxNTNaIiBkYXRhLWM9IjNEIi8+PC9nPjxnIHRyYW5zZm9ybT0idHJhbnNsYXRlKDEzMzMuNiwwKSIgZGF0YS1tangtdGV4Y2xhc3M9Ik9SRCIgZGF0YS1tbWwtbm9kZT0iVGVYQXRvbSI+PGcgZGF0YS1tbWwtbm9kZT0ibW92ZXIiPjxnIGRhdGEtbWp4LXRleGNsYXNzPSJPUkQiIGRhdGEtbW1sLW5vZGU9IlRlWEF0b20iPjxnIGRhdGEtbW1sLW5vZGU9Im1uIj48cGF0aCBkPSJNMjY2IDY1NEgyODBIMjgyUTUwMCA2NTQgNTI0IDQxOFE1MjkgMzcwIDUyOSAzMjBRNTI5IDEyNSA0NTYgNTJRMzk3IC0xMCAyODcgLTEwUTExMCAtMTAgNjMgMTU0UTQ1IDIxMiA0NSAzMTZRNDUgNTA0IDExMyA1ODVRMTQwIDYxOCAxODUgNjM2VDI2NiA2NTRaTTM3NCA1NDhRMzQ3IDYwNCAyODYgNjA0UTI0NyA2MDQgMjE4IDU3NVExOTcgNTUyIDE5MyA1MTFUMTg4IDMxMVExODggMTU5IDE5NiAxMTZRMjAyIDg3IDIyNSA2NFQyODcgNDFRMzM5IDQxIDM2NyA4N1EzNzkgMTA3IDM4MiAxNTJUMzg2IDMyOVEzODYgNTE4IDM3NCA1NDhaIiBkYXRhLWM9IjFEN0NFIi8+PC9nPjwvZz48ZyB0cmFuc2Zvcm09InRyYW5zbGF0ZSgyODcuNSwyNDMpIHRyYW5zbGF0ZSgtMjUwIDApIiBkYXRhLW1tbC1ub2RlPSJtbyI+PHBhdGggZD0iTTM3NyA2OTRRMzc3IDcwMiAzODIgNzA4VDM5NyA3MTRRNDA0IDcxNCA0MDkgNzA5UTQxNCA3MDUgNDE5IDY5MFE0MjkgNjUzIDQ2MCA2MzNRNDcxIDYyNiA0NzEgNjE1UTQ3MSA2MDYgNDY4IDYwM1Q0NTQgNTk0UTQxMSA1NzIgMzc5IDUzMVEzNzcgNTI5IDM3NCA1MjVUMzY5IDUxOVQzNjQgNTE3VDM1NyA1MTZRMzUwIDUxNiAzNDQgNTIxVDMzNyA1MzZRMzM3IDU1NSAzODQgNTk1SDIxM0w0MiA1OTZRMjkgNjA1IDI5IDYxNVEyOSA2MjIgNDIgNjM1SDQwMVEzNzcgNjczIDM3NyA2OTRaIiBkYXRhLWM9IjIwRDciLz48L2c+PC9nPjwvZz48L2c+PC9nPjxnIHRyYW5zZm9ybT0idHJhbnNsYXRlKDAsLTM3NTYpIiBkYXRhLW1tbC1ub2RlPSJtdHIiPjxnIHRyYW5zZm9ybT0idHJhbnNsYXRlKDQ5MjUuNCwwKSIgZGF0YS1tbWwtbm9kZT0ibXRkIj48ZyBkYXRhLW1tbC1ub2RlPSJtaSI+PHBhdGggZD0iTTQ2IDY3NlE0NiA2NzkgNTEgNjgzSDc4MVE3ODYgNjc5IDc4NiA2NzZRNzg2IDY3NCA2MTcgMzI2VDQ0NCAtMjZRNDM5IC0zMyA0MTYgLTMzVDM4OCAtMjZRMzg1IC0yMiAyMTYgMzI2VDQ2IDY3NlpNNjk3IDU5NlE2OTcgNTk3IDQ0NSA1OTdUMTkzIDU5NlExOTUgNTkxIDMxOSAzMzZUNDQ1IDgwTDY5NyA1OTZaIiBkYXRhLWM9IjIyMDciLz48L2c+PGcgdHJhbnNmb3JtPSJ0cmFuc2xhdGUoMTA1NS4yLDApIiBkYXRhLW1tbC1ub2RlPSJtbyI+PHBhdGggZD0iTTc4IDI1MFE3OCAyNzQgOTUgMjkyVDEzOCAzMTBRMTYyIDMxMCAxODAgMjk0VDE5OSAyNTFRMTk5IDIyNiAxODIgMjA4VDEzOSAxOTBUOTYgMjA3VDc4IDI1MFoiIGRhdGEtYz0iMjJDNSIvPjwvZz48ZyB0cmFuc2Zvcm09InRyYW5zbGF0ZSgxNTU1LjQsMCkiIGRhdGEtbWp4LXRleGNsYXNzPSJPUkQiIGRhdGEtbW1sLW5vZGU9IlRlWEF0b20iPjxnIGRhdGEtbW1sLW5vZGU9Im1vdmVyIj48ZyBkYXRhLW1qeC10ZXhjbGFzcz0iT1JEIiBkYXRhLW1tbC1ub2RlPSJUZVhBdG9tIj48ZyBkYXRhLW1tbC1ub2RlPSJtaSI+PHBhdGggZD0iTTcyMCA1MTBRNzIwIDQ3NiA3MDQgNDQ4VDY2NSA0MDRUNjE5IDM3N1Q1ODAgMzYyTDU2NCAzNTlMNTgzIDM1NlE2MDIgMzUzIDYzMiAzNDJUNjkwIDMxMlE3MTIgMjkyIDcyNSAyNzZRNzUyIDIzNSA3NTIgMTg5VjE4M1E3NTIgMTYwIDc0MSAxMjVRNjk4IDE4IDU0NyAyUTU0MyAxIDI4OCAwSDM5VjYySDE0N1Y2MjRIMzlWNjg2SDI2NEg0MDlRNTAyIDY4NiA1NDIgNjgxVDYyNCA2NTVRNzIwIDYwNyA3MjAgNTEwWk01NjMgNTEzUTU2MyA1NTMgNTQ4IDU3OFQ1MTggNjExVDQ4NiA2MjJRNDc5IDYyNCAzODUgNjI0SDI5M1YzODJIMzc1UTQ1OCAzODMgNDY3IDM4NVE1NjMgNDA1IDU2MyA1MTNaTTU5MCAxOTJRNTkwIDMwNyA1MDUgMzI5UTUwNCAzMzAgNTAzIDMzMEwzOTggMzMxSDI5M1Y2MkgzOTFINDAwSDQ0NFE0OTYgNjIgNTI4IDc1VDU4MCAxMzFRNTkwIDE1NSA1OTAgMTkyWiIgZGF0YS1jPSIxRDQwMSIvPjwvZz48L2c+PGcgdHJhbnNmb3JtPSJ0cmFuc2xhdGUoNDA5LDI3NSkgdHJhbnNsYXRlKC0yNTAgMCkiIGRhdGEtbW1sLW5vZGU9Im1vIj48cGF0aCBkPSJNMzc3IDY5NFEzNzcgNzAyIDM4MiA3MDhUMzk3IDcxNFE0MDQgNzE0IDQwOSA3MDlRNDE0IDcwNSA0MTkgNjkwUTQyOSA2NTMgNDYwIDYzM1E0NzEgNjI2IDQ3MSA2MTVRNDcxIDYwNiA0NjggNjAzVDQ1NCA1OTRRNDExIDU3MiAzNzkgNTMxUTM3NyA1MjkgMzc0IDUyNVQzNjkgNTE5VDM2NCA1MTdUMzU3IDUxNlEzNTAgNTE2IDM0NCA1MjFUMzM3IDUzNlEzMzcgNTU1IDM4NCA1OTVIMjEzTDQyIDU5NlEyOSA2MDUgMjkgNjE1UTI5IDYyMiA0MiA2MzVINDAxUTM3NyA2NzMgMzc3IDY5NFoiIGRhdGEtYz0iMjBENyIvPjwvZz48L2c+PC9nPjwvZz48ZyB0cmFuc2Zvcm09InRyYW5zbGF0ZSg3Mjk4LjksMCkiIGRhdGEtbW1sLW5vZGU9Im10ZCI+PGcgZGF0YS1tbWwtbm9kZT0ibWkiLz48ZyB0cmFuc2Zvcm09InRyYW5zbGF0ZSgyNzcuOCwwKSIgZGF0YS1tbWwtbm9kZT0ibW8iPjxwYXRoIGQ9Ik01NiAzNDdRNTYgMzYwIDcwIDM2N0g3MDdRNzIyIDM1OSA3MjIgMzQ3UTcyMiAzMzYgNzA4IDMyOEwzOTAgMzI3SDcyUTU2IDMzMiA1NiAzNDdaTTU2IDE1M1E1NiAxNjggNzIgMTczSDcwOFE3MjIgMTYzIDcyMiAxNTNRNzIyIDE0MCA3MDcgMTMzSDcwUTU2IDE0MCA1NiAxNTNaIiBkYXRhLWM9IjNEIi8+PC9nPjxnIHRyYW5zZm9ybT0idHJhbnNsYXRlKDEzMzMuNiwwKSIgZGF0YS1tbWwtbm9kZT0ibW4iPjxwYXRoIGQ9Ik05NiA1ODVRMTUyIDY2NiAyNDkgNjY2UTI5NyA2NjYgMzQ1IDY0MFQ0MjMgNTQ4UTQ2MCA0NjUgNDYwIDMyMFE0NjAgMTY1IDQxNyA4M1EzOTcgNDEgMzYyIDE2VDMwMSAtMTVUMjUwIC0yMlEyMjQgLTIyIDE5OCAtMTZUMTM3IDE2VDgyIDgzUTM5IDE2NSAzOSAzMjBRMzkgNDk0IDk2IDU4NVpNMzIxIDU5N1EyOTEgNjI5IDI1MCA2MjlRMjA4IDYyOSAxNzggNTk3UTE1MyA1NzEgMTQ1IDUyNVQxMzcgMzMzUTEzNyAxNzUgMTQ1IDEyNVQxODEgNDZRMjA5IDE2IDI1MCAxNlEyOTAgMTYgMzE4IDQ2UTM0NyA3NiAzNTQgMTMwVDM2MiAzMzNRMzYyIDQ3OCAzNTQgNTI0VDMyMSA1OTdaIiBkYXRhLWM9IjMwIi8+PC9nPjwvZz48L2c+PC9nPjwvZz48L2c+PC9zdmc+" parent="1" vertex="1">
                    <mxGeometry x="80" y="500" width="240" height="190" as="geometry"/>
                </mxCell>
                <mxCell id="18" value="" style="shape=image;verticalLabelPosition=bottom;verticalAlign=top;imageAspect=0;aspect=fixed;image=data:image/svg+xml,PHN2ZyB4bWxucz0iaHR0cDovL3d3dy53My5vcmcvMjAwMC9zdmciIHZpZXdCb3g9IjAgLTEzNzAgMTI0NzMuMyAyMjMxIiByb2xlPSJpbWciIGhlaWdodD0iNS4wNDhleCIgd2lkdGg9IjI4LjIyZXgiIHN0eWxlPSJ2ZXJ0aWNhbC1hbGlnbjogLTEuOTQ4ZXg7Ij4KPHN0eWxlPgogICogeyBmaWxsOiAjM2I4MmY2OyB9CiAgQG1lZGlhIChwcmVmZXJzLWNvbG9yLXNjaGVtZTogZGFyaykgewogICAgKiB7IGZpbGw6ICMzYjgyZjY7IH0KICB9Cjwvc3R5bGU+PGcgdHJhbnNmb3JtPSJzY2FsZSgxLC0xKSIgc3Ryb2tlLXdpZHRoPSIwIiBmaWxsPSJjdXJyZW50Q29sb3IiIHN0cm9rZT0iY3VycmVudENvbG9yIj48ZyBkYXRhLW1tbC1ub2RlPSJtYXRoIj48ZyB0cmFuc2Zvcm09InRyYW5zbGF0ZSgwIDEpIiBkYXRhLW1tbC1ub2RlPSJtbyI+PHBhdGggZD0iTTExNCAtNzk4UTEzMiAtODI0IDE2NSAtODI0SDE2N1ExOTUgLTgyNCAyMjMgLTc2NFQyNzUgLTYwMFQzMjAgLTM5MVQzNjIgLTE2NFEzNjUgLTE0MyAzNjcgLTEzM1E0MzkgMjkyIDUyMyA2NTVUNjQ1IDExMjdRNjUxIDExNDUgNjU1IDExNTdUNjcyIDEyMDFUNjk5IDEyNTdUNzMzIDEzMDZUNzc3IDEzNDZUODI4IDEzNjBRODg0IDEzNjAgOTEyIDEzMjVUOTQ0IDEyNDVROTQ0IDEyMjAgOTMyIDEyMDVUOTA5IDExODZUODg3IDExODNRODY2IDExODMgODQ5IDExOThUODMyIDEyMzlRODMyIDEyODcgODg1IDEyOTZMODgyIDEzMDBRODc5IDEzMDMgODc0IDEzMDdUODY2IDEzMTNRODUxIDEzMjMgODMzIDEzMjNRODE5IDEzMjMgODA3IDEzMTFUNzc1IDEyNTVUNzM2IDExMzlUNjg5IDkzNlQ2MzMgNjI4UTU3NCAyOTMgNTEwIC01VDQxMCAtNDM3VDM1NSAtNjI5UTI3OCAtODYyIDE2NSAtODYyUTEyNSAtODYyIDkyIC04MzFUNTUgLTc0NlE1NSAtNzExIDc0IC02OThUMTEyIC02ODVRMTMzIC02ODUgMTUwIC03MDBUMTY3IC03NDFRMTY3IC03ODkgMTE0IC03OThaIiBkYXRhLWM9IjIyMkIiLz48L2c+PGcgdHJhbnNmb3JtPSJ0cmFuc2xhdGUoMTExMC43LDApIiBkYXRhLW1tbC1ub2RlPSJtaSI+PHBhdGggZD0iTTIxIDI4N1EyMSAyOTUgMzAgMzE4VDU1IDM3MFQ5OSA0MjBUMTU4IDQ0MlEyMDQgNDQyIDIyNyA0MTdUMjUwIDM1OFEyNTAgMzQwIDIxNiAyNDZUMTgyIDEwNVExODIgNjIgMTk2IDQ1VDIzOCAyN1QyOTEgNDRUMzI4IDc4TDMzOSA5NVEzNDEgOTkgMzc3IDI0N1E0MDcgMzY3IDQxMyAzODdUNDI3IDQxNlE0NDQgNDMxIDQ2MyA0MzFRNDgwIDQzMSA0ODggNDIxVDQ5NiA0MDJMNDIwIDg0UTQxOSA3OSA0MTkgNjhRNDE5IDQzIDQyNiAzNVQ0NDcgMjZRNDY5IDI5IDQ4MiA1N1Q1MTIgMTQ1UTUxNCAxNTMgNTMyIDE1M1E1NTEgMTUzIDU1MSAxNDRRNTUwIDEzOSA1NDkgMTMwVDU0MCA5OFQ1MjMgNTVUNDk4IDE3VDQ2MiAtOFE0NTQgLTEwIDQzOCAtMTBRMzcyIC0xMCAzNDcgNDZRMzQ1IDQ1IDMzNiAzNlQzMTggMjFUMjk2IDZUMjY3IC02VDIzMyAtMTFRMTg5IC0xMSAxNTUgN1ExMDMgMzggMTAzIDExM1ExMDMgMTcwIDEzOCAyNjJUMTczIDM3OVExNzMgMzgwIDE3MyAzODFRMTczIDM5MCAxNzMgMzkzVDE2OSA0MDBUMTU4IDQwNEgxNTRRMTMxIDQwNCAxMTIgMzg1VDgyIDM0NFQ2NSAzMDJUNTcgMjgwUTU1IDI3OCA0MSAyNzhIMjdRMjEgMjg0IDIxIDI4N1oiIGRhdGEtYz0iMUQ0NjIiLz48L2c+PGcgdHJhbnNmb3JtPSJ0cmFuc2xhdGUoMTY4Mi43LDApIiBkYXRhLW1tbC1ub2RlPSJtZnJhYyI+PGcgdHJhbnNmb3JtPSJ0cmFuc2xhdGUoMjYzLjUsNjc2KSIgZGF0YS1tbWwtbm9kZT0ibXJvdyI+PGcgZGF0YS1tbWwtbm9kZT0ibWkiPjxwYXRoIGQ9Ik0zNjYgNjgzUTM2NyA2ODMgNDM4IDY4OFQ1MTEgNjk0UTUyMyA2OTQgNTIzIDY4NlE1MjMgNjc5IDQ1MCAzODRUMzc1IDgzVDM3NCA2OFEzNzQgMjYgNDAyIDI2UTQxMSAyNyA0MjIgMzVRNDQzIDU1IDQ2MyAxMzFRNDY5IDE1MSA0NzMgMTUyUTQ3NSAxNTMgNDgzIDE1M0g0ODdINDkxUTUwNiAxNTMgNTA2IDE0NVE1MDYgMTQwIDUwMyAxMjlRNDkwIDc5IDQ3MyA0OFQ0NDUgOFQ0MTcgLThRNDA5IC0xMCAzOTMgLTEwUTM1OSAtMTAgMzM2IDVUMzA2IDM2TDMwMCA1MVEyOTkgNTIgMjk2IDUwUTI5NCA0OCAyOTIgNDZRMjMzIC0xMCAxNzIgLTEwUTExNyAtMTAgNzUgMzBUMzMgMTU3UTMzIDIwNSA1MyAyNTVUMTAxIDM0MVExNDggMzk4IDE5NSA0MjBUMjgwIDQ0MlEzMzYgNDQyIDM2NCA0MDBRMzY5IDM5NCAzNjkgMzk2UTM3MCA0MDAgMzk2IDUwNVQ0MjQgNjE2UTQyNCA2MjkgNDE3IDYzMlQzNzggNjM3SDM1N1EzNTEgNjQzIDM1MSA2NDVUMzUzIDY2NFEzNTggNjgzIDM2NiA2ODNaTTM1MiAzMjZRMzI5IDQwNSAyNzcgNDA1UTI0MiA0MDUgMjEwIDM3NFQxNjAgMjkzUTEzMSAyMTQgMTE5IDEyOVExMTkgMTI2IDExOSAxMThUMTE4IDEwNlExMTggNjEgMTM2IDQ0VDE3OSAyNlEyMzMgMjYgMjkwIDk4TDI5OCAxMDlMMzUyIDMyNloiIGRhdGEtYz0iMUQ0NTEiLz48L2c+PGcgdHJhbnNmb3JtPSJ0cmFuc2xhdGUoNTIwLDApIiBkYXRhLW1tbC1ub2RlPSJtaSI+PHBhdGggZD0iTTE3MyAzODBRMTczIDQwNSAxNTQgNDA1UTEzMCA0MDUgMTA0IDM3NlQ2MSAyODdRNjAgMjg2IDU5IDI4NFQ1OCAyODFUNTYgMjc5VDUzIDI3OFQ0OSAyNzhUNDEgMjc4SDI3UTIxIDI4NCAyMSAyODdRMjEgMjk0IDI5IDMxNlQ1MyAzNjhUOTcgNDE5VDE2MCA0NDFRMjAyIDQ0MSAyMjUgNDE3VDI0OSAzNjFRMjQ5IDM0NCAyNDYgMzM1UTI0NiAzMjkgMjMxIDI5MVQyMDAgMjAyVDE4MiAxMTNRMTgyIDg2IDE4NyA2OVEyMDAgMjYgMjUwIDI2UTI4NyAyNiAzMTkgNjBUMzY5IDEzOVQzOTggMjIyVDQwOSAyNzdRNDA5IDMwMCA0MDEgMzE3VDM4MyAzNDNUMzY1IDM2MVQzNTcgMzgzUTM1NyA0MDUgMzc2IDQyNFQ0MTcgNDQzUTQzNiA0NDMgNDUxIDQyNVQ0NjcgMzY3UTQ2NyAzNDAgNDU1IDI4NFQ0MTggMTU5VDM0NyA0MFQyNDEgLTExUTE3NyAtMTEgMTM5IDIyUTEwMiA1NCAxMDIgMTE3UTEwMiAxNDggMTEwIDE4MVQxNTEgMjk4UTE3MyAzNjIgMTczIDM4MFoiIGRhdGEtYz0iMUQ0NjMiLz48L2c+PC9nPjxnIHRyYW5zZm9ybT0idHJhbnNsYXRlKDIyMCwtNjg2KSIgZGF0YS1tbWwtbm9kZT0ibXJvdyI+PGcgZGF0YS1tbWwtbm9kZT0ibWkiPjxwYXRoIGQ9Ik0zNjYgNjgzUTM2NyA2ODMgNDM4IDY4OFQ1MTEgNjk0UTUyMyA2OTQgNTIzIDY4NlE1MjMgNjc5IDQ1MCAzODRUMzc1IDgzVDM3NCA2OFEzNzQgMjYgNDAyIDI2UTQxMSAyNyA0MjIgMzVRNDQzIDU1IDQ2MyAxMzFRNDY5IDE1MSA0NzMgMTUyUTQ3NSAxNTMgNDgzIDE1M0g0ODdINDkxUTUwNiAxNTMgNTA2IDE0NVE1MDYgMTQwIDUwMyAxMjlRNDkwIDc5IDQ3MyA0OFQ0NDUgOFQ0MTcgLThRNDA5IC0xMCAzOTMgLTEwUTM1OSAtMTAgMzM2IDVUMzA2IDM2TDMwMCA1MVEyOTkgNTIgMjk2IDUwUTI5NCA0OCAyOTIgNDZRMjMzIC0xMCAxNzIgLTEwUTExNyAtMTAgNzUgMzBUMzMgMTU3UTMzIDIwNSA1MyAyNTVUMTAxIDM0MVExNDggMzk4IDE5NSA0MjBUMjgwIDQ0MlEzMzYgNDQyIDM2NCA0MDBRMzY5IDM5NCAzNjkgMzk2UTM3MCA0MDAgMzk2IDUwNVQ0MjQgNjE2UTQyNCA2MjkgNDE3IDYzMlQzNzggNjM3SDM1N1EzNTEgNjQzIDM1MSA2NDVUMzUzIDY2NFEzNTggNjgzIDM2NiA2ODNaTTM1MiAzMjZRMzI5IDQwNSAyNzcgNDA1UTI0MiA0MDUgMjEwIDM3NFQxNjAgMjkzUTEzMSAyMTQgMTE5IDEyOVExMTkgMTI2IDExOSAxMThUMTE4IDEwNlExMTggNjEgMTM2IDQ0VDE3OSAyNlEyMzMgMjYgMjkwIDk4TDI5OCAxMDlMMzUyIDMyNloiIGRhdGEtYz0iMUQ0NTEiLz48L2c+PGcgdHJhbnNmb3JtPSJ0cmFuc2xhdGUoNTIwLDApIiBkYXRhLW1tbC1ub2RlPSJtaSI+PHBhdGggZD0iTTUyIDI4OVE1OSAzMzEgMTA2IDM4NlQyMjIgNDQyUTI1NyA0NDIgMjg2IDQyNFQzMjkgMzc5UTM3MSA0NDIgNDMwIDQ0MlE0NjcgNDQyIDQ5NCA0MjBUNTIyIDM2MVE1MjIgMzMyIDUwOCAzMTRUNDgxIDI5MlQ0NTggMjg4UTQzOSAyODggNDI3IDI5OVQ0MTUgMzI4UTQxNSAzNzQgNDY1IDM5MVE0NTQgNDA0IDQyNSA0MDRRNDEyIDQwNCA0MDYgNDAyUTM2OCAzODYgMzUwIDMzNlEyOTAgMTE1IDI5MCA3OFEyOTAgNTAgMzA2IDM4VDM0MSAyNlEzNzggMjYgNDE0IDU5VDQ2MyAxNDBRNDY2IDE1MCA0NjkgMTUxVDQ4NSAxNTNINDg5UTUwNCAxNTMgNTA0IDE0NVE1MDQgMTQ0IDUwMiAxMzRRNDg2IDc3IDQ0MCAzM1QzMzMgLTExUTI2MyAtMTEgMjI3IDUyUTE4NiAtMTAgMTMzIC0xMEgxMjdRNzggLTEwIDU3IDE2VDM1IDcxUTM1IDEwMyA1NCAxMjNUOTkgMTQzUTE0MiAxNDMgMTQyIDEwMVExNDIgODEgMTMwIDY2VDEwNyA0NlQ5NCA0MUw5MSA0MFE5MSAzOSA5NyAzNlQxMTMgMjlUMTMyIDI2UTE2OCAyNiAxOTQgNzFRMjAzIDg3IDIxNyAxMzlUMjQ1IDI0N1QyNjEgMzEzUTI2NiAzNDAgMjY2IDM1MlEyNjYgMzgwIDI1MSAzOTJUMjE3IDQwNFExNzcgNDA0IDE0MiAzNzJUOTMgMjkwUTkxIDI4MSA4OCAyODBUNzIgMjc4SDU4UTUyIDI4NCA1MiAyODlaIiBkYXRhLWM9IjFENDY1Ii8+PC9nPjwvZz48cmVjdCB5PSIyMjAiIHg9IjEyMCIgaGVpZ2h0PSI2MCIgd2lkdGg9IjEyOTIiLz48L2c+PGcgdHJhbnNmb3JtPSJ0cmFuc2xhdGUoMzIxNC43LDApIiBkYXRhLW1tbC1ub2RlPSJtc3R5bGUiPjxnIGRhdGEtbW1sLW5vZGU9Im1zcGFjZSIvPjwvZz48ZyB0cmFuc2Zvcm09InRyYW5zbGF0ZSgzMzgxLjcsMCkiIGRhdGEtbW1sLW5vZGU9Im1pIj48cGF0aCBkPSJNMzY2IDY4M1EzNjcgNjgzIDQzOCA2ODhUNTExIDY5NFE1MjMgNjk0IDUyMyA2ODZRNTIzIDY3OSA0NTAgMzg0VDM3NSA4M1QzNzQgNjhRMzc0IDI2IDQwMiAyNlE0MTEgMjcgNDIyIDM1UTQ0MyA1NSA0NjMgMTMxUTQ2OSAxNTEgNDczIDE1MlE0NzUgMTUzIDQ4MyAxNTNINDg3SDQ5MVE1MDYgMTUzIDUwNiAxNDVRNTA2IDE0MCA1MDMgMTI5UTQ5MCA3OSA0NzMgNDhUNDQ1IDhUNDE3IC04UTQwOSAtMTAgMzkzIC0xMFEzNTkgLTEwIDMzNiA1VDMwNiAzNkwzMDAgNTFRMjk5IDUyIDI5NiA1MFEyOTQgNDggMjkyIDQ2UTIzMyAtMTAgMTcyIC0xMFExMTcgLTEwIDc1IDMwVDMzIDE1N1EzMyAyMDUgNTMgMjU1VDEwMSAzNDFRMTQ4IDM5OCAxOTUgNDIwVDI4MCA0NDJRMzM2IDQ0MiAzNjQgNDAwUTM2OSAzOTQgMzY5IDM5NlEzNzAgNDAwIDM5NiA1MDVUNDI0IDYxNlE0MjQgNjI5IDQxNyA2MzJUMzc4IDYzN0gzNTdRMzUxIDY0MyAzNTEgNjQ1VDM1MyA2NjRRMzU4IDY4MyAzNjYgNjgzWk0zNTIgMzI2UTMyOSA0MDUgMjc3IDQwNVEyNDIgNDA1IDIxMCAzNzRUMTYwIDI5M1ExMzEgMjE0IDExOSAxMjlRMTE5IDEyNiAxMTkgMTE4VDExOCAxMDZRMTE4IDYxIDEzNiA0NFQxNzkgMjZRMjMzIDI2IDI5MCA5OEwyOTggMTA5TDM1MiAzMjZaIiBkYXRhLWM9IjFENDUxIi8+PC9nPjxnIHRyYW5zZm9ybT0idHJhbnNsYXRlKDM5MDEuNywwKSIgZGF0YS1tbWwtbm9kZT0ibWkiPjxwYXRoIGQ9Ik01MiAyODlRNTkgMzMxIDEwNiAzODZUMjIyIDQ0MlEyNTcgNDQyIDI4NiA0MjRUMzI5IDM3OVEzNzEgNDQyIDQzMCA0NDJRNDY3IDQ0MiA0OTQgNDIwVDUyMiAzNjFRNTIyIDMzMiA1MDggMzE0VDQ4MSAyOTJUNDU4IDI4OFE0MzkgMjg4IDQyNyAyOTlUNDE1IDMyOFE0MTUgMzc0IDQ2NSAzOTFRNDU0IDQwNCA0MjUgNDA0UTQxMiA0MDQgNDA2IDQwMlEzNjggMzg2IDM1MCAzMzZRMjkwIDExNSAyOTAgNzhRMjkwIDUwIDMwNiAzOFQzNDEgMjZRMzc4IDI2IDQxNCA1OVQ0NjMgMTQwUTQ2NiAxNTAgNDY5IDE1MVQ0ODUgMTUzSDQ4OVE1MDQgMTUzIDUwNCAxNDVRNTA0IDE0NCA1MDIgMTM0UTQ4NiA3NyA0NDAgMzNUMzMzIC0xMVEyNjMgLTExIDIyNyA1MlExODYgLTEwIDEzMyAtMTBIMTI3UTc4IC0xMCA1NyAxNlQzNSA3MVEzNSAxMDMgNTQgMTIzVDk5IDE0M1ExNDIgMTQzIDE0MiAxMDFRMTQyIDgxIDEzMCA2NlQxMDcgNDZUOTQgNDFMOTEgNDBROTEgMzkgOTcgMzZUMTEzIDI5VDEzMiAyNlExNjggMjYgMTk0IDcxUTIwMyA4NyAyMTcgMTM5VDI0NSAyNDdUMjYxIDMxM1EyNjYgMzQwIDI2NiAzNTJRMjY2IDM4MCAyNTEgMzkyVDIxNyA0MDRRMTc3IDQwNCAxNDIgMzcyVDkzIDI5MFE5MSAyODEgODggMjgwVDcyIDI3OEg1OFE1MiAyODQgNTIgMjg5WiIgZGF0YS1jPSIxRDQ2NSIvPjwvZz48ZyB0cmFuc2Zvcm09InRyYW5zbGF0ZSg0NzUxLjQsMCkiIGRhdGEtbW1sLW5vZGU9Im1vIj48cGF0aCBkPSJNNTYgMzQ3UTU2IDM2MCA3MCAzNjdINzA3UTcyMiAzNTkgNzIyIDM0N1E3MjIgMzM2IDcwOCAzMjhMMzkwIDMyN0g3MlE1NiAzMzIgNTYgMzQ3Wk01NiAxNTNRNTYgMTY4IDcyIDE3M0g3MDhRNzIyIDE2MyA3MjIgMTUzUTcyMiAxNDAgNzA3IDEzM0g3MFE1NiAxNDAgNTYgMTUzWiIgZGF0YS1jPSIzRCIvPjwvZz48ZyB0cmFuc2Zvcm09InRyYW5zbGF0ZSg1ODA3LjIsMCkiIGRhdGEtbW1sLW5vZGU9Im1pIj48cGF0aCBkPSJNMjEgMjg3UTIxIDI5NSAzMCAzMThUNTUgMzcwVDk5IDQyMFQxNTggNDQyUTIwNCA0NDIgMjI3IDQxN1QyNTAgMzU4UTI1MCAzNDAgMjE2IDI0NlQxODIgMTA1UTE4MiA2MiAxOTYgNDVUMjM4IDI3VDI5MSA0NFQzMjggNzhMMzM5IDk1UTM0MSA5OSAzNzcgMjQ3UTQwNyAzNjcgNDEzIDM4N1Q0MjcgNDE2UTQ0NCA0MzEgNDYzIDQzMVE0ODAgNDMxIDQ4OCA0MjFUNDk2IDQwMkw0MjAgODRRNDE5IDc5IDQxOSA2OFE0MTkgNDMgNDI2IDM1VDQ0NyAyNlE0NjkgMjkgNDgyIDU3VDUxMiAxNDVRNTE0IDE1MyA1MzIgMTUzUTU1MSAxNTMgNTUxIDE0NFE1NTAgMTM5IDU0OSAxMzBUNTQwIDk4VDUyMyA1NVQ0OTggMTdUNDYyIC04UTQ1NCAtMTAgNDM4IC0xMFEzNzIgLTEwIDM0NyA0NlEzNDUgNDUgMzM2IDM2VDMxOCAyMVQyOTYgNlQyNjcgLTZUMjMzIC0xMVExODkgLTExIDE1NSA3UTEwMyAzOCAxMDMgMTEzUTEwMyAxNzAgMTM4IDI2MlQxNzMgMzc5UTE3MyAzODAgMTczIDM4MVExNzMgMzkwIDE3MyAzOTNUMTY5IDQwMFQxNTggNDA0SDE1NFExMzEgNDA0IDExMiAzODVUODIgMzQ0VDY1IDMwMlQ1NyAyODBRNTUgMjc4IDQxIDI3OEgyN1EyMSAyODQgMjEgMjg3WiIgZGF0YS1jPSIxRDQ2MiIvPjwvZz48ZyB0cmFuc2Zvcm09InRyYW5zbGF0ZSg2Mzc5LjIsMCkiIGRhdGEtbW1sLW5vZGU9Im1pIj48cGF0aCBkPSJNMTczIDM4MFExNzMgNDA1IDE1NCA0MDVRMTMwIDQwNSAxMDQgMzc2VDYxIDI4N1E2MCAyODYgNTkgMjg0VDU4IDI4MVQ1NiAyNzlUNTMgMjc4VDQ5IDI3OFQ0MSAyNzhIMjdRMjEgMjg0IDIxIDI4N1EyMSAyOTQgMjkgMzE2VDUzIDM2OFQ5NyA0MTlUMTYwIDQ0MVEyMDIgNDQxIDIyNSA0MTdUMjQ5IDM2MVEyNDkgMzQ0IDI0NiAzMzVRMjQ2IDMyOSAyMzEgMjkxVDIwMCAyMDJUMTgyIDExM1ExODIgODYgMTg3IDY5UTIwMCAyNiAyNTAgMjZRMjg3IDI2IDMxOSA2MFQzNjkgMTM5VDM5OCAyMjJUNDA5IDI3N1E0MDkgMzAwIDQwMSAzMTdUMzgzIDM0M1QzNjUgMzYxVDM1NyAzODNRMzU3IDQwNSAzNzYgNDI0VDQxNyA0NDNRNDM2IDQ0MyA0NTEgNDI1VDQ2NyAzNjdRNDY3IDM0MCA0NTUgMjg0VDQxOCAxNTlUMzQ3IDQwVDI0MSAtMTFRMTc3IC0xMSAxMzkgMjJRMTAyIDU0IDEwMiAxMTdRMTAyIDE0OCAxMTAgMTgxVDE1MSAyOThRMTczIDM2MiAxNzMgMzgwWiIgZGF0YS1jPSIxRDQ2MyIvPjwvZz48ZyB0cmFuc2Zvcm09InRyYW5zbGF0ZSg3MDg2LjQsMCkiIGRhdGEtbW1sLW5vZGU9Im1vIj48cGF0aCBkPSJNODQgMjM3VDg0IDI1MFQ5OCAyNzBINjc5UTY5NCAyNjIgNjk0IDI1MFQ2NzkgMjMwSDk4UTg0IDIzNyA4NCAyNTBaIiBkYXRhLWM9IjIyMTIiLz48L2c+PGcgdHJhbnNmb3JtPSJ0cmFuc2xhdGUoODA4Ni43LDApIHRyYW5zbGF0ZSgwIDEpIiBkYXRhLW1tbC1ub2RlPSJtbyI+PHBhdGggZD0iTTExNCAtNzk4UTEzMiAtODI0IDE2NSAtODI0SDE2N1ExOTUgLTgyNCAyMjMgLTc2NFQyNzUgLTYwMFQzMjAgLTM5MVQzNjIgLTE2NFEzNjUgLTE0MyAzNjcgLTEzM1E0MzkgMjkyIDUyMyA2NTVUNjQ1IDExMjdRNjUxIDExNDUgNjU1IDExNTdUNjcyIDEyMDFUNjk5IDEyNTdUNzMzIDEzMDZUNzc3IDEzNDZUODI4IDEzNjBRODg0IDEzNjAgOTEyIDEzMjVUOTQ0IDEyNDVROTQ0IDEyMjAgOTMyIDEyMDVUOTA5IDExODZUODg3IDExODNRODY2IDExODMgODQ5IDExOThUODMyIDEyMzlRODMyIDEyODcgODg1IDEyOTZMODgyIDEzMDBRODc5IDEzMDMgODc0IDEzMDdUODY2IDEzMTNRODUxIDEzMjMgODMzIDEzMjNRODE5IDEzMjMgODA3IDEzMTFUNzc1IDEyNTVUNzM2IDExMzlUNjg5IDkzNlQ2MzMgNjI4UTU3NCAyOTMgNTEwIC01VDQxMCAtNDM3VDM1NSAtNjI5UTI3OCAtODYyIDE2NSAtODYyUTEyNSAtODYyIDkyIC04MzFUNTUgLTc0NlE1NSAtNzExIDc0IC02OThUMTEyIC02ODVRMTMzIC02ODUgMTUwIC03MDBUMTY3IC03NDFRMTY3IC03ODkgMTE0IC03OThaIiBkYXRhLWM9IjIyMkIiLz48L2c+PGcgdHJhbnNmb3JtPSJ0cmFuc2xhdGUoOTE5Ny4zLDApIiBkYXRhLW1tbC1ub2RlPSJtZnJhYyI+PGcgdHJhbnNmb3JtPSJ0cmFuc2xhdGUoMjIwLDY3NikiIGRhdGEtbW1sLW5vZGU9Im1yb3ciPjxnIGRhdGEtbW1sLW5vZGU9Im1pIj48cGF0aCBkPSJNMzY2IDY4M1EzNjcgNjgzIDQzOCA2ODhUNTExIDY5NFE1MjMgNjk0IDUyMyA2ODZRNTIzIDY3OSA0NTAgMzg0VDM3NSA4M1QzNzQgNjhRMzc0IDI2IDQwMiAyNlE0MTEgMjcgNDIyIDM1UTQ0MyA1NSA0NjMgMTMxUTQ2OSAxNTEgNDczIDE1MlE0NzUgMTUzIDQ4MyAxNTNINDg3SDQ5MVE1MDYgMTUzIDUwNiAxNDVRNTA2IDE0MCA1MDMgMTI5UTQ5MCA3OSA0NzMgNDhUNDQ1IDhUNDE3IC04UTQwOSAtMTAgMzkzIC0xMFEzNTkgLTEwIDMzNiA1VDMwNiAzNkwzMDAgNTFRMjk5IDUyIDI5NiA1MFEyOTQgNDggMjkyIDQ2UTIzMyAtMTAgMTcyIC0xMFExMTcgLTEwIDc1IDMwVDMzIDE1N1EzMyAyMDUgNTMgMjU1VDEwMSAzNDFRMTQ4IDM5OCAxOTUgNDIwVDI4MCA0NDJRMzM2IDQ0MiAzNjQgNDAwUTM2OSAzOTQgMzY5IDM5NlEzNzAgNDAwIDM5NiA1MDVUNDI0IDYxNlE0MjQgNjI5IDQxNyA2MzJUMzc4IDYzN0gzNTdRMzUxIDY0MyAzNTEgNjQ1VDM1MyA2NjRRMzU4IDY4MyAzNjYgNjgzWk0zNTIgMzI2UTMyOSA0MDUgMjc3IDQwNVEyNDIgNDA1IDIxMCAzNzRUMTYwIDI5M1ExMzEgMjE0IDExOSAxMjlRMTE5IDEyNiAxMTkgMTE4VDExOCAxMDZRMTE4IDYxIDEzNiA0NFQxNzkgMjZRMjMzIDI2IDI5MCA5OEwyOTggMTA5TDM1MiAzMjZaIiBkYXRhLWM9IjFENDUxIi8+PC9nPjxnIHRyYW5zZm9ybT0idHJhbnNsYXRlKDUyMCwwKSIgZGF0YS1tbWwtbm9kZT0ibWkiPjxwYXRoIGQ9Ik0yMSAyODdRMjEgMjk1IDMwIDMxOFQ1NSAzNzBUOTkgNDIwVDE1OCA0NDJRMjA0IDQ0MiAyMjcgNDE3VDI1MCAzNThRMjUwIDM0MCAyMTYgMjQ2VDE4MiAxMDVRMTgyIDYyIDE5NiA0NVQyMzggMjdUMjkxIDQ0VDMyOCA3OEwzMzkgOTVRMzQxIDk5IDM3NyAyNDdRNDA3IDM2NyA0MTMgMzg3VDQyNyA0MTZRNDQ0IDQzMSA0NjMgNDMxUTQ4MCA0MzEgNDg4IDQyMVQ0OTYgNDAyTDQyMCA4NFE0MTkgNzkgNDE5IDY4UTQxOSA0MyA0MjYgMzVUNDQ3IDI2UTQ2OSAyOSA0ODIgNTdUNTEyIDE0NVE1MTQgMTUzIDUzMiAxNTNRNTUxIDE1MyA1NTEgMTQ0UTU1MCAxMzkgNTQ5IDEzMFQ1NDAgOThUNTIzIDU1VDQ5OCAxN1Q0NjIgLThRNDU0IC0xMCA0MzggLTEwUTM3MiAtMTAgMzQ3IDQ2UTM0NSA0NSAzMzYgMzZUMzE4IDIxVDI5NiA2VDI2NyAtNlQyMzMgLTExUTE4OSAtMTEgMTU1IDdRMTAzIDM4IDEwMyAxMTNRMTAzIDE3MCAxMzggMjYyVDE3MyAzNzlRMTczIDM4MCAxNzMgMzgxUTE3MyAzOTAgMTczIDM5M1QxNjkgNDAwVDE1OCA0MDRIMTU0UTEzMSA0MDQgMTEyIDM4NVQ4MiAzNDRUNjUgMzAyVDU3IDI4MFE1NSAyNzggNDEgMjc4SDI3UTIxIDI4NCAyMSAyODdaIiBkYXRhLWM9IjFENDYyIi8+PC9nPjwvZz48ZyB0cmFuc2Zvcm09InRyYW5zbGF0ZSgyMjAsLTY4NikiIGRhdGEtbW1sLW5vZGU9Im1yb3ciPjxnIGRhdGEtbW1sLW5vZGU9Im1pIj48cGF0aCBkPSJNMzY2IDY4M1EzNjcgNjgzIDQzOCA2ODhUNTExIDY5NFE1MjMgNjk0IDUyMyA2ODZRNTIzIDY3OSA0NTAgMzg0VDM3NSA4M1QzNzQgNjhRMzc0IDI2IDQwMiAyNlE0MTEgMjcgNDIyIDM1UTQ0MyA1NSA0NjMgMTMxUTQ2OSAxNTEgNDczIDE1MlE0NzUgMTUzIDQ4MyAxNTNINDg3SDQ5MVE1MDYgMTUzIDUwNiAxNDVRNTA2IDE0MCA1MDMgMTI5UTQ5MCA3OSA0NzMgNDhUNDQ1IDhUNDE3IC04UTQwOSAtMTAgMzkzIC0xMFEzNTkgLTEwIDMzNiA1VDMwNiAzNkwzMDAgNTFRMjk5IDUyIDI5NiA1MFEyOTQgNDggMjkyIDQ2UTIzMyAtMTAgMTcyIC0xMFExMTcgLTEwIDc1IDMwVDMzIDE1N1EzMyAyMDUgNTMgMjU1VDEwMSAzNDFRMTQ4IDM5OCAxOTUgNDIwVDI4MCA0NDJRMzM2IDQ0MiAzNjQgNDAwUTM2OSAzOTQgMzY5IDM5NlEzNzAgNDAwIDM5NiA1MDVUNDI0IDYxNlE0MjQgNjI5IDQxNyA2MzJUMzc4IDYzN0gzNTdRMzUxIDY0MyAzNTEgNjQ1VDM1MyA2NjRRMzU4IDY4MyAzNjYgNjgzWk0zNTIgMzI2UTMyOSA0MDUgMjc3IDQwNVEyNDIgNDA1IDIxMCAzNzRUMTYwIDI5M1ExMzEgMjE0IDExOSAxMjlRMTE5IDEyNiAxMTkgMTE4VDExOCAxMDZRMTE4IDYxIDEzNiA0NFQxNzkgMjZRMjMzIDI2IDI5MCA5OEwyOTggMTA5TDM1MiAzMjZaIiBkYXRhLWM9IjFENDUxIi8+PC9nPjxnIHRyYW5zZm9ybT0idHJhbnNsYXRlKDUyMCwwKSIgZGF0YS1tbWwtbm9kZT0ibWkiPjxwYXRoIGQ9Ik01MiAyODlRNTkgMzMxIDEwNiAzODZUMjIyIDQ0MlEyNTcgNDQyIDI4NiA0MjRUMzI5IDM3OVEzNzEgNDQyIDQzMCA0NDJRNDY3IDQ0MiA0OTQgNDIwVDUyMiAzNjFRNTIyIDMzMiA1MDggMzE0VDQ4MSAyOTJUNDU4IDI4OFE0MzkgMjg4IDQyNyAyOTlUNDE1IDMyOFE0MTUgMzc0IDQ2NSAzOTFRNDU0IDQwNCA0MjUgNDA0UTQxMiA0MDQgNDA2IDQwMlEzNjggMzg2IDM1MCAzMzZRMjkwIDExNSAyOTAgNzhRMjkwIDUwIDMwNiAzOFQzNDEgMjZRMzc4IDI2IDQxNCA1OVQ0NjMgMTQwUTQ2NiAxNTAgNDY5IDE1MVQ0ODUgMTUzSDQ4OVE1MDQgMTUzIDUwNCAxNDVRNTA0IDE0NCA1MDIgMTM0UTQ4NiA3NyA0NDAgMzNUMzMzIC0xMVEyNjMgLTExIDIyNyA1MlExODYgLTEwIDEzMyAtMTBIMTI3UTc4IC0xMCA1NyAxNlQzNSA3MVEzNSAxMDMgNTQgMTIzVDk5IDE0M1ExNDIgMTQzIDE0MiAxMDFRMTQyIDgxIDEzMCA2NlQxMDcgNDZUOTQgNDFMOTEgNDBROTEgMzkgOTcgMzZUMTEzIDI5VDEzMiAyNlExNjggMjYgMTk0IDcxUTIwMyA4NyAyMTcgMTM5VDI0NSAyNDdUMjYxIDMxM1EyNjYgMzQwIDI2NiAzNTJRMjY2IDM4MCAyNTEgMzkyVDIxNyA0MDRRMTc3IDQwNCAxNDIgMzcyVDkzIDI5MFE5MSAyODEgODggMjgwVDcyIDI3OEg1OFE1MiAyODQgNTIgMjg5WiIgZGF0YS1jPSIxRDQ2NSIvPjwvZz48L2c+PHJlY3QgeT0iMjIwIiB4PSIxMjAiIGhlaWdodD0iNjAiIHdpZHRoPSIxMjkyIi8+PC9nPjxnIHRyYW5zZm9ybT0idHJhbnNsYXRlKDEwNzI5LjMsMCkiIGRhdGEtbW1sLW5vZGU9Im1pIj48cGF0aCBkPSJNMTczIDM4MFExNzMgNDA1IDE1NCA0MDVRMTMwIDQwNSAxMDQgMzc2VDYxIDI4N1E2MCAyODYgNTkgMjg0VDU4IDI4MVQ1NiAyNzlUNTMgMjc4VDQ5IDI3OFQ0MSAyNzhIMjdRMjEgMjg0IDIxIDI4N1EyMSAyOTQgMjkgMzE2VDUzIDM2OFQ5NyA0MTlUMTYwIDQ0MVEyMDIgNDQxIDIyNSA0MTdUMjQ5IDM2MVEyNDkgMzQ0IDI0NiAzMzVRMjQ2IDMyOSAyMzEgMjkxVDIwMCAyMDJUMTgyIDExM1ExODIgODYgMTg3IDY5UTIwMCAyNiAyNTAgMjZRMjg3IDI2IDMxOSA2MFQzNjkgMTM5VDM5OCAyMjJUNDA5IDI3N1E0MDkgMzAwIDQwMSAzMTdUMzgzIDM0M1QzNjUgMzYxVDM1NyAzODNRMzU3IDQwNSAzNzYgNDI0VDQxNyA0NDNRNDM2IDQ0MyA0NTEgNDI1VDQ2NyAzNjdRNDY3IDM0MCA0NTUgMjg0VDQxOCAxNTlUMzQ3IDQwVDI0MSAtMTFRMTc3IC0xMSAxMzkgMjJRMTAyIDU0IDEwMiAxMTdRMTAyIDE0OCAxMTAgMTgxVDE1MSAyOThRMTczIDM2MiAxNzMgMzgwWiIgZGF0YS1jPSIxRDQ2MyIvPjwvZz48ZyB0cmFuc2Zvcm09InRyYW5zbGF0ZSgxMTIxNC4zLDApIiBkYXRhLW1tbC1ub2RlPSJtc3R5bGUiPjxnIGRhdGEtbW1sLW5vZGU9Im1zcGFjZSIvPjwvZz48ZyB0cmFuc2Zvcm09InRyYW5zbGF0ZSgxMTM4MS4zLDApIiBkYXRhLW1tbC1ub2RlPSJtaSI+PHBhdGggZD0iTTM2NiA2ODNRMzY3IDY4MyA0MzggNjg4VDUxMSA2OTRRNTIzIDY5NCA1MjMgNjg2UTUyMyA2NzkgNDUwIDM4NFQzNzUgODNUMzc0IDY4UTM3NCAyNiA0MDIgMjZRNDExIDI3IDQyMiAzNVE0NDMgNTUgNDYzIDEzMVE0NjkgMTUxIDQ3MyAxNTJRNDc1IDE1MyA0ODMgMTUzSDQ4N0g0OTFRNTA2IDE1MyA1MDYgMTQ1UTUwNiAxNDAgNTAzIDEyOVE0OTAgNzkgNDczIDQ4VDQ0NSA4VDQxNyAtOFE0MDkgLTEwIDM5MyAtMTBRMzU5IC0xMCAzMzYgNVQzMDYgMzZMMzAwIDUxUTI5OSA1MiAyOTYgNTBRMjk0IDQ4IDI5MiA0NlEyMzMgLTEwIDE3MiAtMTBRMTE3IC0xMCA3NSAzMFQzMyAxNTdRMzMgMjA1IDUzIDI1NVQxMDEgMzQxUTE0OCAzOTggMTk1IDQyMFQyODAgNDQyUTMzNiA0NDIgMzY0IDQwMFEzNjkgMzk0IDM2OSAzOTZRMzcwIDQwMCAzOTYgNTA1VDQyNCA2MTZRNDI0IDYyOSA0MTcgNjMyVDM3OCA2MzdIMzU3UTM1MSA2NDMgMzUxIDY0NVQzNTMgNjY0UTM1OCA2ODMgMzY2IDY4M1pNMzUyIDMyNlEzMjkgNDA1IDI3NyA0MDVRMjQyIDQwNSAyMTAgMzc0VDE2MCAyOTNRMTMxIDIxNCAxMTkgMTI5UTExOSAxMjYgMTE5IDExOFQxMTggMTA2UTExOCA2MSAxMzYgNDRUMTc5IDI2UTIzMyAyNiAyOTAgOThMMjk4IDEwOUwzNTIgMzI2WiIgZGF0YS1jPSIxRDQ1MSIvPjwvZz48ZyB0cmFuc2Zvcm09InRyYW5zbGF0ZSgxMTkwMS4zLDApIiBkYXRhLW1tbC1ub2RlPSJtaSI+PHBhdGggZD0iTTUyIDI4OVE1OSAzMzEgMTA2IDM4NlQyMjIgNDQyUTI1NyA0NDIgMjg2IDQyNFQzMjkgMzc5UTM3MSA0NDIgNDMwIDQ0MlE0NjcgNDQyIDQ5NCA0MjBUNTIyIDM2MVE1MjIgMzMyIDUwOCAzMTRUNDgxIDI5MlQ0NTggMjg4UTQzOSAyODggNDI3IDI5OVQ0MTUgMzI4UTQxNSAzNzQgNDY1IDM5MVE0NTQgNDA0IDQyNSA0MDRRNDEyIDQwNCA0MDYgNDAyUTM2OCAzODYgMzUwIDMzNlEyOTAgMTE1IDI5MCA3OFEyOTAgNTAgMzA2IDM4VDM0MSAyNlEzNzggMjYgNDE0IDU5VDQ2MyAxNDBRNDY2IDE1MCA0NjkgMTUxVDQ4NSAxNTNINDg5UTUwNCAxNTMgNTA0IDE0NVE1MDQgMTQ0IDUwMiAxMzRRNDg2IDc3IDQ0MCAzM1QzMzMgLTExUTI2MyAtMTEgMjI3IDUyUTE4NiAtMTAgMTMzIC0xMEgxMjdRNzggLTEwIDU3IDE2VDM1IDcxUTM1IDEwMyA1NCAxMjNUOTkgMTQzUTE0MiAxNDMgMTQyIDEwMVExNDIgODEgMTMwIDY2VDEwNyA0NlQ5NCA0MUw5MSA0MFE5MSAzOSA5NyAzNlQxMTMgMjlUMTMyIDI2UTE2OCAyNiAxOTQgNzFRMjAzIDg3IDIxNyAxMzlUMjQ1IDI0N1QyNjEgMzEzUTI2NiAzNDAgMjY2IDM1MlEyNjYgMzgwIDI1MSAzOTJUMjE3IDQwNFExNzcgNDA0IDE0MiAzNzJUOTMgMjkwUTkxIDI4MSA4OCAyODBUNzIgMjc4SDU4UTUyIDI4NCA1MiAyODlaIiBkYXRhLWM9IjFENDY1Ii8+PC9nPjwvZz48L2c+PC9zdmc+" parent="1" vertex="1">
                    <mxGeometry x="500" y="510" width="224.01" height="40" as="geometry"/>
                </mxCell>
                <mxCell id="19" value="" style="shape=image;verticalLabelPosition=bottom;verticalAlign=top;imageAspect=0;aspect=fixed;image=data:image/svg+xml,PHN2ZyB4bWxucz0iaHR0cDovL3d3dy53My5vcmcvMjAwMC9zdmciIHZpZXdCb3g9IjAgLTEzNzAgMTI0NzMuMyAyMjMxIiByb2xlPSJpbWciIGhlaWdodD0iNS4wNDhleCIgd2lkdGg9IjI4LjIyZXgiIHN0eWxlPSJ2ZXJ0aWNhbC1hbGlnbjogLTEuOTQ4ZXg7Ij4KPHN0eWxlPgogICogeyBmaWxsOiAjYTg1NWY3OyB9CiAgQG1lZGlhIChwcmVmZXJzLWNvbG9yLXNjaGVtZTogZGFyaykgewogICAgKiB7IGZpbGw6ICNhODU1Zjc7IH0KICB9Cjwvc3R5bGU+PGcgdHJhbnNmb3JtPSJzY2FsZSgxLC0xKSIgc3Ryb2tlLXdpZHRoPSIwIiBmaWxsPSJjdXJyZW50Q29sb3IiIHN0cm9rZT0iY3VycmVudENvbG9yIj48ZyBkYXRhLW1tbC1ub2RlPSJtYXRoIj48ZyB0cmFuc2Zvcm09InRyYW5zbGF0ZSgwIDEpIiBkYXRhLW1tbC1ub2RlPSJtbyI+PHBhdGggZD0iTTExNCAtNzk4UTEzMiAtODI0IDE2NSAtODI0SDE2N1ExOTUgLTgyNCAyMjMgLTc2NFQyNzUgLTYwMFQzMjAgLTM5MVQzNjIgLTE2NFEzNjUgLTE0MyAzNjcgLTEzM1E0MzkgMjkyIDUyMyA2NTVUNjQ1IDExMjdRNjUxIDExNDUgNjU1IDExNTdUNjcyIDEyMDFUNjk5IDEyNTdUNzMzIDEzMDZUNzc3IDEzNDZUODI4IDEzNjBRODg0IDEzNjAgOTEyIDEzMjVUOTQ0IDEyNDVROTQ0IDEyMjAgOTMyIDEyMDVUOTA5IDExODZUODg3IDExODNRODY2IDExODMgODQ5IDExOThUODMyIDEyMzlRODMyIDEyODcgODg1IDEyOTZMODgyIDEzMDBRODc5IDEzMDMgODc0IDEzMDdUODY2IDEzMTNRODUxIDEzMjMgODMzIDEzMjNRODE5IDEzMjMgODA3IDEzMTFUNzc1IDEyNTVUNzM2IDExMzlUNjg5IDkzNlQ2MzMgNjI4UTU3NCAyOTMgNTEwIC01VDQxMCAtNDM3VDM1NSAtNjI5UTI3OCAtODYyIDE2NSAtODYyUTEyNSAtODYyIDkyIC04MzFUNTUgLTc0NlE1NSAtNzExIDc0IC02OThUMTEyIC02ODVRMTMzIC02ODUgMTUwIC03MDBUMTY3IC03NDFRMTY3IC03ODkgMTE0IC03OThaIiBkYXRhLWM9IjIyMkIiLz48L2c+PGcgdHJhbnNmb3JtPSJ0cmFuc2xhdGUoMTExMC43LDApIiBkYXRhLW1tbC1ub2RlPSJtaSI+PHBhdGggZD0iTTIxIDI4N1EyMSAyOTUgMzAgMzE4VDU1IDM3MFQ5OSA0MjBUMTU4IDQ0MlEyMDQgNDQyIDIyNyA0MTdUMjUwIDM1OFEyNTAgMzQwIDIxNiAyNDZUMTgyIDEwNVExODIgNjIgMTk2IDQ1VDIzOCAyN1QyOTEgNDRUMzI4IDc4TDMzOSA5NVEzNDEgOTkgMzc3IDI0N1E0MDcgMzY3IDQxMyAzODdUNDI3IDQxNlE0NDQgNDMxIDQ2MyA0MzFRNDgwIDQzMSA0ODggNDIxVDQ5NiA0MDJMNDIwIDg0UTQxOSA3OSA0MTkgNjhRNDE5IDQzIDQyNiAzNVQ0NDcgMjZRNDY5IDI5IDQ4MiA1N1Q1MTIgMTQ1UTUxNCAxNTMgNTMyIDE1M1E1NTEgMTUzIDU1MSAxNDRRNTUwIDEzOSA1NDkgMTMwVDU0MCA5OFQ1MjMgNTVUNDk4IDE3VDQ2MiAtOFE0NTQgLTEwIDQzOCAtMTBRMzcyIC0xMCAzNDcgNDZRMzQ1IDQ1IDMzNiAzNlQzMTggMjFUMjk2IDZUMjY3IC02VDIzMyAtMTFRMTg5IC0xMSAxNTUgN1ExMDMgMzggMTAzIDExM1ExMDMgMTcwIDEzOCAyNjJUMTczIDM3OVExNzMgMzgwIDE3MyAzODFRMTczIDM5MCAxNzMgMzkzVDE2OSA0MDBUMTU4IDQwNEgxNTRRMTMxIDQwNCAxMTIgMzg1VDgyIDM0NFQ2NSAzMDJUNTcgMjgwUTU1IDI3OCA0MSAyNzhIMjdRMjEgMjg0IDIxIDI4N1oiIGRhdGEtYz0iMUQ0NjIiLz48L2c+PGcgdHJhbnNmb3JtPSJ0cmFuc2xhdGUoMTY4Mi43LDApIiBkYXRhLW1tbC1ub2RlPSJtZnJhYyI+PGcgdHJhbnNmb3JtPSJ0cmFuc2xhdGUoMjYzLjUsNjc2KSIgZGF0YS1tbWwtbm9kZT0ibXJvdyI+PGcgZGF0YS1tbWwtbm9kZT0ibWkiPjxwYXRoIGQ9Ik0zNjYgNjgzUTM2NyA2ODMgNDM4IDY4OFQ1MTEgNjk0UTUyMyA2OTQgNTIzIDY4NlE1MjMgNjc5IDQ1MCAzODRUMzc1IDgzVDM3NCA2OFEzNzQgMjYgNDAyIDI2UTQxMSAyNyA0MjIgMzVRNDQzIDU1IDQ2MyAxMzFRNDY5IDE1MSA0NzMgMTUyUTQ3NSAxNTMgNDgzIDE1M0g0ODdINDkxUTUwNiAxNTMgNTA2IDE0NVE1MDYgMTQwIDUwMyAxMjlRNDkwIDc5IDQ3MyA0OFQ0NDUgOFQ0MTcgLThRNDA5IC0xMCAzOTMgLTEwUTM1OSAtMTAgMzM2IDVUMzA2IDM2TDMwMCA1MVEyOTkgNTIgMjk2IDUwUTI5NCA0OCAyOTIgNDZRMjMzIC0xMCAxNzIgLTEwUTExNyAtMTAgNzUgMzBUMzMgMTU3UTMzIDIwNSA1MyAyNTVUMTAxIDM0MVExNDggMzk4IDE5NSA0MjBUMjgwIDQ0MlEzMzYgNDQyIDM2NCA0MDBRMzY5IDM5NCAzNjkgMzk2UTM3MCA0MDAgMzk2IDUwNVQ0MjQgNjE2UTQyNCA2MjkgNDE3IDYzMlQzNzggNjM3SDM1N1EzNTEgNjQzIDM1MSA2NDVUMzUzIDY2NFEzNTggNjgzIDM2NiA2ODNaTTM1MiAzMjZRMzI5IDQwNSAyNzcgNDA1UTI0MiA0MDUgMjEwIDM3NFQxNjAgMjkzUTEzMSAyMTQgMTE5IDEyOVExMTkgMTI2IDExOSAxMThUMTE4IDEwNlExMTggNjEgMTM2IDQ0VDE3OSAyNlEyMzMgMjYgMjkwIDk4TDI5OCAxMDlMMzUyIDMyNloiIGRhdGEtYz0iMUQ0NTEiLz48L2c+PGcgdHJhbnNmb3JtPSJ0cmFuc2xhdGUoNTIwLDApIiBkYXRhLW1tbC1ub2RlPSJtaSI+PHBhdGggZD0iTTE3MyAzODBRMTczIDQwNSAxNTQgNDA1UTEzMCA0MDUgMTA0IDM3NlQ2MSAyODdRNjAgMjg2IDU5IDI4NFQ1OCAyODFUNTYgMjc5VDUzIDI3OFQ0OSAyNzhUNDEgMjc4SDI3UTIxIDI4NCAyMSAyODdRMjEgMjk0IDI5IDMxNlQ1MyAzNjhUOTcgNDE5VDE2MCA0NDFRMjAyIDQ0MSAyMjUgNDE3VDI0OSAzNjFRMjQ5IDM0NCAyNDYgMzM1UTI0NiAzMjkgMjMxIDI5MVQyMDAgMjAyVDE4MiAxMTNRMTgyIDg2IDE4NyA2OVEyMDAgMjYgMjUwIDI2UTI4NyAyNiAzMTkgNjBUMzY5IDEzOVQzOTggMjIyVDQwOSAyNzdRNDA5IDMwMCA0MDEgMzE3VDM4MyAzNDNUMzY1IDM2MVQzNTcgMzgzUTM1NyA0MDUgMzc2IDQyNFQ0MTcgNDQzUTQzNiA0NDMgNDUxIDQyNVQ0NjcgMzY3UTQ2NyAzNDAgNDU1IDI4NFQ0MTggMTU5VDM0NyA0MFQyNDEgLTExUTE3NyAtMTEgMTM5IDIyUTEwMiA1NCAxMDIgMTE3UTEwMiAxNDggMTEwIDE4MVQxNTEgMjk4UTE3MyAzNjIgMTczIDM4MFoiIGRhdGEtYz0iMUQ0NjMiLz48L2c+PC9nPjxnIHRyYW5zZm9ybT0idHJhbnNsYXRlKDIyMCwtNjg2KSIgZGF0YS1tbWwtbm9kZT0ibXJvdyI+PGcgZGF0YS1tbWwtbm9kZT0ibWkiPjxwYXRoIGQ9Ik0zNjYgNjgzUTM2NyA2ODMgNDM4IDY4OFQ1MTEgNjk0UTUyMyA2OTQgNTIzIDY4NlE1MjMgNjc5IDQ1MCAzODRUMzc1IDgzVDM3NCA2OFEzNzQgMjYgNDAyIDI2UTQxMSAyNyA0MjIgMzVRNDQzIDU1IDQ2MyAxMzFRNDY5IDE1MSA0NzMgMTUyUTQ3NSAxNTMgNDgzIDE1M0g0ODdINDkxUTUwNiAxNTMgNTA2IDE0NVE1MDYgMTQwIDUwMyAxMjlRNDkwIDc5IDQ3MyA0OFQ0NDUgOFQ0MTcgLThRNDA5IC0xMCAzOTMgLTEwUTM1OSAtMTAgMzM2IDVUMzA2IDM2TDMwMCA1MVEyOTkgNTIgMjk2IDUwUTI5NCA0OCAyOTIgNDZRMjMzIC0xMCAxNzIgLTEwUTExNyAtMTAgNzUgMzBUMzMgMTU3UTMzIDIwNSA1MyAyNTVUMTAxIDM0MVExNDggMzk4IDE5NSA0MjBUMjgwIDQ0MlEzMzYgNDQyIDM2NCA0MDBRMzY5IDM5NCAzNjkgMzk2UTM3MCA0MDAgMzk2IDUwNVQ0MjQgNjE2UTQyNCA2MjkgNDE3IDYzMlQzNzggNjM3SDM1N1EzNTEgNjQzIDM1MSA2NDVUMzUzIDY2NFEzNTggNjgzIDM2NiA2ODNaTTM1MiAzMjZRMzI5IDQwNSAyNzcgNDA1UTI0MiA0MDUgMjEwIDM3NFQxNjAgMjkzUTEzMSAyMTQgMTE5IDEyOVExMTkgMTI2IDExOSAxMThUMTE4IDEwNlExMTggNjEgMTM2IDQ0VDE3OSAyNlEyMzMgMjYgMjkwIDk4TDI5OCAxMDlMMzUyIDMyNloiIGRhdGEtYz0iMUQ0NTEiLz48L2c+PGcgdHJhbnNmb3JtPSJ0cmFuc2xhdGUoNTIwLDApIiBkYXRhLW1tbC1ub2RlPSJtaSI+PHBhdGggZD0iTTUyIDI4OVE1OSAzMzEgMTA2IDM4NlQyMjIgNDQyUTI1NyA0NDIgMjg2IDQyNFQzMjkgMzc5UTM3MSA0NDIgNDMwIDQ0MlE0NjcgNDQyIDQ5NCA0MjBUNTIyIDM2MVE1MjIgMzMyIDUwOCAzMTRUNDgxIDI5MlQ0NTggMjg4UTQzOSAyODggNDI3IDI5OVQ0MTUgMzI4UTQxNSAzNzQgNDY1IDM5MVE0NTQgNDA0IDQyNSA0MDRRNDEyIDQwNCA0MDYgNDAyUTM2OCAzODYgMzUwIDMzNlEyOTAgMTE1IDI5MCA3OFEyOTAgNTAgMzA2IDM4VDM0MSAyNlEzNzggMjYgNDE0IDU5VDQ2MyAxNDBRNDY2IDE1MCA0NjkgMTUxVDQ4NSAxNTNINDg5UTUwNCAxNTMgNTA0IDE0NVE1MDQgMTQ0IDUwMiAxMzRRNDg2IDc3IDQ0MCAzM1QzMzMgLTExUTI2MyAtMTEgMjI3IDUyUTE4NiAtMTAgMTMzIC0xMEgxMjdRNzggLTEwIDU3IDE2VDM1IDcxUTM1IDEwMyA1NCAxMjNUOTkgMTQzUTE0MiAxNDMgMTQyIDEwMVExNDIgODEgMTMwIDY2VDEwNyA0NlQ5NCA0MUw5MSA0MFE5MSAzOSA5NyAzNlQxMTMgMjlUMTMyIDI2UTE2OCAyNiAxOTQgNzFRMjAzIDg3IDIxNyAxMzlUMjQ1IDI0N1QyNjEgMzEzUTI2NiAzNDAgMjY2IDM1MlEyNjYgMzgwIDI1MSAzOTJUMjE3IDQwNFExNzcgNDA0IDE0MiAzNzJUOTMgMjkwUTkxIDI4MSA4OCAyODBUNzIgMjc4SDU4UTUyIDI4NCA1MiAyODlaIiBkYXRhLWM9IjFENDY1Ii8+PC9nPjwvZz48cmVjdCB5PSIyMjAiIHg9IjEyMCIgaGVpZ2h0PSI2MCIgd2lkdGg9IjEyOTIiLz48L2c+PGcgdHJhbnNmb3JtPSJ0cmFuc2xhdGUoMzIxNC43LDApIiBkYXRhLW1tbC1ub2RlPSJtc3R5bGUiPjxnIGRhdGEtbW1sLW5vZGU9Im1zcGFjZSIvPjwvZz48ZyB0cmFuc2Zvcm09InRyYW5zbGF0ZSgzMzgxLjcsMCkiIGRhdGEtbW1sLW5vZGU9Im1pIj48cGF0aCBkPSJNMzY2IDY4M1EzNjcgNjgzIDQzOCA2ODhUNTExIDY5NFE1MjMgNjk0IDUyMyA2ODZRNTIzIDY3OSA0NTAgMzg0VDM3NSA4M1QzNzQgNjhRMzc0IDI2IDQwMiAyNlE0MTEgMjcgNDIyIDM1UTQ0MyA1NSA0NjMgMTMxUTQ2OSAxNTEgNDczIDE1MlE0NzUgMTUzIDQ4MyAxNTNINDg3SDQ5MVE1MDYgMTUzIDUwNiAxNDVRNTA2IDE0MCA1MDMgMTI5UTQ5MCA3OSA0NzMgNDhUNDQ1IDhUNDE3IC04UTQwOSAtMTAgMzkzIC0xMFEzNTkgLTEwIDMzNiA1VDMwNiAzNkwzMDAgNTFRMjk5IDUyIDI5NiA1MFEyOTQgNDggMjkyIDQ2UTIzMyAtMTAgMTcyIC0xMFExMTcgLTEwIDc1IDMwVDMzIDE1N1EzMyAyMDUgNTMgMjU1VDEwMSAzNDFRMTQ4IDM5OCAxOTUgNDIwVDI4MCA0NDJRMzM2IDQ0MiAzNjQgNDAwUTM2OSAzOTQgMzY5IDM5NlEzNzAgNDAwIDM5NiA1MDVUNDI0IDYxNlE0MjQgNjI5IDQxNyA2MzJUMzc4IDYzN0gzNTdRMzUxIDY0MyAzNTEgNjQ1VDM1MyA2NjRRMzU4IDY4MyAzNjYgNjgzWk0zNTIgMzI2UTMyOSA0MDUgMjc3IDQwNVEyNDIgNDA1IDIxMCAzNzRUMTYwIDI5M1ExMzEgMjE0IDExOSAxMjlRMTE5IDEyNiAxMTkgMTE4VDExOCAxMDZRMTE4IDYxIDEzNiA0NFQxNzkgMjZRMjMzIDI2IDI5MCA5OEwyOTggMTA5TDM1MiAzMjZaIiBkYXRhLWM9IjFENDUxIi8+PC9nPjxnIHRyYW5zZm9ybT0idHJhbnNsYXRlKDM5MDEuNywwKSIgZGF0YS1tbWwtbm9kZT0ibWkiPjxwYXRoIGQ9Ik01MiAyODlRNTkgMzMxIDEwNiAzODZUMjIyIDQ0MlEyNTcgNDQyIDI4NiA0MjRUMzI5IDM3OVEzNzEgNDQyIDQzMCA0NDJRNDY3IDQ0MiA0OTQgNDIwVDUyMiAzNjFRNTIyIDMzMiA1MDggMzE0VDQ4MSAyOTJUNDU4IDI4OFE0MzkgMjg4IDQyNyAyOTlUNDE1IDMyOFE0MTUgMzc0IDQ2NSAzOTFRNDU0IDQwNCA0MjUgNDA0UTQxMiA0MDQgNDA2IDQwMlEzNjggMzg2IDM1MCAzMzZRMjkwIDExNSAyOTAgNzhRMjkwIDUwIDMwNiAzOFQzNDEgMjZRMzc4IDI2IDQxNCA1OVQ0NjMgMTQwUTQ2NiAxNTAgNDY5IDE1MVQ0ODUgMTUzSDQ4OVE1MDQgMTUzIDUwNCAxNDVRNTA0IDE0NCA1MDIgMTM0UTQ4NiA3NyA0NDAgMzNUMzMzIC0xMVEyNjMgLTExIDIyNyA1MlExODYgLTEwIDEzMyAtMTBIMTI3UTc4IC0xMCA1NyAxNlQzNSA3MVEzNSAxMDMgNTQgMTIzVDk5IDE0M1ExNDIgMTQzIDE0MiAxMDFRMTQyIDgxIDEzMCA2NlQxMDcgNDZUOTQgNDFMOTEgNDBROTEgMzkgOTcgMzZUMTEzIDI5VDEzMiAyNlExNjggMjYgMTk0IDcxUTIwMyA4NyAyMTcgMTM5VDI0NSAyNDdUMjYxIDMxM1EyNjYgMzQwIDI2NiAzNTJRMjY2IDM4MCAyNTEgMzkyVDIxNyA0MDRRMTc3IDQwNCAxNDIgMzcyVDkzIDI5MFE5MSAyODEgODggMjgwVDcyIDI3OEg1OFE1MiAyODQgNTIgMjg5WiIgZGF0YS1jPSIxRDQ2NSIvPjwvZz48ZyB0cmFuc2Zvcm09InRyYW5zbGF0ZSg0NzUxLjQsMCkiIGRhdGEtbW1sLW5vZGU9Im1vIj48cGF0aCBkPSJNNTYgMzQ3UTU2IDM2MCA3MCAzNjdINzA3UTcyMiAzNTkgNzIyIDM0N1E3MjIgMzM2IDcwOCAzMjhMMzkwIDMyN0g3MlE1NiAzMzIgNTYgMzQ3Wk01NiAxNTNRNTYgMTY4IDcyIDE3M0g3MDhRNzIyIDE2MyA3MjIgMTUzUTcyMiAxNDAgNzA3IDEzM0g3MFE1NiAxNDAgNTYgMTUzWiIgZGF0YS1jPSIzRCIvPjwvZz48ZyB0cmFuc2Zvcm09InRyYW5zbGF0ZSg1ODA3LjIsMCkiIGRhdGEtbW1sLW5vZGU9Im1pIj48cGF0aCBkPSJNMjEgMjg3UTIxIDI5NSAzMCAzMThUNTUgMzcwVDk5IDQyMFQxNTggNDQyUTIwNCA0NDIgMjI3IDQxN1QyNTAgMzU4UTI1MCAzNDAgMjE2IDI0NlQxODIgMTA1UTE4MiA2MiAxOTYgNDVUMjM4IDI3VDI5MSA0NFQzMjggNzhMMzM5IDk1UTM0MSA5OSAzNzcgMjQ3UTQwNyAzNjcgNDEzIDM4N1Q0MjcgNDE2UTQ0NCA0MzEgNDYzIDQzMVE0ODAgNDMxIDQ4OCA0MjFUNDk2IDQwMkw0MjAgODRRNDE5IDc5IDQxOSA2OFE0MTkgNDMgNDI2IDM1VDQ0NyAyNlE0NjkgMjkgNDgyIDU3VDUxMiAxNDVRNTE0IDE1MyA1MzIgMTUzUTU1MSAxNTMgNTUxIDE0NFE1NTAgMTM5IDU0OSAxMzBUNTQwIDk4VDUyMyA1NVQ0OTggMTdUNDYyIC04UTQ1NCAtMTAgNDM4IC0xMFEzNzIgLTEwIDM0NyA0NlEzNDUgNDUgMzM2IDM2VDMxOCAyMVQyOTYgNlQyNjcgLTZUMjMzIC0xMVExODkgLTExIDE1NSA3UTEwMyAzOCAxMDMgMTEzUTEwMyAxNzAgMTM4IDI2MlQxNzMgMzc5UTE3MyAzODAgMTczIDM4MVExNzMgMzkwIDE3MyAzOTNUMTY5IDQwMFQxNTggNDA0SDE1NFExMzEgNDA0IDExMiAzODVUODIgMzQ0VDY1IDMwMlQ1NyAyODBRNTUgMjc4IDQxIDI3OEgyN1EyMSAyODQgMjEgMjg3WiIgZGF0YS1jPSIxRDQ2MiIvPjwvZz48ZyB0cmFuc2Zvcm09InRyYW5zbGF0ZSg2Mzc5LjIsMCkiIGRhdGEtbW1sLW5vZGU9Im1pIj48cGF0aCBkPSJNMTczIDM4MFExNzMgNDA1IDE1NCA0MDVRMTMwIDQwNSAxMDQgMzc2VDYxIDI4N1E2MCAyODYgNTkgMjg0VDU4IDI4MVQ1NiAyNzlUNTMgMjc4VDQ5IDI3OFQ0MSAyNzhIMjdRMjEgMjg0IDIxIDI4N1EyMSAyOTQgMjkgMzE2VDUzIDM2OFQ5NyA0MTlUMTYwIDQ0MVEyMDIgNDQxIDIyNSA0MTdUMjQ5IDM2MVEyNDkgMzQ0IDI0NiAzMzVRMjQ2IDMyOSAyMzEgMjkxVDIwMCAyMDJUMTgyIDExM1ExODIgODYgMTg3IDY5UTIwMCAyNiAyNTAgMjZRMjg3IDI2IDMxOSA2MFQzNjkgMTM5VDM5OCAyMjJUNDA5IDI3N1E0MDkgMzAwIDQwMSAzMTdUMzgzIDM0M1QzNjUgMzYxVDM1NyAzODNRMzU3IDQwNSAzNzYgNDI0VDQxNyA0NDNRNDM2IDQ0MyA0NTEgNDI1VDQ2NyAzNjdRNDY3IDM0MCA0NTUgMjg0VDQxOCAxNTlUMzQ3IDQwVDI0MSAtMTFRMTc3IC0xMSAxMzkgMjJRMTAyIDU0IDEwMiAxMTdRMTAyIDE0OCAxMTAgMTgxVDE1MSAyOThRMTczIDM2MiAxNzMgMzgwWiIgZGF0YS1jPSIxRDQ2MyIvPjwvZz48ZyB0cmFuc2Zvcm09InRyYW5zbGF0ZSg3MDg2LjQsMCkiIGRhdGEtbW1sLW5vZGU9Im1vIj48cGF0aCBkPSJNODQgMjM3VDg0IDI1MFQ5OCAyNzBINjc5UTY5NCAyNjIgNjk0IDI1MFQ2NzkgMjMwSDk4UTg0IDIzNyA4NCAyNTBaIiBkYXRhLWM9IjIyMTIiLz48L2c+PGcgdHJhbnNmb3JtPSJ0cmFuc2xhdGUoODA4Ni43LDApIHRyYW5zbGF0ZSgwIDEpIiBkYXRhLW1tbC1ub2RlPSJtbyI+PHBhdGggZD0iTTExNCAtNzk4UTEzMiAtODI0IDE2NSAtODI0SDE2N1ExOTUgLTgyNCAyMjMgLTc2NFQyNzUgLTYwMFQzMjAgLTM5MVQzNjIgLTE2NFEzNjUgLTE0MyAzNjcgLTEzM1E0MzkgMjkyIDUyMyA2NTVUNjQ1IDExMjdRNjUxIDExNDUgNjU1IDExNTdUNjcyIDEyMDFUNjk5IDEyNTdUNzMzIDEzMDZUNzc3IDEzNDZUODI4IDEzNjBRODg0IDEzNjAgOTEyIDEzMjVUOTQ0IDEyNDVROTQ0IDEyMjAgOTMyIDEyMDVUOTA5IDExODZUODg3IDExODNRODY2IDExODMgODQ5IDExOThUODMyIDEyMzlRODMyIDEyODcgODg1IDEyOTZMODgyIDEzMDBRODc5IDEzMDMgODc0IDEzMDdUODY2IDEzMTNRODUxIDEzMjMgODMzIDEzMjNRODE5IDEzMjMgODA3IDEzMTFUNzc1IDEyNTVUNzM2IDExMzlUNjg5IDkzNlQ2MzMgNjI4UTU3NCAyOTMgNTEwIC01VDQxMCAtNDM3VDM1NSAtNjI5UTI3OCAtODYyIDE2NSAtODYyUTEyNSAtODYyIDkyIC04MzFUNTUgLTc0NlE1NSAtNzExIDc0IC02OThUMTEyIC02ODVRMTMzIC02ODUgMTUwIC03MDBUMTY3IC03NDFRMTY3IC03ODkgMTE0IC03OThaIiBkYXRhLWM9IjIyMkIiLz48L2c+PGcgdHJhbnNmb3JtPSJ0cmFuc2xhdGUoOTE5Ny4zLDApIiBkYXRhLW1tbC1ub2RlPSJtZnJhYyI+PGcgdHJhbnNmb3JtPSJ0cmFuc2xhdGUoMjIwLDY3NikiIGRhdGEtbW1sLW5vZGU9Im1yb3ciPjxnIGRhdGEtbW1sLW5vZGU9Im1pIj48cGF0aCBkPSJNMzY2IDY4M1EzNjcgNjgzIDQzOCA2ODhUNTExIDY5NFE1MjMgNjk0IDUyMyA2ODZRNTIzIDY3OSA0NTAgMzg0VDM3NSA4M1QzNzQgNjhRMzc0IDI2IDQwMiAyNlE0MTEgMjcgNDIyIDM1UTQ0MyA1NSA0NjMgMTMxUTQ2OSAxNTEgNDczIDE1MlE0NzUgMTUzIDQ4MyAxNTNINDg3SDQ5MVE1MDYgMTUzIDUwNiAxNDVRNTA2IDE0MCA1MDMgMTI5UTQ5MCA3OSA0NzMgNDhUNDQ1IDhUNDE3IC04UTQwOSAtMTAgMzkzIC0xMFEzNTkgLTEwIDMzNiA1VDMwNiAzNkwzMDAgNTFRMjk5IDUyIDI5NiA1MFEyOTQgNDggMjkyIDQ2UTIzMyAtMTAgMTcyIC0xMFExMTcgLTEwIDc1IDMwVDMzIDE1N1EzMyAyMDUgNTMgMjU1VDEwMSAzNDFRMTQ4IDM5OCAxOTUgNDIwVDI4MCA0NDJRMzM2IDQ0MiAzNjQgNDAwUTM2OSAzOTQgMzY5IDM5NlEzNzAgNDAwIDM5NiA1MDVUNDI0IDYxNlE0MjQgNjI5IDQxNyA2MzJUMzc4IDYzN0gzNTdRMzUxIDY0MyAzNTEgNjQ1VDM1MyA2NjRRMzU4IDY4MyAzNjYgNjgzWk0zNTIgMzI2UTMyOSA0MDUgMjc3IDQwNVEyNDIgNDA1IDIxMCAzNzRUMTYwIDI5M1ExMzEgMjE0IDExOSAxMjlRMTE5IDEyNiAxMTkgMTE4VDExOCAxMDZRMTE4IDYxIDEzNiA0NFQxNzkgMjZRMjMzIDI2IDI5MCA5OEwyOTggMTA5TDM1MiAzMjZaIiBkYXRhLWM9IjFENDUxIi8+PC9nPjxnIHRyYW5zZm9ybT0idHJhbnNsYXRlKDUyMCwwKSIgZGF0YS1tbWwtbm9kZT0ibWkiPjxwYXRoIGQ9Ik0yMSAyODdRMjEgMjk1IDMwIDMxOFQ1NSAzNzBUOTkgNDIwVDE1OCA0NDJRMjA0IDQ0MiAyMjcgNDE3VDI1MCAzNThRMjUwIDM0MCAyMTYgMjQ2VDE4MiAxMDVRMTgyIDYyIDE5NiA0NVQyMzggMjdUMjkxIDQ0VDMyOCA3OEwzMzkgOTVRMzQxIDk5IDM3NyAyNDdRNDA3IDM2NyA0MTMgMzg3VDQyNyA0MTZRNDQ0IDQzMSA0NjMgNDMxUTQ4MCA0MzEgNDg4IDQyMVQ0OTYgNDAyTDQyMCA4NFE0MTkgNzkgNDE5IDY4UTQxOSA0MyA0MjYgMzVUNDQ3IDI2UTQ2OSAyOSA0ODIgNTdUNTEyIDE0NVE1MTQgMTUzIDUzMiAxNTNRNTUxIDE1MyA1NTEgMTQ0UTU1MCAxMzkgNTQ5IDEzMFQ1NDAgOThUNTIzIDU1VDQ5OCAxN1Q0NjIgLThRNDU0IC0xMCA0MzggLTEwUTM3MiAtMTAgMzQ3IDQ2UTM0NSA0NSAzMzYgMzZUMzE4IDIxVDI5NiA2VDI2NyAtNlQyMzMgLTExUTE4OSAtMTEgMTU1IDdRMTAzIDM4IDEwMyAxMTNRMTAzIDE3MCAxMzggMjYyVDE3MyAzNzlRMTczIDM4MCAxNzMgMzgxUTE3MyAzOTAgMTczIDM5M1QxNjkgNDAwVDE1OCA0MDRIMTU0UTEzMSA0MDQgMTEyIDM4NVQ4MiAzNDRUNjUgMzAyVDU3IDI4MFE1NSAyNzggNDEgMjc4SDI3UTIxIDI4NCAyMSAyODdaIiBkYXRhLWM9IjFENDYyIi8+PC9nPjwvZz48ZyB0cmFuc2Zvcm09InRyYW5zbGF0ZSgyMjAsLTY4NikiIGRhdGEtbW1sLW5vZGU9Im1yb3ciPjxnIGRhdGEtbW1sLW5vZGU9Im1pIj48cGF0aCBkPSJNMzY2IDY4M1EzNjcgNjgzIDQzOCA2ODhUNTExIDY5NFE1MjMgNjk0IDUyMyA2ODZRNTIzIDY3OSA0NTAgMzg0VDM3NSA4M1QzNzQgNjhRMzc0IDI2IDQwMiAyNlE0MTEgMjcgNDIyIDM1UTQ0MyA1NSA0NjMgMTMxUTQ2OSAxNTEgNDczIDE1MlE0NzUgMTUzIDQ4MyAxNTNINDg3SDQ5MVE1MDYgMTUzIDUwNiAxNDVRNTA2IDE0MCA1MDMgMTI5UTQ5MCA3OSA0NzMgNDhUNDQ1IDhUNDE3IC04UTQwOSAtMTAgMzkzIC0xMFEzNTkgLTEwIDMzNiA1VDMwNiAzNkwzMDAgNTFRMjk5IDUyIDI5NiA1MFEyOTQgNDggMjkyIDQ2UTIzMyAtMTAgMTcyIC0xMFExMTcgLTEwIDc1IDMwVDMzIDE1N1EzMyAyMDUgNTMgMjU1VDEwMSAzNDFRMTQ4IDM5OCAxOTUgNDIwVDI4MCA0NDJRMzM2IDQ0MiAzNjQgNDAwUTM2OSAzOTQgMzY5IDM5NlEzNzAgNDAwIDM5NiA1MDVUNDI0IDYxNlE0MjQgNjI5IDQxNyA2MzJUMzc4IDYzN0gzNTdRMzUxIDY0MyAzNTEgNjQ1VDM1MyA2NjRRMzU4IDY4MyAzNjYgNjgzWk0zNTIgMzI2UTMyOSA0MDUgMjc3IDQwNVEyNDIgNDA1IDIxMCAzNzRUMTYwIDI5M1ExMzEgMjE0IDExOSAxMjlRMTE5IDEyNiAxMTkgMTE4VDExOCAxMDZRMTE4IDYxIDEzNiA0NFQxNzkgMjZRMjMzIDI2IDI5MCA5OEwyOTggMTA5TDM1MiAzMjZaIiBkYXRhLWM9IjFENDUxIi8+PC9nPjxnIHRyYW5zZm9ybT0idHJhbnNsYXRlKDUyMCwwKSIgZGF0YS1tbWwtbm9kZT0ibWkiPjxwYXRoIGQ9Ik01MiAyODlRNTkgMzMxIDEwNiAzODZUMjIyIDQ0MlEyNTcgNDQyIDI4NiA0MjRUMzI5IDM3OVEzNzEgNDQyIDQzMCA0NDJRNDY3IDQ0MiA0OTQgNDIwVDUyMiAzNjFRNTIyIDMzMiA1MDggMzE0VDQ4MSAyOTJUNDU4IDI4OFE0MzkgMjg4IDQyNyAyOTlUNDE1IDMyOFE0MTUgMzc0IDQ2NSAzOTFRNDU0IDQwNCA0MjUgNDA0UTQxMiA0MDQgNDA2IDQwMlEzNjggMzg2IDM1MCAzMzZRMjkwIDExNSAyOTAgNzhRMjkwIDUwIDMwNiAzOFQzNDEgMjZRMzc4IDI2IDQxNCA1OVQ0NjMgMTQwUTQ2NiAxNTAgNDY5IDE1MVQ0ODUgMTUzSDQ4OVE1MDQgMTUzIDUwNCAxNDVRNTA0IDE0NCA1MDIgMTM0UTQ4NiA3NyA0NDAgMzNUMzMzIC0xMVEyNjMgLTExIDIyNyA1MlExODYgLTEwIDEzMyAtMTBIMTI3UTc4IC0xMCA1NyAxNlQzNSA3MVEzNSAxMDMgNTQgMTIzVDk5IDE0M1ExNDIgMTQzIDE0MiAxMDFRMTQyIDgxIDEzMCA2NlQxMDcgNDZUOTQgNDFMOTEgNDBROTEgMzkgOTcgMzZUMTEzIDI5VDEzMiAyNlExNjggMjYgMTk0IDcxUTIwMyA4NyAyMTcgMTM5VDI0NSAyNDdUMjYxIDMxM1EyNjYgMzQwIDI2NiAzNTJRMjY2IDM4MCAyNTEgMzkyVDIxNyA0MDRRMTc3IDQwNCAxNDIgMzcyVDkzIDI5MFE5MSAyODEgODggMjgwVDcyIDI3OEg1OFE1MiAyODQgNTIgMjg5WiIgZGF0YS1jPSIxRDQ2NSIvPjwvZz48L2c+PHJlY3QgeT0iMjIwIiB4PSIxMjAiIGhlaWdodD0iNjAiIHdpZHRoPSIxMjkyIi8+PC9nPjxnIHRyYW5zZm9ybT0idHJhbnNsYXRlKDEwNzI5LjMsMCkiIGRhdGEtbW1sLW5vZGU9Im1pIj48cGF0aCBkPSJNMTczIDM4MFExNzMgNDA1IDE1NCA0MDVRMTMwIDQwNSAxMDQgMzc2VDYxIDI4N1E2MCAyODYgNTkgMjg0VDU4IDI4MVQ1NiAyNzlUNTMgMjc4VDQ5IDI3OFQ0MSAyNzhIMjdRMjEgMjg0IDIxIDI4N1EyMSAyOTQgMjkgMzE2VDUzIDM2OFQ5NyA0MTlUMTYwIDQ0MVEyMDIgNDQxIDIyNSA0MTdUMjQ5IDM2MVEyNDkgMzQ0IDI0NiAzMzVRMjQ2IDMyOSAyMzEgMjkxVDIwMCAyMDJUMTgyIDExM1ExODIgODYgMTg3IDY5UTIwMCAyNiAyNTAgMjZRMjg3IDI2IDMxOSA2MFQzNjkgMTM5VDM5OCAyMjJUNDA5IDI3N1E0MDkgMzAwIDQwMSAzMTdUMzgzIDM0M1QzNjUgMzYxVDM1NyAzODNRMzU3IDQwNSAzNzYgNDI0VDQxNyA0NDNRNDM2IDQ0MyA0NTEgNDI1VDQ2NyAzNjdRNDY3IDM0MCA0NTUgMjg0VDQxOCAxNTlUMzQ3IDQwVDI0MSAtMTFRMTc3IC0xMSAxMzkgMjJRMTAyIDU0IDEwMiAxMTdRMTAyIDE0OCAxMTAgMTgxVDE1MSAyOThRMTczIDM2MiAxNzMgMzgwWiIgZGF0YS1jPSIxRDQ2MyIvPjwvZz48ZyB0cmFuc2Zvcm09InRyYW5zbGF0ZSgxMTIxNC4zLDApIiBkYXRhLW1tbC1ub2RlPSJtc3R5bGUiPjxnIGRhdGEtbW1sLW5vZGU9Im1zcGFjZSIvPjwvZz48ZyB0cmFuc2Zvcm09InRyYW5zbGF0ZSgxMTM4MS4zLDApIiBkYXRhLW1tbC1ub2RlPSJtaSI+PHBhdGggZD0iTTM2NiA2ODNRMzY3IDY4MyA0MzggNjg4VDUxMSA2OTRRNTIzIDY5NCA1MjMgNjg2UTUyMyA2NzkgNDUwIDM4NFQzNzUgODNUMzc0IDY4UTM3NCAyNiA0MDIgMjZRNDExIDI3IDQyMiAzNVE0NDMgNTUgNDYzIDEzMVE0NjkgMTUxIDQ3MyAxNTJRNDc1IDE1MyA0ODMgMTUzSDQ4N0g0OTFRNTA2IDE1MyA1MDYgMTQ1UTUwNiAxNDAgNTAzIDEyOVE0OTAgNzkgNDczIDQ4VDQ0NSA4VDQxNyAtOFE0MDkgLTEwIDM5MyAtMTBRMzU5IC0xMCAzMzYgNVQzMDYgMzZMMzAwIDUxUTI5OSA1MiAyOTYgNTBRMjk0IDQ4IDI5MiA0NlEyMzMgLTEwIDE3MiAtMTBRMTE3IC0xMCA3NSAzMFQzMyAxNTdRMzMgMjA1IDUzIDI1NVQxMDEgMzQxUTE0OCAzOTggMTk1IDQyMFQyODAgNDQyUTMzNiA0NDIgMzY0IDQwMFEzNjkgMzk0IDM2OSAzOTZRMzcwIDQwMCAzOTYgNTA1VDQyNCA2MTZRNDI0IDYyOSA0MTcgNjMyVDM3OCA2MzdIMzU3UTM1MSA2NDMgMzUxIDY0NVQzNTMgNjY0UTM1OCA2ODMgMzY2IDY4M1pNMzUyIDMyNlEzMjkgNDA1IDI3NyA0MDVRMjQyIDQwNSAyMTAgMzc0VDE2MCAyOTNRMTMxIDIxNCAxMTkgMTI5UTExOSAxMjYgMTE5IDExOFQxMTggMTA2UTExOCA2MSAxMzYgNDRUMTc5IDI2UTIzMyAyNiAyOTAgOThMMjk4IDEwOUwzNTIgMzI2WiIgZGF0YS1jPSIxRDQ1MSIvPjwvZz48ZyB0cmFuc2Zvcm09InRyYW5zbGF0ZSgxMTkwMS4zLDApIiBkYXRhLW1tbC1ub2RlPSJtaSI+PHBhdGggZD0iTTUyIDI4OVE1OSAzMzEgMTA2IDM4NlQyMjIgNDQyUTI1NyA0NDIgMjg2IDQyNFQzMjkgMzc5UTM3MSA0NDIgNDMwIDQ0MlE0NjcgNDQyIDQ5NCA0MjBUNTIyIDM2MVE1MjIgMzMyIDUwOCAzMTRUNDgxIDI5MlQ0NTggMjg4UTQzOSAyODggNDI3IDI5OVQ0MTUgMzI4UTQxNSAzNzQgNDY1IDM5MVE0NTQgNDA0IDQyNSA0MDRRNDEyIDQwNCA0MDYgNDAyUTM2OCAzODYgMzUwIDMzNlEyOTAgMTE1IDI5MCA3OFEyOTAgNTAgMzA2IDM4VDM0MSAyNlEzNzggMjYgNDE0IDU5VDQ2MyAxNDBRNDY2IDE1MCA0NjkgMTUxVDQ4NSAxNTNINDg5UTUwNCAxNTMgNTA0IDE0NVE1MDQgMTQ0IDUwMiAxMzRRNDg2IDc3IDQ0MCAzM1QzMzMgLTExUTI2MyAtMTEgMjI3IDUyUTE4NiAtMTAgMTMzIC0xMEgxMjdRNzggLTEwIDU3IDE2VDM1IDcxUTM1IDEwMyA1NCAxMjNUOTkgMTQzUTE0MiAxNDMgMTQyIDEwMVExNDIgODEgMTMwIDY2VDEwNyA0NlQ5NCA0MUw5MSA0MFE5MSAzOSA5NyAzNlQxMTMgMjlUMTMyIDI2UTE2OCAyNiAxOTQgNzFRMjAzIDg3IDIxNyAxMzlUMjQ1IDI0N1QyNjEgMzEzUTI2NiAzNDAgMjY2IDM1MlEyNjYgMzgwIDI1MSAzOTJUMjE3IDQwNFExNzcgNDA0IDE0MiAzNzJUOTMgMjkwUTkxIDI4MSA4OCAyODBUNzIgMjc4SDU4UTUyIDI4NCA1MiAyODlaIiBkYXRhLWM9IjFENDY1Ii8+PC9nPjwvZz48L2c+PC9zdmc+" parent="1" vertex="1">
                    <mxGeometry x="500" y="570" width="224.01" height="40" as="geometry"/>
                </mxCell>
                <mxCell id="20" value="" style="shape=image;verticalLabelPosition=bottom;verticalAlign=top;imageAspect=0;aspect=fixed;image=data:image/svg+xml,PHN2ZyB4bWxucz0iaHR0cDovL3d3dy53My5vcmcvMjAwMC9zdmciIHZpZXdCb3g9IjAgLTEzNzAgMTI0NzMuMyAyMjMxIiByb2xlPSJpbWciIGhlaWdodD0iNS4wNDhleCIgd2lkdGg9IjI4LjIyZXgiIHN0eWxlPSJ2ZXJ0aWNhbC1hbGlnbjogLTEuOTQ4ZXg7Ij4KPHN0eWxlPgogICogeyBmaWxsOiAjZjQzZjVlOyB9CiAgQG1lZGlhIChwcmVmZXJzLWNvbG9yLXNjaGVtZTogZGFyaykgewogICAgKiB7IGZpbGw6ICNmNDNmNWU7IH0KICB9Cjwvc3R5bGU+PGcgdHJhbnNmb3JtPSJzY2FsZSgxLC0xKSIgc3Ryb2tlLXdpZHRoPSIwIiBmaWxsPSJjdXJyZW50Q29sb3IiIHN0cm9rZT0iY3VycmVudENvbG9yIj48ZyBkYXRhLW1tbC1ub2RlPSJtYXRoIj48ZyB0cmFuc2Zvcm09InRyYW5zbGF0ZSgwIDEpIiBkYXRhLW1tbC1ub2RlPSJtbyI+PHBhdGggZD0iTTExNCAtNzk4UTEzMiAtODI0IDE2NSAtODI0SDE2N1ExOTUgLTgyNCAyMjMgLTc2NFQyNzUgLTYwMFQzMjAgLTM5MVQzNjIgLTE2NFEzNjUgLTE0MyAzNjcgLTEzM1E0MzkgMjkyIDUyMyA2NTVUNjQ1IDExMjdRNjUxIDExNDUgNjU1IDExNTdUNjcyIDEyMDFUNjk5IDEyNTdUNzMzIDEzMDZUNzc3IDEzNDZUODI4IDEzNjBRODg0IDEzNjAgOTEyIDEzMjVUOTQ0IDEyNDVROTQ0IDEyMjAgOTMyIDEyMDVUOTA5IDExODZUODg3IDExODNRODY2IDExODMgODQ5IDExOThUODMyIDEyMzlRODMyIDEyODcgODg1IDEyOTZMODgyIDEzMDBRODc5IDEzMDMgODc0IDEzMDdUODY2IDEzMTNRODUxIDEzMjMgODMzIDEzMjNRODE5IDEzMjMgODA3IDEzMTFUNzc1IDEyNTVUNzM2IDExMzlUNjg5IDkzNlQ2MzMgNjI4UTU3NCAyOTMgNTEwIC01VDQxMCAtNDM3VDM1NSAtNjI5UTI3OCAtODYyIDE2NSAtODYyUTEyNSAtODYyIDkyIC04MzFUNTUgLTc0NlE1NSAtNzExIDc0IC02OThUMTEyIC02ODVRMTMzIC02ODUgMTUwIC03MDBUMTY3IC03NDFRMTY3IC03ODkgMTE0IC03OThaIiBkYXRhLWM9IjIyMkIiLz48L2c+PGcgdHJhbnNmb3JtPSJ0cmFuc2xhdGUoMTExMC43LDApIiBkYXRhLW1tbC1ub2RlPSJtaSI+PHBhdGggZD0iTTIxIDI4N1EyMSAyOTUgMzAgMzE4VDU1IDM3MFQ5OSA0MjBUMTU4IDQ0MlEyMDQgNDQyIDIyNyA0MTdUMjUwIDM1OFEyNTAgMzQwIDIxNiAyNDZUMTgyIDEwNVExODIgNjIgMTk2IDQ1VDIzOCAyN1QyOTEgNDRUMzI4IDc4TDMzOSA5NVEzNDEgOTkgMzc3IDI0N1E0MDcgMzY3IDQxMyAzODdUNDI3IDQxNlE0NDQgNDMxIDQ2MyA0MzFRNDgwIDQzMSA0ODggNDIxVDQ5NiA0MDJMNDIwIDg0UTQxOSA3OSA0MTkgNjhRNDE5IDQzIDQyNiAzNVQ0NDcgMjZRNDY5IDI5IDQ4MiA1N1Q1MTIgMTQ1UTUxNCAxNTMgNTMyIDE1M1E1NTEgMTUzIDU1MSAxNDRRNTUwIDEzOSA1NDkgMTMwVDU0MCA5OFQ1MjMgNTVUNDk4IDE3VDQ2MiAtOFE0NTQgLTEwIDQzOCAtMTBRMzcyIC0xMCAzNDcgNDZRMzQ1IDQ1IDMzNiAzNlQzMTggMjFUMjk2IDZUMjY3IC02VDIzMyAtMTFRMTg5IC0xMSAxNTUgN1ExMDMgMzggMTAzIDExM1ExMDMgMTcwIDEzOCAyNjJUMTczIDM3OVExNzMgMzgwIDE3MyAzODFRMTczIDM5MCAxNzMgMzkzVDE2OSA0MDBUMTU4IDQwNEgxNTRRMTMxIDQwNCAxMTIgMzg1VDgyIDM0NFQ2NSAzMDJUNTcgMjgwUTU1IDI3OCA0MSAyNzhIMjdRMjEgMjg0IDIxIDI4N1oiIGRhdGEtYz0iMUQ0NjIiLz48L2c+PGcgdHJhbnNmb3JtPSJ0cmFuc2xhdGUoMTY4Mi43LDApIiBkYXRhLW1tbC1ub2RlPSJtZnJhYyI+PGcgdHJhbnNmb3JtPSJ0cmFuc2xhdGUoMjYzLjUsNjc2KSIgZGF0YS1tbWwtbm9kZT0ibXJvdyI+PGcgZGF0YS1tbWwtbm9kZT0ibWkiPjxwYXRoIGQ9Ik0zNjYgNjgzUTM2NyA2ODMgNDM4IDY4OFQ1MTEgNjk0UTUyMyA2OTQgNTIzIDY4NlE1MjMgNjc5IDQ1MCAzODRUMzc1IDgzVDM3NCA2OFEzNzQgMjYgNDAyIDI2UTQxMSAyNyA0MjIgMzVRNDQzIDU1IDQ2MyAxMzFRNDY5IDE1MSA0NzMgMTUyUTQ3NSAxNTMgNDgzIDE1M0g0ODdINDkxUTUwNiAxNTMgNTA2IDE0NVE1MDYgMTQwIDUwMyAxMjlRNDkwIDc5IDQ3MyA0OFQ0NDUgOFQ0MTcgLThRNDA5IC0xMCAzOTMgLTEwUTM1OSAtMTAgMzM2IDVUMzA2IDM2TDMwMCA1MVEyOTkgNTIgMjk2IDUwUTI5NCA0OCAyOTIgNDZRMjMzIC0xMCAxNzIgLTEwUTExNyAtMTAgNzUgMzBUMzMgMTU3UTMzIDIwNSA1MyAyNTVUMTAxIDM0MVExNDggMzk4IDE5NSA0MjBUMjgwIDQ0MlEzMzYgNDQyIDM2NCA0MDBRMzY5IDM5NCAzNjkgMzk2UTM3MCA0MDAgMzk2IDUwNVQ0MjQgNjE2UTQyNCA2MjkgNDE3IDYzMlQzNzggNjM3SDM1N1EzNTEgNjQzIDM1MSA2NDVUMzUzIDY2NFEzNTggNjgzIDM2NiA2ODNaTTM1MiAzMjZRMzI5IDQwNSAyNzcgNDA1UTI0MiA0MDUgMjEwIDM3NFQxNjAgMjkzUTEzMSAyMTQgMTE5IDEyOVExMTkgMTI2IDExOSAxMThUMTE4IDEwNlExMTggNjEgMTM2IDQ0VDE3OSAyNlEyMzMgMjYgMjkwIDk4TDI5OCAxMDlMMzUyIDMyNloiIGRhdGEtYz0iMUQ0NTEiLz48L2c+PGcgdHJhbnNmb3JtPSJ0cmFuc2xhdGUoNTIwLDApIiBkYXRhLW1tbC1ub2RlPSJtaSI+PHBhdGggZD0iTTE3MyAzODBRMTczIDQwNSAxNTQgNDA1UTEzMCA0MDUgMTA0IDM3NlQ2MSAyODdRNjAgMjg2IDU5IDI4NFQ1OCAyODFUNTYgMjc5VDUzIDI3OFQ0OSAyNzhUNDEgMjc4SDI3UTIxIDI4NCAyMSAyODdRMjEgMjk0IDI5IDMxNlQ1MyAzNjhUOTcgNDE5VDE2MCA0NDFRMjAyIDQ0MSAyMjUgNDE3VDI0OSAzNjFRMjQ5IDM0NCAyNDYgMzM1UTI0NiAzMjkgMjMxIDI5MVQyMDAgMjAyVDE4MiAxMTNRMTgyIDg2IDE4NyA2OVEyMDAgMjYgMjUwIDI2UTI4NyAyNiAzMTkgNjBUMzY5IDEzOVQzOTggMjIyVDQwOSAyNzdRNDA5IDMwMCA0MDEgMzE3VDM4MyAzNDNUMzY1IDM2MVQzNTcgMzgzUTM1NyA0MDUgMzc2IDQyNFQ0MTcgNDQzUTQzNiA0NDMgNDUxIDQyNVQ0NjcgMzY3UTQ2NyAzNDAgNDU1IDI4NFQ0MTggMTU5VDM0NyA0MFQyNDEgLTExUTE3NyAtMTEgMTM5IDIyUTEwMiA1NCAxMDIgMTE3UTEwMiAxNDggMTEwIDE4MVQxNTEgMjk4UTE3MyAzNjIgMTczIDM4MFoiIGRhdGEtYz0iMUQ0NjMiLz48L2c+PC9nPjxnIHRyYW5zZm9ybT0idHJhbnNsYXRlKDIyMCwtNjg2KSIgZGF0YS1tbWwtbm9kZT0ibXJvdyI+PGcgZGF0YS1tbWwtbm9kZT0ibWkiPjxwYXRoIGQ9Ik0zNjYgNjgzUTM2NyA2ODMgNDM4IDY4OFQ1MTEgNjk0UTUyMyA2OTQgNTIzIDY4NlE1MjMgNjc5IDQ1MCAzODRUMzc1IDgzVDM3NCA2OFEzNzQgMjYgNDAyIDI2UTQxMSAyNyA0MjIgMzVRNDQzIDU1IDQ2MyAxMzFRNDY5IDE1MSA0NzMgMTUyUTQ3NSAxNTMgNDgzIDE1M0g0ODdINDkxUTUwNiAxNTMgNTA2IDE0NVE1MDYgMTQwIDUwMyAxMjlRNDkwIDc5IDQ3MyA0OFQ0NDUgOFQ0MTcgLThRNDA5IC0xMCAzOTMgLTEwUTM1OSAtMTAgMzM2IDVUMzA2IDM2TDMwMCA1MVEyOTkgNTIgMjk2IDUwUTI5NCA0OCAyOTIgNDZRMjMzIC0xMCAxNzIgLTEwUTExNyAtMTAgNzUgMzBUMzMgMTU3UTMzIDIwNSA1MyAyNTVUMTAxIDM0MVExNDggMzk4IDE5NSA0MjBUMjgwIDQ0MlEzMzYgNDQyIDM2NCA0MDBRMzY5IDM5NCAzNjkgMzk2UTM3MCA0MDAgMzk2IDUwNVQ0MjQgNjE2UTQyNCA2MjkgNDE3IDYzMlQzNzggNjM3SDM1N1EzNTEgNjQzIDM1MSA2NDVUMzUzIDY2NFEzNTggNjgzIDM2NiA2ODNaTTM1MiAzMjZRMzI5IDQwNSAyNzcgNDA1UTI0MiA0MDUgMjEwIDM3NFQxNjAgMjkzUTEzMSAyMTQgMTE5IDEyOVExMTkgMTI2IDExOSAxMThUMTE4IDEwNlExMTggNjEgMTM2IDQ0VDE3OSAyNlEyMzMgMjYgMjkwIDk4TDI5OCAxMDlMMzUyIDMyNloiIGRhdGEtYz0iMUQ0NTEiLz48L2c+PGcgdHJhbnNmb3JtPSJ0cmFuc2xhdGUoNTIwLDApIiBkYXRhLW1tbC1ub2RlPSJtaSI+PHBhdGggZD0iTTUyIDI4OVE1OSAzMzEgMTA2IDM4NlQyMjIgNDQyUTI1NyA0NDIgMjg2IDQyNFQzMjkgMzc5UTM3MSA0NDIgNDMwIDQ0MlE0NjcgNDQyIDQ5NCA0MjBUNTIyIDM2MVE1MjIgMzMyIDUwOCAzMTRUNDgxIDI5MlQ0NTggMjg4UTQzOSAyODggNDI3IDI5OVQ0MTUgMzI4UTQxNSAzNzQgNDY1IDM5MVE0NTQgNDA0IDQyNSA0MDRRNDEyIDQwNCA0MDYgNDAyUTM2OCAzODYgMzUwIDMzNlEyOTAgMTE1IDI5MCA3OFEyOTAgNTAgMzA2IDM4VDM0MSAyNlEzNzggMjYgNDE0IDU5VDQ2MyAxNDBRNDY2IDE1MCA0NjkgMTUxVDQ4NSAxNTNINDg5UTUwNCAxNTMgNTA0IDE0NVE1MDQgMTQ0IDUwMiAxMzRRNDg2IDc3IDQ0MCAzM1QzMzMgLTExUTI2MyAtMTEgMjI3IDUyUTE4NiAtMTAgMTMzIC0xMEgxMjdRNzggLTEwIDU3IDE2VDM1IDcxUTM1IDEwMyA1NCAxMjNUOTkgMTQzUTE0MiAxNDMgMTQyIDEwMVExNDIgODEgMTMwIDY2VDEwNyA0NlQ5NCA0MUw5MSA0MFE5MSAzOSA5NyAzNlQxMTMgMjlUMTMyIDI2UTE2OCAyNiAxOTQgNzFRMjAzIDg3IDIxNyAxMzlUMjQ1IDI0N1QyNjEgMzEzUTI2NiAzNDAgMjY2IDM1MlEyNjYgMzgwIDI1MSAzOTJUMjE3IDQwNFExNzcgNDA0IDE0MiAzNzJUOTMgMjkwUTkxIDI4MSA4OCAyODBUNzIgMjc4SDU4UTUyIDI4NCA1MiAyODlaIiBkYXRhLWM9IjFENDY1Ii8+PC9nPjwvZz48cmVjdCB5PSIyMjAiIHg9IjEyMCIgaGVpZ2h0PSI2MCIgd2lkdGg9IjEyOTIiLz48L2c+PGcgdHJhbnNmb3JtPSJ0cmFuc2xhdGUoMzIxNC43LDApIiBkYXRhLW1tbC1ub2RlPSJtc3R5bGUiPjxnIGRhdGEtbW1sLW5vZGU9Im1zcGFjZSIvPjwvZz48ZyB0cmFuc2Zvcm09InRyYW5zbGF0ZSgzMzgxLjcsMCkiIGRhdGEtbW1sLW5vZGU9Im1pIj48cGF0aCBkPSJNMzY2IDY4M1EzNjcgNjgzIDQzOCA2ODhUNTExIDY5NFE1MjMgNjk0IDUyMyA2ODZRNTIzIDY3OSA0NTAgMzg0VDM3NSA4M1QzNzQgNjhRMzc0IDI2IDQwMiAyNlE0MTEgMjcgNDIyIDM1UTQ0MyA1NSA0NjMgMTMxUTQ2OSAxNTEgNDczIDE1MlE0NzUgMTUzIDQ4MyAxNTNINDg3SDQ5MVE1MDYgMTUzIDUwNiAxNDVRNTA2IDE0MCA1MDMgMTI5UTQ5MCA3OSA0NzMgNDhUNDQ1IDhUNDE3IC04UTQwOSAtMTAgMzkzIC0xMFEzNTkgLTEwIDMzNiA1VDMwNiAzNkwzMDAgNTFRMjk5IDUyIDI5NiA1MFEyOTQgNDggMjkyIDQ2UTIzMyAtMTAgMTcyIC0xMFExMTcgLTEwIDc1IDMwVDMzIDE1N1EzMyAyMDUgNTMgMjU1VDEwMSAzNDFRMTQ4IDM5OCAxOTUgNDIwVDI4MCA0NDJRMzM2IDQ0MiAzNjQgNDAwUTM2OSAzOTQgMzY5IDM5NlEzNzAgNDAwIDM5NiA1MDVUNDI0IDYxNlE0MjQgNjI5IDQxNyA2MzJUMzc4IDYzN0gzNTdRMzUxIDY0MyAzNTEgNjQ1VDM1MyA2NjRRMzU4IDY4MyAzNjYgNjgzWk0zNTIgMzI2UTMyOSA0MDUgMjc3IDQwNVEyNDIgNDA1IDIxMCAzNzRUMTYwIDI5M1ExMzEgMjE0IDExOSAxMjlRMTE5IDEyNiAxMTkgMTE4VDExOCAxMDZRMTE4IDYxIDEzNiA0NFQxNzkgMjZRMjMzIDI2IDI5MCA5OEwyOTggMTA5TDM1MiAzMjZaIiBkYXRhLWM9IjFENDUxIi8+PC9nPjxnIHRyYW5zZm9ybT0idHJhbnNsYXRlKDM5MDEuNywwKSIgZGF0YS1tbWwtbm9kZT0ibWkiPjxwYXRoIGQ9Ik01MiAyODlRNTkgMzMxIDEwNiAzODZUMjIyIDQ0MlEyNTcgNDQyIDI4NiA0MjRUMzI5IDM3OVEzNzEgNDQyIDQzMCA0NDJRNDY3IDQ0MiA0OTQgNDIwVDUyMiAzNjFRNTIyIDMzMiA1MDggMzE0VDQ4MSAyOTJUNDU4IDI4OFE0MzkgMjg4IDQyNyAyOTlUNDE1IDMyOFE0MTUgMzc0IDQ2NSAzOTFRNDU0IDQwNCA0MjUgNDA0UTQxMiA0MDQgNDA2IDQwMlEzNjggMzg2IDM1MCAzMzZRMjkwIDExNSAyOTAgNzhRMjkwIDUwIDMwNiAzOFQzNDEgMjZRMzc4IDI2IDQxNCA1OVQ0NjMgMTQwUTQ2NiAxNTAgNDY5IDE1MVQ0ODUgMTUzSDQ4OVE1MDQgMTUzIDUwNCAxNDVRNTA0IDE0NCA1MDIgMTM0UTQ4NiA3NyA0NDAgMzNUMzMzIC0xMVEyNjMgLTExIDIyNyA1MlExODYgLTEwIDEzMyAtMTBIMTI3UTc4IC0xMCA1NyAxNlQzNSA3MVEzNSAxMDMgNTQgMTIzVDk5IDE0M1ExNDIgMTQzIDE0MiAxMDFRMTQyIDgxIDEzMCA2NlQxMDcgNDZUOTQgNDFMOTEgNDBROTEgMzkgOTcgMzZUMTEzIDI5VDEzMiAyNlExNjggMjYgMTk0IDcxUTIwMyA4NyAyMTcgMTM5VDI0NSAyNDdUMjYxIDMxM1EyNjYgMzQwIDI2NiAzNTJRMjY2IDM4MCAyNTEgMzkyVDIxNyA0MDRRMTc3IDQwNCAxNDIgMzcyVDkzIDI5MFE5MSAyODEgODggMjgwVDcyIDI3OEg1OFE1MiAyODQgNTIgMjg5WiIgZGF0YS1jPSIxRDQ2NSIvPjwvZz48ZyB0cmFuc2Zvcm09InRyYW5zbGF0ZSg0NzUxLjQsMCkiIGRhdGEtbW1sLW5vZGU9Im1vIj48cGF0aCBkPSJNNTYgMzQ3UTU2IDM2MCA3MCAzNjdINzA3UTcyMiAzNTkgNzIyIDM0N1E3MjIgMzM2IDcwOCAzMjhMMzkwIDMyN0g3MlE1NiAzMzIgNTYgMzQ3Wk01NiAxNTNRNTYgMTY4IDcyIDE3M0g3MDhRNzIyIDE2MyA3MjIgMTUzUTcyMiAxNDAgNzA3IDEzM0g3MFE1NiAxNDAgNTYgMTUzWiIgZGF0YS1jPSIzRCIvPjwvZz48ZyB0cmFuc2Zvcm09InRyYW5zbGF0ZSg1ODA3LjIsMCkiIGRhdGEtbW1sLW5vZGU9Im1pIj48cGF0aCBkPSJNMjEgMjg3UTIxIDI5NSAzMCAzMThUNTUgMzcwVDk5IDQyMFQxNTggNDQyUTIwNCA0NDIgMjI3IDQxN1QyNTAgMzU4UTI1MCAzNDAgMjE2IDI0NlQxODIgMTA1UTE4MiA2MiAxOTYgNDVUMjM4IDI3VDI5MSA0NFQzMjggNzhMMzM5IDk1UTM0MSA5OSAzNzcgMjQ3UTQwNyAzNjcgNDEzIDM4N1Q0MjcgNDE2UTQ0NCA0MzEgNDYzIDQzMVE0ODAgNDMxIDQ4OCA0MjFUNDk2IDQwMkw0MjAgODRRNDE5IDc5IDQxOSA2OFE0MTkgNDMgNDI2IDM1VDQ0NyAyNlE0NjkgMjkgNDgyIDU3VDUxMiAxNDVRNTE0IDE1MyA1MzIgMTUzUTU1MSAxNTMgNTUxIDE0NFE1NTAgMTM5IDU0OSAxMzBUNTQwIDk4VDUyMyA1NVQ0OTggMTdUNDYyIC04UTQ1NCAtMTAgNDM4IC0xMFEzNzIgLTEwIDM0NyA0NlEzNDUgNDUgMzM2IDM2VDMxOCAyMVQyOTYgNlQyNjcgLTZUMjMzIC0xMVExODkgLTExIDE1NSA3UTEwMyAzOCAxMDMgMTEzUTEwMyAxNzAgMTM4IDI2MlQxNzMgMzc5UTE3MyAzODAgMTczIDM4MVExNzMgMzkwIDE3MyAzOTNUMTY5IDQwMFQxNTggNDA0SDE1NFExMzEgNDA0IDExMiAzODVUODIgMzQ0VDY1IDMwMlQ1NyAyODBRNTUgMjc4IDQxIDI3OEgyN1EyMSAyODQgMjEgMjg3WiIgZGF0YS1jPSIxRDQ2MiIvPjwvZz48ZyB0cmFuc2Zvcm09InRyYW5zbGF0ZSg2Mzc5LjIsMCkiIGRhdGEtbW1sLW5vZGU9Im1pIj48cGF0aCBkPSJNMTczIDM4MFExNzMgNDA1IDE1NCA0MDVRMTMwIDQwNSAxMDQgMzc2VDYxIDI4N1E2MCAyODYgNTkgMjg0VDU4IDI4MVQ1NiAyNzlUNTMgMjc4VDQ5IDI3OFQ0MSAyNzhIMjdRMjEgMjg0IDIxIDI4N1EyMSAyOTQgMjkgMzE2VDUzIDM2OFQ5NyA0MTlUMTYwIDQ0MVEyMDIgNDQxIDIyNSA0MTdUMjQ5IDM2MVEyNDkgMzQ0IDI0NiAzMzVRMjQ2IDMyOSAyMzEgMjkxVDIwMCAyMDJUMTgyIDExM1ExODIgODYgMTg3IDY5UTIwMCAyNiAyNTAgMjZRMjg3IDI2IDMxOSA2MFQzNjkgMTM5VDM5OCAyMjJUNDA5IDI3N1E0MDkgMzAwIDQwMSAzMTdUMzgzIDM0M1QzNjUgMzYxVDM1NyAzODNRMzU3IDQwNSAzNzYgNDI0VDQxNyA0NDNRNDM2IDQ0MyA0NTEgNDI1VDQ2NyAzNjdRNDY3IDM0MCA0NTUgMjg0VDQxOCAxNTlUMzQ3IDQwVDI0MSAtMTFRMTc3IC0xMSAxMzkgMjJRMTAyIDU0IDEwMiAxMTdRMTAyIDE0OCAxMTAgMTgxVDE1MSAyOThRMTczIDM2MiAxNzMgMzgwWiIgZGF0YS1jPSIxRDQ2MyIvPjwvZz48ZyB0cmFuc2Zvcm09InRyYW5zbGF0ZSg3MDg2LjQsMCkiIGRhdGEtbW1sLW5vZGU9Im1vIj48cGF0aCBkPSJNODQgMjM3VDg0IDI1MFQ5OCAyNzBINjc5UTY5NCAyNjIgNjk0IDI1MFQ2NzkgMjMwSDk4UTg0IDIzNyA4NCAyNTBaIiBkYXRhLWM9IjIyMTIiLz48L2c+PGcgdHJhbnNmb3JtPSJ0cmFuc2xhdGUoODA4Ni43LDApIHRyYW5zbGF0ZSgwIDEpIiBkYXRhLW1tbC1ub2RlPSJtbyI+PHBhdGggZD0iTTExNCAtNzk4UTEzMiAtODI0IDE2NSAtODI0SDE2N1ExOTUgLTgyNCAyMjMgLTc2NFQyNzUgLTYwMFQzMjAgLTM5MVQzNjIgLTE2NFEzNjUgLTE0MyAzNjcgLTEzM1E0MzkgMjkyIDUyMyA2NTVUNjQ1IDExMjdRNjUxIDExNDUgNjU1IDExNTdUNjcyIDEyMDFUNjk5IDEyNTdUNzMzIDEzMDZUNzc3IDEzNDZUODI4IDEzNjBRODg0IDEzNjAgOTEyIDEzMjVUOTQ0IDEyNDVROTQ0IDEyMjAgOTMyIDEyMDVUOTA5IDExODZUODg3IDExODNRODY2IDExODMgODQ5IDExOThUODMyIDEyMzlRODMyIDEyODcgODg1IDEyOTZMODgyIDEzMDBRODc5IDEzMDMgODc0IDEzMDdUODY2IDEzMTNRODUxIDEzMjMgODMzIDEzMjNRODE5IDEzMjMgODA3IDEzMTFUNzc1IDEyNTVUNzM2IDExMzlUNjg5IDkzNlQ2MzMgNjI4UTU3NCAyOTMgNTEwIC01VDQxMCAtNDM3VDM1NSAtNjI5UTI3OCAtODYyIDE2NSAtODYyUTEyNSAtODYyIDkyIC04MzFUNTUgLTc0NlE1NSAtNzExIDc0IC02OThUMTEyIC02ODVRMTMzIC02ODUgMTUwIC03MDBUMTY3IC03NDFRMTY3IC03ODkgMTE0IC03OThaIiBkYXRhLWM9IjIyMkIiLz48L2c+PGcgdHJhbnNmb3JtPSJ0cmFuc2xhdGUoOTE5Ny4zLDApIiBkYXRhLW1tbC1ub2RlPSJtZnJhYyI+PGcgdHJhbnNmb3JtPSJ0cmFuc2xhdGUoMjIwLDY3NikiIGRhdGEtbW1sLW5vZGU9Im1yb3ciPjxnIGRhdGEtbW1sLW5vZGU9Im1pIj48cGF0aCBkPSJNMzY2IDY4M1EzNjcgNjgzIDQzOCA2ODhUNTExIDY5NFE1MjMgNjk0IDUyMyA2ODZRNTIzIDY3OSA0NTAgMzg0VDM3NSA4M1QzNzQgNjhRMzc0IDI2IDQwMiAyNlE0MTEgMjcgNDIyIDM1UTQ0MyA1NSA0NjMgMTMxUTQ2OSAxNTEgNDczIDE1MlE0NzUgMTUzIDQ4MyAxNTNINDg3SDQ5MVE1MDYgMTUzIDUwNiAxNDVRNTA2IDE0MCA1MDMgMTI5UTQ5MCA3OSA0NzMgNDhUNDQ1IDhUNDE3IC04UTQwOSAtMTAgMzkzIC0xMFEzNTkgLTEwIDMzNiA1VDMwNiAzNkwzMDAgNTFRMjk5IDUyIDI5NiA1MFEyOTQgNDggMjkyIDQ2UTIzMyAtMTAgMTcyIC0xMFExMTcgLTEwIDc1IDMwVDMzIDE1N1EzMyAyMDUgNTMgMjU1VDEwMSAzNDFRMTQ4IDM5OCAxOTUgNDIwVDI4MCA0NDJRMzM2IDQ0MiAzNjQgNDAwUTM2OSAzOTQgMzY5IDM5NlEzNzAgNDAwIDM5NiA1MDVUNDI0IDYxNlE0MjQgNjI5IDQxNyA2MzJUMzc4IDYzN0gzNTdRMzUxIDY0MyAzNTEgNjQ1VDM1MyA2NjRRMzU4IDY4MyAzNjYgNjgzWk0zNTIgMzI2UTMyOSA0MDUgMjc3IDQwNVEyNDIgNDA1IDIxMCAzNzRUMTYwIDI5M1ExMzEgMjE0IDExOSAxMjlRMTE5IDEyNiAxMTkgMTE4VDExOCAxMDZRMTE4IDYxIDEzNiA0NFQxNzkgMjZRMjMzIDI2IDI5MCA5OEwyOTggMTA5TDM1MiAzMjZaIiBkYXRhLWM9IjFENDUxIi8+PC9nPjxnIHRyYW5zZm9ybT0idHJhbnNsYXRlKDUyMCwwKSIgZGF0YS1tbWwtbm9kZT0ibWkiPjxwYXRoIGQ9Ik0yMSAyODdRMjEgMjk1IDMwIDMxOFQ1NSAzNzBUOTkgNDIwVDE1OCA0NDJRMjA0IDQ0MiAyMjcgNDE3VDI1MCAzNThRMjUwIDM0MCAyMTYgMjQ2VDE4MiAxMDVRMTgyIDYyIDE5NiA0NVQyMzggMjdUMjkxIDQ0VDMyOCA3OEwzMzkgOTVRMzQxIDk5IDM3NyAyNDdRNDA3IDM2NyA0MTMgMzg3VDQyNyA0MTZRNDQ0IDQzMSA0NjMgNDMxUTQ4MCA0MzEgNDg4IDQyMVQ0OTYgNDAyTDQyMCA4NFE0MTkgNzkgNDE5IDY4UTQxOSA0MyA0MjYgMzVUNDQ3IDI2UTQ2OSAyOSA0ODIgNTdUNTEyIDE0NVE1MTQgMTUzIDUzMiAxNTNRNTUxIDE1MyA1NTEgMTQ0UTU1MCAxMzkgNTQ5IDEzMFQ1NDAgOThUNTIzIDU1VDQ5OCAxN1Q0NjIgLThRNDU0IC0xMCA0MzggLTEwUTM3MiAtMTAgMzQ3IDQ2UTM0NSA0NSAzMzYgMzZUMzE4IDIxVDI5NiA2VDI2NyAtNlQyMzMgLTExUTE4OSAtMTEgMTU1IDdRMTAzIDM4IDEwMyAxMTNRMTAzIDE3MCAxMzggMjYyVDE3MyAzNzlRMTczIDM4MCAxNzMgMzgxUTE3MyAzOTAgMTczIDM5M1QxNjkgNDAwVDE1OCA0MDRIMTU0UTEzMSA0MDQgMTEyIDM4NVQ4MiAzNDRUNjUgMzAyVDU3IDI4MFE1NSAyNzggNDEgMjc4SDI3UTIxIDI4NCAyMSAyODdaIiBkYXRhLWM9IjFENDYyIi8+PC9nPjwvZz48ZyB0cmFuc2Zvcm09InRyYW5zbGF0ZSgyMjAsLTY4NikiIGRhdGEtbW1sLW5vZGU9Im1yb3ciPjxnIGRhdGEtbW1sLW5vZGU9Im1pIj48cGF0aCBkPSJNMzY2IDY4M1EzNjcgNjgzIDQzOCA2ODhUNTExIDY5NFE1MjMgNjk0IDUyMyA2ODZRNTIzIDY3OSA0NTAgMzg0VDM3NSA4M1QzNzQgNjhRMzc0IDI2IDQwMiAyNlE0MTEgMjcgNDIyIDM1UTQ0MyA1NSA0NjMgMTMxUTQ2OSAxNTEgNDczIDE1MlE0NzUgMTUzIDQ4MyAxNTNINDg3SDQ5MVE1MDYgMTUzIDUwNiAxNDVRNTA2IDE0MCA1MDMgMTI5UTQ5MCA3OSA0NzMgNDhUNDQ1IDhUNDE3IC04UTQwOSAtMTAgMzkzIC0xMFEzNTkgLTEwIDMzNiA1VDMwNiAzNkwzMDAgNTFRMjk5IDUyIDI5NiA1MFEyOTQgNDggMjkyIDQ2UTIzMyAtMTAgMTcyIC0xMFExMTcgLTEwIDc1IDMwVDMzIDE1N1EzMyAyMDUgNTMgMjU1VDEwMSAzNDFRMTQ4IDM5OCAxOTUgNDIwVDI4MCA0NDJRMzM2IDQ0MiAzNjQgNDAwUTM2OSAzOTQgMzY5IDM5NlEzNzAgNDAwIDM5NiA1MDVUNDI0IDYxNlE0MjQgNjI5IDQxNyA2MzJUMzc4IDYzN0gzNTdRMzUxIDY0MyAzNTEgNjQ1VDM1MyA2NjRRMzU4IDY4MyAzNjYgNjgzWk0zNTIgMzI2UTMyOSA0MDUgMjc3IDQwNVEyNDIgNDA1IDIxMCAzNzRUMTYwIDI5M1ExMzEgMjE0IDExOSAxMjlRMTE5IDEyNiAxMTkgMTE4VDExOCAxMDZRMTE4IDYxIDEzNiA0NFQxNzkgMjZRMjMzIDI2IDI5MCA5OEwyOTggMTA5TDM1MiAzMjZaIiBkYXRhLWM9IjFENDUxIi8+PC9nPjxnIHRyYW5zZm9ybT0idHJhbnNsYXRlKDUyMCwwKSIgZGF0YS1tbWwtbm9kZT0ibWkiPjxwYXRoIGQ9Ik01MiAyODlRNTkgMzMxIDEwNiAzODZUMjIyIDQ0MlEyNTcgNDQyIDI4NiA0MjRUMzI5IDM3OVEzNzEgNDQyIDQzMCA0NDJRNDY3IDQ0MiA0OTQgNDIwVDUyMiAzNjFRNTIyIDMzMiA1MDggMzE0VDQ4MSAyOTJUNDU4IDI4OFE0MzkgMjg4IDQyNyAyOTlUNDE1IDMyOFE0MTUgMzc0IDQ2NSAzOTFRNDU0IDQwNCA0MjUgNDA0UTQxMiA0MDQgNDA2IDQwMlEzNjggMzg2IDM1MCAzMzZRMjkwIDExNSAyOTAgNzhRMjkwIDUwIDMwNiAzOFQzNDEgMjZRMzc4IDI2IDQxNCA1OVQ0NjMgMTQwUTQ2NiAxNTAgNDY5IDE1MVQ0ODUgMTUzSDQ4OVE1MDQgMTUzIDUwNCAxNDVRNTA0IDE0NCA1MDIgMTM0UTQ4NiA3NyA0NDAgMzNUMzMzIC0xMVEyNjMgLTExIDIyNyA1MlExODYgLTEwIDEzMyAtMTBIMTI3UTc4IC0xMCA1NyAxNlQzNSA3MVEzNSAxMDMgNTQgMTIzVDk5IDE0M1ExNDIgMTQzIDE0MiAxMDFRMTQyIDgxIDEzMCA2NlQxMDcgNDZUOTQgNDFMOTEgNDBROTEgMzkgOTcgMzZUMTEzIDI5VDEzMiAyNlExNjggMjYgMTk0IDcxUTIwMyA4NyAyMTcgMTM5VDI0NSAyNDdUMjYxIDMxM1EyNjYgMzQwIDI2NiAzNTJRMjY2IDM4MCAyNTEgMzkyVDIxNyA0MDRRMTc3IDQwNCAxNDIgMzcyVDkzIDI5MFE5MSAyODEgODggMjgwVDcyIDI3OEg1OFE1MiAyODQgNTIgMjg5WiIgZGF0YS1jPSIxRDQ2NSIvPjwvZz48L2c+PHJlY3QgeT0iMjIwIiB4PSIxMjAiIGhlaWdodD0iNjAiIHdpZHRoPSIxMjkyIi8+PC9nPjxnIHRyYW5zZm9ybT0idHJhbnNsYXRlKDEwNzI5LjMsMCkiIGRhdGEtbW1sLW5vZGU9Im1pIj48cGF0aCBkPSJNMTczIDM4MFExNzMgNDA1IDE1NCA0MDVRMTMwIDQwNSAxMDQgMzc2VDYxIDI4N1E2MCAyODYgNTkgMjg0VDU4IDI4MVQ1NiAyNzlUNTMgMjc4VDQ5IDI3OFQ0MSAyNzhIMjdRMjEgMjg0IDIxIDI4N1EyMSAyOTQgMjkgMzE2VDUzIDM2OFQ5NyA0MTlUMTYwIDQ0MVEyMDIgNDQxIDIyNSA0MTdUMjQ5IDM2MVEyNDkgMzQ0IDI0NiAzMzVRMjQ2IDMyOSAyMzEgMjkxVDIwMCAyMDJUMTgyIDExM1ExODIgODYgMTg3IDY5UTIwMCAyNiAyNTAgMjZRMjg3IDI2IDMxOSA2MFQzNjkgMTM5VDM5OCAyMjJUNDA5IDI3N1E0MDkgMzAwIDQwMSAzMTdUMzgzIDM0M1QzNjUgMzYxVDM1NyAzODNRMzU3IDQwNSAzNzYgNDI0VDQxNyA0NDNRNDM2IDQ0MyA0NTEgNDI1VDQ2NyAzNjdRNDY3IDM0MCA0NTUgMjg0VDQxOCAxNTlUMzQ3IDQwVDI0MSAtMTFRMTc3IC0xMSAxMzkgMjJRMTAyIDU0IDEwMiAxMTdRMTAyIDE0OCAxMTAgMTgxVDE1MSAyOThRMTczIDM2MiAxNzMgMzgwWiIgZGF0YS1jPSIxRDQ2MyIvPjwvZz48ZyB0cmFuc2Zvcm09InRyYW5zbGF0ZSgxMTIxNC4zLDApIiBkYXRhLW1tbC1ub2RlPSJtc3R5bGUiPjxnIGRhdGEtbW1sLW5vZGU9Im1zcGFjZSIvPjwvZz48ZyB0cmFuc2Zvcm09InRyYW5zbGF0ZSgxMTM4MS4zLDApIiBkYXRhLW1tbC1ub2RlPSJtaSI+PHBhdGggZD0iTTM2NiA2ODNRMzY3IDY4MyA0MzggNjg4VDUxMSA2OTRRNTIzIDY5NCA1MjMgNjg2UTUyMyA2NzkgNDUwIDM4NFQzNzUgODNUMzc0IDY4UTM3NCAyNiA0MDIgMjZRNDExIDI3IDQyMiAzNVE0NDMgNTUgNDYzIDEzMVE0NjkgMTUxIDQ3MyAxNTJRNDc1IDE1MyA0ODMgMTUzSDQ4N0g0OTFRNTA2IDE1MyA1MDYgMTQ1UTUwNiAxNDAgNTAzIDEyOVE0OTAgNzkgNDczIDQ4VDQ0NSA4VDQxNyAtOFE0MDkgLTEwIDM5MyAtMTBRMzU5IC0xMCAzMzYgNVQzMDYgMzZMMzAwIDUxUTI5OSA1MiAyOTYgNTBRMjk0IDQ4IDI5MiA0NlEyMzMgLTEwIDE3MiAtMTBRMTE3IC0xMCA3NSAzMFQzMyAxNTdRMzMgMjA1IDUzIDI1NVQxMDEgMzQxUTE0OCAzOTggMTk1IDQyMFQyODAgNDQyUTMzNiA0NDIgMzY0IDQwMFEzNjkgMzk0IDM2OSAzOTZRMzcwIDQwMCAzOTYgNTA1VDQyNCA2MTZRNDI0IDYyOSA0MTcgNjMyVDM3OCA2MzdIMzU3UTM1MSA2NDMgMzUxIDY0NVQzNTMgNjY0UTM1OCA2ODMgMzY2IDY4M1pNMzUyIDMyNlEzMjkgNDA1IDI3NyA0MDVRMjQyIDQwNSAyMTAgMzc0VDE2MCAyOTNRMTMxIDIxNCAxMTkgMTI5UTExOSAxMjYgMTE5IDExOFQxMTggMTA2UTExOCA2MSAxMzYgNDRUMTc5IDI2UTIzMyAyNiAyOTAgOThMMjk4IDEwOUwzNTIgMzI2WiIgZGF0YS1jPSIxRDQ1MSIvPjwvZz48ZyB0cmFuc2Zvcm09InRyYW5zbGF0ZSgxMTkwMS4zLDApIiBkYXRhLW1tbC1ub2RlPSJtaSI+PHBhdGggZD0iTTUyIDI4OVE1OSAzMzEgMTA2IDM4NlQyMjIgNDQyUTI1NyA0NDIgMjg2IDQyNFQzMjkgMzc5UTM3MSA0NDIgNDMwIDQ0MlE0NjcgNDQyIDQ5NCA0MjBUNTIyIDM2MVE1MjIgMzMyIDUwOCAzMTRUNDgxIDI5MlQ0NTggMjg4UTQzOSAyODggNDI3IDI5OVQ0MTUgMzI4UTQxNSAzNzQgNDY1IDM5MVE0NTQgNDA0IDQyNSA0MDRRNDEyIDQwNCA0MDYgNDAyUTM2OCAzODYgMzUwIDMzNlEyOTAgMTE1IDI5MCA3OFEyOTAgNTAgMzA2IDM4VDM0MSAyNlEzNzggMjYgNDE0IDU5VDQ2MyAxNDBRNDY2IDE1MCA0NjkgMTUxVDQ4NSAxNTNINDg5UTUwNCAxNTMgNTA0IDE0NVE1MDQgMTQ0IDUwMiAxMzRRNDg2IDc3IDQ0MCAzM1QzMzMgLTExUTI2MyAtMTEgMjI3IDUyUTE4NiAtMTAgMTMzIC0xMEgxMjdRNzggLTEwIDU3IDE2VDM1IDcxUTM1IDEwMyA1NCAxMjNUOTkgMTQzUTE0MiAxNDMgMTQyIDEwMVExNDIgODEgMTMwIDY2VDEwNyA0NlQ5NCA0MUw5MSA0MFE5MSAzOSA5NyAzNlQxMTMgMjlUMTMyIDI2UTE2OCAyNiAxOTQgNzFRMjAzIDg3IDIxNyAxMzlUMjQ1IDI0N1QyNjEgMzEzUTI2NiAzNDAgMjY2IDM1MlEyNjYgMzgwIDI1MSAzOTJUMjE3IDQwNFExNzcgNDA0IDE0MiAzNzJUOTMgMjkwUTkxIDI4MSA4OCAyODBUNzIgMjc4SDU4UTUyIDI4NCA1MiAyODlaIiBkYXRhLWM9IjFENDY1Ii8+PC9nPjwvZz48L2c+PC9zdmc+" vertex="1" parent="1">
                    <mxGeometry x="500" y="630" width="223.98" height="40" as="geometry"/>
                </mxCell>
            </root>
        </mxGraphModel>
    </diagram>
</mxfile>